<svg xmlns="http://www.w3.org/2000/svg" xmlns:xlink="http://www.w3.org/1999/xlink" width="156" height="156" viewBox="0 0 156 156">
  <defs>
    <clipPath id="clip-path">
      <rect id="Rect치ngulo_406443" data-name="Rect치ngulo 406443" width="117.173" height="117.173" fill="none"/>
    </clipPath>
  </defs>
  <g id="Grupo_1113078" data-name="Grupo 1113078" transform="translate(-358.051 -4459)">
    <rect id="Rect치ngulo_406444" data-name="Rect치ngulo 406444" width="156" height="156" rx="12" transform="translate(358.051 4459)" fill="#95dbb3"/>
    <g id="Grupo_1113077" data-name="Grupo 1113077" transform="translate(377.051 4479.182)">
      <g id="Grupo_1113076" data-name="Grupo 1113076" clip-path="url(#clip-path)">
        <path id="Trazado_900086" data-name="Trazado 900086" d="M35.577,9.9H32.84V1.369a1.369,1.369,0,1,1,2.737,0Z" transform="translate(-4.809 0)" fill="#00401b"/>
        <path id="Trazado_900087" data-name="Trazado 900087" d="M49.254,9.9H46.517V1.369a1.369,1.369,0,1,1,2.737,0Z" transform="translate(-6.812 0)" fill="#00401b"/>
        <path id="Trazado_900088" data-name="Trazado 900088" d="M62.932,9.9H60.195V1.369a1.369,1.369,0,1,1,2.737,0Z" transform="translate(-8.815 0)" fill="#00401b"/>
        <path id="Trazado_900089" data-name="Trazado 900089" d="M76.61,9.9H73.873V1.369a1.369,1.369,0,1,1,2.737,0Z" transform="translate(-10.817 0)" fill="#00401b"/>
        <path id="Trazado_900090" data-name="Trazado 900090" d="M90.287,9.9H87.55V1.369a1.369,1.369,0,1,1,2.737,0Z" transform="translate(-12.82 0)" fill="#00401b"/>
        <path id="Trazado_900091" data-name="Trazado 900091" d="M103.965,9.9h-2.737V1.369a1.369,1.369,0,1,1,2.737,0Z" transform="translate(-14.823 0)" fill="#00401b"/>
        <path id="Trazado_900092" data-name="Trazado 900092" d="M35.469,17.833H32.478a1.242,1.242,0,0,1-1.242-1.242V9.176a1.243,1.243,0,0,1,1.242-1.242h2.991a1.242,1.242,0,0,1,1.242,1.242v7.415a1.241,1.241,0,0,1-1.242,1.242" transform="translate(-4.574 -1.162)" fill="#00993f"/>
        <path id="Trazado_900093" data-name="Trazado 900093" d="M49.147,17.833H46.156a1.242,1.242,0,0,1-1.242-1.242V9.176a1.243,1.243,0,0,1,1.242-1.242h2.991a1.242,1.242,0,0,1,1.242,1.242v7.415a1.241,1.241,0,0,1-1.242,1.242" transform="translate(-6.577 -1.162)" fill="#00993f"/>
        <path id="Trazado_900094" data-name="Trazado 900094" d="M62.824,17.833H59.833a1.242,1.242,0,0,1-1.242-1.242V9.176a1.243,1.243,0,0,1,1.242-1.242h2.991a1.243,1.243,0,0,1,1.243,1.242v7.415a1.242,1.242,0,0,1-1.243,1.242" transform="translate(-8.58 -1.162)" fill="#00993f"/>
        <path id="Trazado_900095" data-name="Trazado 900095" d="M76.5,17.833H73.511a1.242,1.242,0,0,1-1.242-1.242V9.176a1.243,1.243,0,0,1,1.242-1.242H76.5a1.242,1.242,0,0,1,1.242,1.242v7.415A1.241,1.241,0,0,1,76.5,17.833" transform="translate(-10.583 -1.162)" fill="#00993f"/>
        <path id="Trazado_900096" data-name="Trazado 900096" d="M90.18,17.833H87.189a1.242,1.242,0,0,1-1.242-1.242V9.176a1.243,1.243,0,0,1,1.242-1.242H90.18a1.243,1.243,0,0,1,1.242,1.242v7.415a1.242,1.242,0,0,1-1.242,1.242" transform="translate(-12.585 -1.162)" fill="#00993f"/>
        <path id="Trazado_900097" data-name="Trazado 900097" d="M103.858,17.833h-2.991a1.242,1.242,0,0,1-1.242-1.242V9.176a1.243,1.243,0,0,1,1.242-1.242h2.991A1.243,1.243,0,0,1,105.1,9.176v7.415a1.242,1.242,0,0,1-1.242,1.242" transform="translate(-14.588 -1.162)" fill="#00993f"/>
        <path id="Trazado_900098" data-name="Trazado 900098" d="M101.228,125.678h2.737v8.53a1.369,1.369,0,1,1-2.737,0Z" transform="translate(-14.823 -18.403)" fill="#00401b"/>
        <path id="Trazado_900099" data-name="Trazado 900099" d="M87.551,125.678h2.737v8.53a1.369,1.369,0,1,1-2.737,0Z" transform="translate(-12.82 -18.403)" fill="#00401b"/>
        <path id="Trazado_900100" data-name="Trazado 900100" d="M73.873,125.678H76.61v8.53a1.369,1.369,0,1,1-2.737,0Z" transform="translate(-10.817 -18.403)" fill="#00401b"/>
        <path id="Trazado_900101" data-name="Trazado 900101" d="M60.195,125.678h2.737v8.53a1.369,1.369,0,1,1-2.737,0Z" transform="translate(-8.815 -18.403)" fill="#00401b"/>
        <path id="Trazado_900102" data-name="Trazado 900102" d="M46.518,125.678h2.737v8.53a1.369,1.369,0,1,1-2.737,0Z" transform="translate(-6.812 -18.403)" fill="#00401b"/>
        <path id="Trazado_900103" data-name="Trazado 900103" d="M32.84,125.678h2.737v8.53a1.369,1.369,0,1,1-2.737,0Z" transform="translate(-4.809 -18.403)" fill="#00401b"/>
        <path id="Trazado_900104" data-name="Trazado 900104" d="M100.867,117.744h2.991a1.242,1.242,0,0,1,1.242,1.242V126.4a1.243,1.243,0,0,1-1.242,1.242h-2.991a1.242,1.242,0,0,1-1.242-1.242v-7.415a1.241,1.241,0,0,1,1.242-1.242" transform="translate(-14.588 -17.242)" fill="#00993f"/>
        <path id="Trazado_900105" data-name="Trazado 900105" d="M87.189,117.744H90.18a1.242,1.242,0,0,1,1.242,1.242V126.4a1.243,1.243,0,0,1-1.242,1.242H87.189a1.242,1.242,0,0,1-1.242-1.242v-7.415a1.241,1.241,0,0,1,1.242-1.242" transform="translate(-12.585 -17.242)" fill="#00993f"/>
        <path id="Trazado_900106" data-name="Trazado 900106" d="M73.512,117.744H76.5a1.242,1.242,0,0,1,1.242,1.242V126.4a1.243,1.243,0,0,1-1.242,1.242H73.512A1.242,1.242,0,0,1,72.27,126.4v-7.415a1.241,1.241,0,0,1,1.242-1.242" transform="translate(-10.583 -17.242)" fill="#00993f"/>
        <path id="Trazado_900107" data-name="Trazado 900107" d="M59.834,117.744h2.991a1.242,1.242,0,0,1,1.242,1.242V126.4a1.243,1.243,0,0,1-1.242,1.242H59.834a1.243,1.243,0,0,1-1.242-1.242v-7.415a1.242,1.242,0,0,1,1.242-1.242" transform="translate(-8.58 -17.242)" fill="#00993f"/>
        <path id="Trazado_900108" data-name="Trazado 900108" d="M46.156,117.744h2.991a1.242,1.242,0,0,1,1.242,1.242V126.4a1.243,1.243,0,0,1-1.242,1.242H46.156a1.243,1.243,0,0,1-1.242-1.242v-7.415a1.242,1.242,0,0,1,1.242-1.242" transform="translate(-6.577 -17.242)" fill="#00993f"/>
        <path id="Trazado_900109" data-name="Trazado 900109" d="M32.478,117.744h2.991a1.242,1.242,0,0,1,1.242,1.242V126.4a1.243,1.243,0,0,1-1.242,1.242H32.478a1.242,1.242,0,0,1-1.242-1.242v-7.415a1.241,1.241,0,0,1,1.242-1.242" transform="translate(-4.574 -17.242)" fill="#00993f"/>
        <path id="Trazado_900110" data-name="Trazado 900110" d="M125.678,35.577V32.84h8.53a1.369,1.369,0,1,1,0,2.737Z" transform="translate(-18.403 -4.809)" fill="#00401b"/>
        <path id="Trazado_900111" data-name="Trazado 900111" d="M125.678,49.254V46.517h8.53a1.369,1.369,0,1,1,0,2.737Z" transform="translate(-18.403 -6.812)" fill="#00401b"/>
        <path id="Trazado_900112" data-name="Trazado 900112" d="M125.678,62.932V60.195h8.53a1.369,1.369,0,1,1,0,2.737Z" transform="translate(-18.403 -8.815)" fill="#00401b"/>
        <path id="Trazado_900113" data-name="Trazado 900113" d="M125.678,76.61V73.873h8.53a1.369,1.369,0,1,1,0,2.737Z" transform="translate(-18.403 -10.817)" fill="#00401b"/>
        <path id="Trazado_900114" data-name="Trazado 900114" d="M125.678,90.287V87.55h8.53a1.369,1.369,0,1,1,0,2.737Z" transform="translate(-18.403 -12.82)" fill="#00401b"/>
        <path id="Trazado_900115" data-name="Trazado 900115" d="M125.678,103.965v-2.737h8.53a1.369,1.369,0,1,1,0,2.737Z" transform="translate(-18.403 -14.823)" fill="#00401b"/>
        <path id="Trazado_900116" data-name="Trazado 900116" d="M117.744,35.469V32.478a1.242,1.242,0,0,1,1.242-1.242H126.4a1.243,1.243,0,0,1,1.242,1.242v2.991a1.242,1.242,0,0,1-1.242,1.242h-7.415a1.241,1.241,0,0,1-1.242-1.242" transform="translate(-17.242 -4.574)" fill="#00993f"/>
        <path id="Trazado_900117" data-name="Trazado 900117" d="M117.744,49.147V46.156a1.242,1.242,0,0,1,1.242-1.242H126.4a1.243,1.243,0,0,1,1.242,1.242v2.991a1.242,1.242,0,0,1-1.242,1.242h-7.415a1.241,1.241,0,0,1-1.242-1.242" transform="translate(-17.242 -6.577)" fill="#00993f"/>
        <path id="Trazado_900118" data-name="Trazado 900118" d="M117.744,62.824V59.833a1.242,1.242,0,0,1,1.242-1.242H126.4a1.243,1.243,0,0,1,1.242,1.242v2.991a1.243,1.243,0,0,1-1.242,1.242h-7.415a1.242,1.242,0,0,1-1.242-1.242" transform="translate(-17.242 -8.58)" fill="#00993f"/>
        <path id="Trazado_900119" data-name="Trazado 900119" d="M117.744,76.5V73.511a1.242,1.242,0,0,1,1.242-1.242H126.4a1.243,1.243,0,0,1,1.242,1.242V76.5a1.243,1.243,0,0,1-1.242,1.242h-7.415a1.242,1.242,0,0,1-1.242-1.242" transform="translate(-17.242 -10.583)" fill="#00993f"/>
        <path id="Trazado_900120" data-name="Trazado 900120" d="M117.744,90.18V87.189a1.242,1.242,0,0,1,1.242-1.242H126.4a1.243,1.243,0,0,1,1.242,1.242V90.18a1.243,1.243,0,0,1-1.242,1.242h-7.415a1.242,1.242,0,0,1-1.242-1.242" transform="translate(-17.242 -12.585)" fill="#00993f"/>
        <path id="Trazado_900121" data-name="Trazado 900121" d="M117.744,103.858v-2.991a1.242,1.242,0,0,1,1.242-1.242H126.4a1.243,1.243,0,0,1,1.242,1.242v2.991A1.242,1.242,0,0,1,126.4,105.1h-7.415a1.241,1.241,0,0,1-1.242-1.242" transform="translate(-17.242 -14.588)" fill="#00993f"/>
        <path id="Trazado_900122" data-name="Trazado 900122" d="M9.9,101.228v2.737H1.369a1.369,1.369,0,1,1,0-2.737Z" transform="translate(0 -14.823)" fill="#00401b"/>
        <path id="Trazado_900123" data-name="Trazado 900123" d="M9.9,87.551v2.737H1.369a1.369,1.369,0,1,1,0-2.737Z" transform="translate(0 -12.82)" fill="#00401b"/>
        <path id="Trazado_900124" data-name="Trazado 900124" d="M9.9,73.873V76.61H1.369a1.369,1.369,0,1,1,0-2.737Z" transform="translate(0 -10.817)" fill="#00401b"/>
        <path id="Trazado_900125" data-name="Trazado 900125" d="M9.9,60.195v2.737H1.369a1.369,1.369,0,1,1,0-2.737Z" transform="translate(0 -8.815)" fill="#00401b"/>
        <path id="Trazado_900126" data-name="Trazado 900126" d="M9.9,46.518v2.737H1.369a1.369,1.369,0,1,1,0-2.737Z" transform="translate(0 -6.812)" fill="#00401b"/>
        <path id="Trazado_900127" data-name="Trazado 900127" d="M9.9,32.84v2.737H1.369a1.369,1.369,0,1,1,0-2.737Z" transform="translate(0 -4.809)" fill="#00401b"/>
        <path id="Trazado_900128" data-name="Trazado 900128" d="M17.833,100.867v2.991a1.242,1.242,0,0,1-1.242,1.242H9.176a1.243,1.243,0,0,1-1.242-1.242v-2.991a1.242,1.242,0,0,1,1.242-1.242h7.415a1.241,1.241,0,0,1,1.242,1.242" transform="translate(-1.162 -14.588)" fill="#00993f"/>
        <path id="Trazado_900129" data-name="Trazado 900129" d="M17.833,87.189V90.18a1.242,1.242,0,0,1-1.242,1.242H9.176A1.243,1.243,0,0,1,7.934,90.18V87.189a1.242,1.242,0,0,1,1.242-1.242h7.415a1.241,1.241,0,0,1,1.242,1.242" transform="translate(-1.162 -12.585)" fill="#00993f"/>
        <path id="Trazado_900130" data-name="Trazado 900130" d="M17.833,73.511V76.5a1.242,1.242,0,0,1-1.242,1.242H9.176A1.243,1.243,0,0,1,7.934,76.5V73.511a1.242,1.242,0,0,1,1.242-1.242h7.415a1.241,1.241,0,0,1,1.242,1.242" transform="translate(-1.162 -10.583)" fill="#00993f"/>
        <path id="Trazado_900131" data-name="Trazado 900131" d="M17.833,59.834v2.991a1.242,1.242,0,0,1-1.242,1.242H9.176a1.243,1.243,0,0,1-1.242-1.242V59.834a1.243,1.243,0,0,1,1.242-1.242h7.415a1.242,1.242,0,0,1,1.242,1.242" transform="translate(-1.162 -8.58)" fill="#00993f"/>
        <path id="Trazado_900132" data-name="Trazado 900132" d="M17.833,46.156v2.991a1.242,1.242,0,0,1-1.242,1.242H9.176a1.243,1.243,0,0,1-1.242-1.242V46.156a1.243,1.243,0,0,1,1.242-1.242h7.415a1.242,1.242,0,0,1,1.242,1.242" transform="translate(-1.162 -6.577)" fill="#00993f"/>
        <path id="Trazado_900133" data-name="Trazado 900133" d="M17.833,32.478v2.991a1.242,1.242,0,0,1-1.242,1.242H9.176a1.243,1.243,0,0,1-1.242-1.242V32.478a1.243,1.243,0,0,1,1.242-1.242h7.415a1.242,1.242,0,0,1,1.242,1.242" transform="translate(-1.162 -4.574)" fill="#00993f"/>
        <path id="Trazado_900134" data-name="Trazado 900134" d="M56.145,81.185C71.372,92.327,87.892,99.1,105,103.84a7.137,7.137,0,0,0,2.524-5.45V23.6a7.157,7.157,0,0,0-7.157-7.158H30.479C27.622,40.6,36.563,66.875,56.145,81.185" transform="translate(-4.387 -2.408)" fill="#00993f"/>
        <path id="Trazado_900135" data-name="Trazado 900135" d="M54.166,81.185C34.584,66.875,25.643,40.6,28.5,16.442H23.6A7.157,7.157,0,0,0,16.442,23.6V98.39a7.157,7.157,0,0,0,7.157,7.158H98.39a7.125,7.125,0,0,0,4.633-1.708C85.913,99.1,69.393,92.327,54.166,81.185" transform="translate(-2.408 -2.408)" fill="#00401b"/>
        <path id="Trazado_900136" data-name="Trazado 900136" d="M56.146,82.392A135.571,135.571,0,0,0,88.609,99.721h11.76a.126.126,0,0,0,.125-.125V24.806a.126.126,0,0,0-.125-.125H29.984c-.534,22.083,8.467,44.78,26.162,57.711" transform="translate(-4.387 -3.614)" fill="#27e171"/>
        <path id="Trazado_900137" data-name="Trazado 900137" d="M55.373,82.392c-17.694-12.931-26.7-35.628-26.162-57.711H24.806a.126.126,0,0,0-.125.125V99.6a.126.126,0,0,0,.125.125h63.03A135.571,135.571,0,0,1,55.373,82.392" transform="translate(-3.614 -3.614)" fill="#27e19d"/>
        <path id="Trazado_900138" data-name="Trazado 900138" d="M56.177,83.2a129.906,129.906,0,0,0,21.384,12.64H95.837V30.175H30.175v2.5c1.361,19.7,10.227,38.988,26,50.517" transform="translate(-4.419 -4.419)" fill="#008728"/>
        <path id="Trazado_900139" data-name="Trazado 900139" d="M77.561,96.266a129.9,129.9,0,0,1-21.384-12.64C40.4,72.1,31.535,52.806,30.174,33.109V96.266Z" transform="translate(-4.418 -4.848)" fill="#006b32"/>
        <path id="Trazado_900140" data-name="Trazado 900140" d="M92.814,43.6a1.125,1.125,0,1,0-2.251,0Z" transform="translate(-13.261 -6.219)" fill="#fff"/>
        <path id="Trazado_900141" data-name="Trazado 900141" d="M86.222,37.007A1.125,1.125,0,1,0,85.1,38.132a1.126,1.126,0,0,0,1.126-1.125" transform="translate(-12.296 -5.254)" fill="#fff"/>
        <path id="Trazado_900142" data-name="Trazado 900142" d="M99.406,37.007a1.125,1.125,0,1,0-1.126,1.125,1.126,1.126,0,0,0,1.126-1.125" transform="translate(-14.227 -5.254)" fill="#fff"/>
        <path id="Trazado_900143" data-name="Trazado 900143" d="M79.823,43.6a1.124,1.124,0,0,0-.9-1.1,1.107,1.107,0,0,0-.227-.023V43.6Z" transform="translate(-11.524 -6.219)" fill="#fff"/>
        <path id="Trazado_900144" data-name="Trazado 900144" d="M91.689,68.841a1.125,1.125,0,0,0-1.1.9,1.107,1.107,0,0,0-.023.227h2.251a1.108,1.108,0,0,0-.023-.227,1.126,1.126,0,0,0-1.1-.9" transform="translate(-13.262 -10.081)" fill="#fff"/>
        <path id="Trazado_900145" data-name="Trazado 900145" d="M91.689,55.657a1.125,1.125,0,1,0,1.126,1.125,1.124,1.124,0,0,0-1.126-1.125" transform="translate(-13.262 -8.15)" fill="#fff"/>
        <path id="Trazado_900146" data-name="Trazado 900146" d="M86.222,63.375A1.125,1.125,0,1,0,85.1,64.5a1.126,1.126,0,0,0,1.126-1.125" transform="translate(-12.296 -9.115)" fill="#fff"/>
        <path id="Trazado_900147" data-name="Trazado 900147" d="M98.281,62.248a1.125,1.125,0,1,0,1.126,1.127,1.125,1.125,0,0,0-1.126-1.127" transform="translate(-14.227 -9.115)" fill="#fff"/>
        <path id="Trazado_900148" data-name="Trazado 900148" d="M85.1,49.064a1.126,1.126,0,1,0,1.126,1.127A1.125,1.125,0,0,0,85.1,49.064" transform="translate(-12.296 -7.185)" fill="#fff"/>
        <path id="Trazado_900149" data-name="Trazado 900149" d="M98.281,49.064a1.126,1.126,0,1,0,1.126,1.127,1.125,1.125,0,0,0-1.126-1.127" transform="translate(-14.227 -7.185)" fill="#fff"/>
        <path id="Trazado_900150" data-name="Trazado 900150" d="M78.925,68.864a1.107,1.107,0,0,0-.227-.023v1.125h1.125a1.107,1.107,0,0,0-.023-.227,1.125,1.125,0,0,0-.875-.875" transform="translate(-11.524 -10.081)" fill="#fff"/>
        <path id="Trazado_900151" data-name="Trazado 900151" d="M78.925,57.886a1.126,1.126,0,0,0,0-2.206,1.17,1.17,0,0,0-.227-.023v2.252a1.108,1.108,0,0,0,.227-.023" transform="translate(-11.524 -8.15)" fill="#fff"/>
        <path id="Trazado_900152" data-name="Trazado 900152" d="M90.652,44.229a1.125,1.125,0,0,0,2.162-.438h-2.25a1.117,1.117,0,0,0,.088.438" transform="translate(-13.262 -6.412)" fill="#fff"/>
        <path id="Trazado_900153" data-name="Trazado 900153" d="M78.7,44.916a1.107,1.107,0,0,0,.227-.023,1.125,1.125,0,0,0,.9-1.1H78.7Z" transform="translate(-11.524 -6.412)" fill="#fff"/>
        <path id="Trazado_900154" data-name="Trazado 900154" d="M92.622,95.7a1.125,1.125,0,0,0-2.058.629h2.25a1.12,1.12,0,0,0-.192-.629" transform="translate(-13.262 -13.942)" fill="#fff"/>
        <path id="Trazado_900155" data-name="Trazado 900155" d="M91.689,84.276a1.126,1.126,0,1,0-1.125-1.127,1.127,1.127,0,0,0,1.125,1.127" transform="translate(-13.262 -12.011)" fill="#fff"/>
        <path id="Trazado_900156" data-name="Trazado 900156" d="M85.1,88.616a1.125,1.125,0,1,0,1.126,1.127A1.125,1.125,0,0,0,85.1,88.616" transform="translate(-12.296 -12.976)" fill="#fff"/>
        <path id="Trazado_900157" data-name="Trazado 900157" d="M99.406,89.742a1.125,1.125,0,1,0-1.126,1.125,1.126,1.126,0,0,0,1.126-1.125" transform="translate(-14.227 -12.976)" fill="#fff"/>
        <path id="Trazado_900158" data-name="Trazado 900158" d="M85.1,75.432a1.125,1.125,0,1,0,1.126,1.127A1.125,1.125,0,0,0,85.1,75.432" transform="translate(-12.296 -11.046)" fill="#fff"/>
        <path id="Trazado_900159" data-name="Trazado 900159" d="M98.281,75.432a1.125,1.125,0,1,0,1.126,1.127,1.125,1.125,0,0,0-1.126-1.127" transform="translate(-14.227 -11.046)" fill="#fff"/>
        <path id="Trazado_900160" data-name="Trazado 900160" d="M79.823,96.333a1.124,1.124,0,0,0-.9-1.1,1.107,1.107,0,0,0-.227-.023v1.125Z" transform="translate(-11.524 -13.942)" fill="#fff"/>
        <path id="Trazado_900161" data-name="Trazado 900161" d="M78.925,84.253a1.126,1.126,0,0,0,0-2.206,1.107,1.107,0,0,0-.227-.023v2.252a1.108,1.108,0,0,0,.227-.023" transform="translate(-11.524 -12.011)" fill="#fff"/>
        <path id="Trazado_900162" data-name="Trazado 900162" d="M91.689,71.284a1.126,1.126,0,0,0,1.126-1.125H90.564a1.124,1.124,0,0,0,1.125,1.125" transform="translate(-13.262 -10.274)" fill="#fff"/>
        <path id="Trazado_900163" data-name="Trazado 900163" d="M78.7,71.284a1.107,1.107,0,0,0,.227-.023,1.125,1.125,0,0,0,.9-1.1H78.7Z" transform="translate(-11.524 -10.274)" fill="#fff"/>
        <path id="Trazado_900164" data-name="Trazado 900164" d="M90.564,96.526a1.125,1.125,0,0,0,2.162.438,1.118,1.118,0,0,0,.089-.438Z" transform="translate(-13.262 -14.135)" fill="#fff"/>
        <path id="Trazado_900165" data-name="Trazado 900165" d="M78.7,97.651a1.108,1.108,0,0,0,.227-.023,1.125,1.125,0,0,0,.9-1.1H78.7Z" transform="translate(-11.524 -14.135)" fill="#fff"/>
        <path id="Trazado_900166" data-name="Trazado 900166" d="M77.572,42.969a1.12,1.12,0,0,0-.192.629h1.126V42.473a1.119,1.119,0,0,0-.439.089,1.132,1.132,0,0,0-.5.407" transform="translate(-11.331 -6.219)" fill="#fff"/>
        <path id="Trazado_900167" data-name="Trazado 900167" d="M66.448,43.6a1.125,1.125,0,1,0-2.251,0Z" transform="translate(-9.401 -6.219)" fill="#fff"/>
        <path id="Trazado_900168" data-name="Trazado 900168" d="M59.856,37.007a1.125,1.125,0,1,0-1.126,1.125,1.126,1.126,0,0,0,1.126-1.125" transform="translate(-8.435 -5.254)" fill="#fff"/>
        <path id="Trazado_900169" data-name="Trazado 900169" d="M73.039,37.007a1.125,1.125,0,1,0-1.126,1.125,1.126,1.126,0,0,0,1.126-1.125" transform="translate(-10.366 -5.254)" fill="#fff"/>
        <path id="Trazado_900170" data-name="Trazado 900170" d="M53.457,43.6a1.12,1.12,0,0,0-.192-.629,1.143,1.143,0,0,0-.3-.3,1.12,1.12,0,0,0-.629-.192V43.6Z" transform="translate(-7.663 -6.219)" fill="#fff"/>
        <path id="Trazado_900171" data-name="Trazado 900171" d="M78.506,68.841a1.125,1.125,0,0,0-1.1.9,1.107,1.107,0,0,0-.023.227h1.126Z" transform="translate(-11.331 -10.081)" fill="#fff"/>
        <path id="Trazado_900172" data-name="Trazado 900172" d="M65.322,68.841a1.125,1.125,0,0,0-1.1.9,1.107,1.107,0,0,0-.023.227h2.251a1.107,1.107,0,0,0-.023-.227,1.126,1.126,0,0,0-1.1-.9" transform="translate(-9.401 -10.081)" fill="#fff"/>
        <path id="Trazado_900173" data-name="Trazado 900173" d="M77.38,56.782a1.125,1.125,0,0,0,1.126,1.127V55.657a1.125,1.125,0,0,0-1.126,1.125" transform="translate(-11.331 -8.15)" fill="#fff"/>
        <path id="Trazado_900174" data-name="Trazado 900174" d="M65.322,57.909A1.125,1.125,0,1,0,64.2,56.782a1.127,1.127,0,0,0,1.125,1.127" transform="translate(-9.401 -8.15)" fill="#fff"/>
        <path id="Trazado_900175" data-name="Trazado 900175" d="M58.73,64.5A1.125,1.125,0,1,0,57.6,63.375,1.126,1.126,0,0,0,58.73,64.5" transform="translate(-8.435 -9.115)" fill="#fff"/>
        <path id="Trazado_900176" data-name="Trazado 900176" d="M71.914,64.5a1.125,1.125,0,1,0-1.126-1.125A1.126,1.126,0,0,0,71.914,64.5" transform="translate(-10.366 -9.115)" fill="#fff"/>
        <path id="Trazado_900177" data-name="Trazado 900177" d="M58.73,51.316A1.126,1.126,0,1,0,57.6,50.191a1.126,1.126,0,0,0,1.125,1.125" transform="translate(-8.435 -7.185)" fill="#fff"/>
        <path id="Trazado_900178" data-name="Trazado 900178" d="M71.914,51.316a1.126,1.126,0,1,0-1.126-1.125,1.126,1.126,0,0,0,1.126,1.125" transform="translate(-10.366 -7.185)" fill="#fff"/>
        <path id="Trazado_900179" data-name="Trazado 900179" d="M53.457,69.966a1.108,1.108,0,0,0-.023-.227,1.124,1.124,0,0,0-1.1-.9v1.125Z" transform="translate(-7.663 -10.081)" fill="#fff"/>
        <path id="Trazado_900180" data-name="Trazado 900180" d="M52.961,57.716a1.125,1.125,0,0,0-.629-2.059v2.252a1.114,1.114,0,0,0,.629-.193" transform="translate(-7.663 -8.15)" fill="#fff"/>
        <path id="Trazado_900181" data-name="Trazado 900181" d="M77.38,43.791a1.125,1.125,0,0,0,1.126,1.125V43.791Z" transform="translate(-11.331 -6.412)" fill="#fff"/>
        <path id="Trazado_900182" data-name="Trazado 900182" d="M64.285,44.229a1.125,1.125,0,0,0,2.162-.438H64.2a1.117,1.117,0,0,0,.088.438" transform="translate(-9.401 -6.412)" fill="#fff"/>
        <path id="Trazado_900183" data-name="Trazado 900183" d="M52.332,44.916a1.125,1.125,0,0,0,1.125-1.125H52.332Z" transform="translate(-7.663 -6.412)" fill="#fff"/>
        <path id="Trazado_900184" data-name="Trazado 900184" d="M78.506,95.209a1.124,1.124,0,0,0-1.126,1.125h1.126Z" transform="translate(-11.331 -13.942)" fill="#fff"/>
        <path id="Trazado_900185" data-name="Trazado 900185" d="M66.255,95.7a1.125,1.125,0,0,0-2.058.629h2.25a1.12,1.12,0,0,0-.192-.629" transform="translate(-9.401 -13.942)" fill="#fff"/>
        <path id="Trazado_900186" data-name="Trazado 900186" d="M78.506,82.025a1.126,1.126,0,1,0,0,2.252Z" transform="translate(-11.331 -12.011)" fill="#fff"/>
        <path id="Trazado_900187" data-name="Trazado 900187" d="M65.322,82.025a1.126,1.126,0,1,0,1.126,1.125,1.124,1.124,0,0,0-1.126-1.125" transform="translate(-9.401 -12.011)" fill="#fff"/>
        <path id="Trazado_900188" data-name="Trazado 900188" d="M58.73,88.616a1.125,1.125,0,1,0,1.126,1.127,1.125,1.125,0,0,0-1.126-1.127" transform="translate(-8.435 -12.976)" fill="#fff"/>
        <path id="Trazado_900189" data-name="Trazado 900189" d="M71.914,88.616a1.125,1.125,0,1,0,1.126,1.127,1.125,1.125,0,0,0-1.126-1.127" transform="translate(-10.366 -12.976)" fill="#fff"/>
        <path id="Trazado_900190" data-name="Trazado 900190" d="M58.73,75.432a1.125,1.125,0,1,0,1.126,1.127,1.125,1.125,0,0,0-1.126-1.127" transform="translate(-8.435 -11.046)" fill="#fff"/>
        <path id="Trazado_900191" data-name="Trazado 900191" d="M71.914,75.432a1.125,1.125,0,1,0,1.126,1.127,1.125,1.125,0,0,0-1.126-1.127" transform="translate(-10.366 -11.046)" fill="#fff"/>
        <path id="Trazado_900192" data-name="Trazado 900192" d="M53.457,96.333a1.122,1.122,0,0,0-.192-.629,1.144,1.144,0,0,0-.3-.3,1.12,1.12,0,0,0-.629-.192v1.125Z" transform="translate(-7.663 -13.942)" fill="#fff"/>
        <path id="Trazado_900193" data-name="Trazado 900193" d="M52.961,82.217a1.12,1.12,0,0,0-.629-.192v2.252a1.126,1.126,0,0,0,.629-2.06" transform="translate(-7.663 -12.011)" fill="#fff"/>
        <path id="Trazado_900194" data-name="Trazado 900194" d="M77.38,70.159a1.125,1.125,0,0,0,1.126,1.125V70.159Z" transform="translate(-11.331 -10.274)" fill="#fff"/>
        <path id="Trazado_900195" data-name="Trazado 900195" d="M65.322,71.284a1.126,1.126,0,0,0,1.126-1.125H64.2a1.124,1.124,0,0,0,1.125,1.125" transform="translate(-9.401 -10.274)" fill="#fff"/>
        <path id="Trazado_900196" data-name="Trazado 900196" d="M52.332,70.159v1.125a1.124,1.124,0,0,0,1.125-1.125Z" transform="translate(-7.663 -10.274)" fill="#fff"/>
        <path id="Trazado_900197" data-name="Trazado 900197" d="M78.506,96.526H77.38a1.125,1.125,0,0,0,1.126,1.125Z" transform="translate(-11.331 -14.135)" fill="#fff"/>
        <path id="Trazado_900198" data-name="Trazado 900198" d="M64.2,96.526a1.125,1.125,0,0,0,2.162.438,1.118,1.118,0,0,0,.089-.438Z" transform="translate(-9.401 -14.135)" fill="#fff"/>
        <path id="Trazado_900199" data-name="Trazado 900199" d="M52.332,96.526v1.125a1.12,1.12,0,0,0,.629-.192,1.132,1.132,0,0,0,.407-.5,1.118,1.118,0,0,0,.089-.438Z" transform="translate(-7.663 -14.135)" fill="#fff"/>
        <path id="Trazado_900200" data-name="Trazado 900200" d="M51.205,42.969a1.12,1.12,0,0,0-.192.629h1.126V42.473a1.126,1.126,0,0,0-.934.5" transform="translate(-7.47 -6.219)" fill="#fff"/>
        <path id="Trazado_900201" data-name="Trazado 900201" d="M40.081,43.6a1.125,1.125,0,1,0-2.251,0Z" transform="translate(-5.54 -6.219)" fill="#fff"/>
        <path id="Trazado_900202" data-name="Trazado 900202" d="M46.673,37.007a1.125,1.125,0,1,0-1.126,1.125,1.126,1.126,0,0,0,1.126-1.125" transform="translate(-6.505 -5.254)" fill="#fff"/>
        <path id="Trazado_900203" data-name="Trazado 900203" d="M52.139,68.841a1.125,1.125,0,0,0-1.1.9,1.107,1.107,0,0,0-.023.227h1.126Z" transform="translate(-7.47 -10.081)" fill="#fff"/>
        <path id="Trazado_900204" data-name="Trazado 900204" d="M40.058,69.739a1.126,1.126,0,0,0-2.2,0,1.108,1.108,0,0,0-.023.227h2.251a1.107,1.107,0,0,0-.023-.227" transform="translate(-5.54 -10.081)" fill="#fff"/>
        <path id="Trazado_900205" data-name="Trazado 900205" d="M51.013,56.782a1.125,1.125,0,0,0,1.126,1.127V55.657a1.125,1.125,0,0,0-1.126,1.125" transform="translate(-7.47 -8.15)" fill="#fff"/>
        <path id="Trazado_900206" data-name="Trazado 900206" d="M38.955,55.657a1.125,1.125,0,1,0,1.126,1.125,1.124,1.124,0,0,0-1.126-1.125" transform="translate(-5.54 -8.15)" fill="#fff"/>
        <path id="Trazado_900207" data-name="Trazado 900207" d="M45.547,64.5a1.125,1.125,0,1,0-1.126-1.125A1.126,1.126,0,0,0,45.547,64.5" transform="translate(-6.505 -9.115)" fill="#fff"/>
        <path id="Trazado_900208" data-name="Trazado 900208" d="M45.547,51.316a1.126,1.126,0,1,0-1.126-1.125,1.126,1.126,0,0,0,1.126,1.125" transform="translate(-6.505 -7.185)" fill="#fff"/>
        <path id="Trazado_900209" data-name="Trazado 900209" d="M51.013,43.791a1.125,1.125,0,0,0,1.126,1.125V43.791Z" transform="translate(-7.47 -6.412)" fill="#fff"/>
        <path id="Trazado_900210" data-name="Trazado 900210" d="M37.918,44.229a1.125,1.125,0,0,0,2.162-.438H37.83a1.117,1.117,0,0,0,.088.438" transform="translate(-5.54 -6.412)" fill="#fff"/>
        <path id="Trazado_900211" data-name="Trazado 900211" d="M52.139,95.209a1.124,1.124,0,0,0-1.126,1.125h1.126Z" transform="translate(-7.47 -13.942)" fill="#fff"/>
        <path id="Trazado_900212" data-name="Trazado 900212" d="M39.888,95.7a1.125,1.125,0,0,0-2.058.629h2.25a1.12,1.12,0,0,0-.192-.629" transform="translate(-5.54 -13.942)" fill="#fff"/>
        <path id="Trazado_900213" data-name="Trazado 900213" d="M51.7,82.113a1.126,1.126,0,0,0,.439,2.163V82.024a1.119,1.119,0,0,0-.439.089" transform="translate(-7.47 -12.011)" fill="#fff"/>
        <path id="Trazado_900214" data-name="Trazado 900214" d="M38.955,82.025a1.126,1.126,0,1,0,1.126,1.125,1.124,1.124,0,0,0-1.126-1.125" transform="translate(-5.54 -12.011)" fill="#fff"/>
        <path id="Trazado_900215" data-name="Trazado 900215" d="M45.547,88.616a1.125,1.125,0,1,0,1.126,1.127,1.125,1.125,0,0,0-1.126-1.127" transform="translate(-6.505 -12.976)" fill="#fff"/>
        <path id="Trazado_900216" data-name="Trazado 900216" d="M45.547,75.432a1.125,1.125,0,1,0,1.126,1.127,1.125,1.125,0,0,0-1.126-1.127" transform="translate(-6.505 -11.046)" fill="#fff"/>
        <path id="Trazado_900217" data-name="Trazado 900217" d="M51.013,70.159a1.125,1.125,0,0,0,1.126,1.125V70.159Z" transform="translate(-7.47 -10.274)" fill="#fff"/>
        <path id="Trazado_900218" data-name="Trazado 900218" d="M38.955,71.284a1.126,1.126,0,0,0,1.126-1.125H37.83a1.124,1.124,0,0,0,1.125,1.125" transform="translate(-5.54 -10.274)" fill="#fff"/>
        <path id="Trazado_900219" data-name="Trazado 900219" d="M51.013,96.526a1.125,1.125,0,0,0,1.126,1.125V96.526Z" transform="translate(-7.47 -14.135)" fill="#fff"/>
        <path id="Trazado_900220" data-name="Trazado 900220" d="M37.83,96.526a1.125,1.125,0,0,0,2.162.438,1.118,1.118,0,0,0,.089-.438Z" transform="translate(-5.54 -14.135)" fill="#fff"/>
      </g>
    </g>
  </g>
</svg>
