<svg xmlns="http://www.w3.org/2000/svg" width="864" height="388" viewBox="0 0 864 388">
  <g id="Grupo_1113122" data-name="Grupo 1113122" transform="translate(-368 -5856)">
    <path id="Trazado_900355" data-name="Trazado 900355" d="M0,0H193V53H0Z" transform="translate(368 5856)" fill="#fd96ca"/>
    <path id="Trazado_900359" data-name="Trazado 900359" d="M0,0H193V33H0Z" transform="translate(368 5910)" fill="#fed4e9"/>
    <path id="Trazado_900365" data-name="Trazado 900365" d="M0,0H193V248.875H0Z" transform="translate(368 5944)" fill="#fed4e9"/>
    <path id="Trazado_900356" data-name="Trazado 900356" d="M0,0H226V53H0Z" transform="translate(562 5856)" fill="#fd96ca"/>
    <path id="Trazado_900360" data-name="Trazado 900360" d="M0,0H226V33H0Z" transform="translate(562 5910)" fill="#fed4e9"/>
    <path id="Trazado_900366" data-name="Trazado 900366" d="M0,0H226V248.875H0Z" transform="translate(562 5944)" fill="#fed4e9"/>
    <path id="Trazado_900371" data-name="Trazado 900371" d="M0,0H181V53H0Z" transform="translate(789 5856)" fill="#fd96ca"/>
    <path id="Trazado_900372" data-name="Trazado 900372" d="M0,0H181V33H0Z" transform="translate(789 5910)" fill="#fed4e9"/>
    <path id="Trazado_900373" data-name="Trazado 900373" d="M0,0H181V248.875H0Z" transform="translate(789 5944)" fill="#fed4e9"/>
    <path id="Trazado_900357" data-name="Trazado 900357" d="M-70.242-2.477l2.891-8.9h2.172L-69.273,0h-1.914l-4.078-11.375H-73.1ZM-59.391,0a2.93,2.93,0,0,1-.219-.789,2.955,2.955,0,0,1-2.219.945A2.982,2.982,0,0,1-63.906-.57a2.325,2.325,0,0,1-.8-1.8,2.4,2.4,0,0,1,1-2.074,4.865,4.865,0,0,1,2.871-.723h1.164v-.555a1.481,1.481,0,0,0-.367-1.051,1.456,1.456,0,0,0-1.117-.395,1.672,1.672,0,0,0-1.062.324,1,1,0,0,0-.414.824h-1.9a2.107,2.107,0,0,1,.461-1.3,3.071,3.071,0,0,1,1.254-.949,4.4,4.4,0,0,1,1.77-.344,3.547,3.547,0,0,1,2.367.746,2.661,2.661,0,0,1,.906,2.1v3.813a4.321,4.321,0,0,0,.32,1.82V0Zm-2.086-1.367a2.16,2.16,0,0,0,1.059-.273,1.827,1.827,0,0,0,.746-.734V-3.969H-60.7a2.8,2.8,0,0,0-1.586.367,1.189,1.189,0,0,0-.531,1.039,1.109,1.109,0,0,0,.363.871A1.407,1.407,0,0,0-61.477-1.367Zm10.117-5.352a4.7,4.7,0,0,0-.773-.062,1.741,1.741,0,0,0-1.758,1V0h-1.9V-8.453h1.813l.047.945a2.139,2.139,0,0,1,1.906-1.1,1.777,1.777,0,0,1,.672.109ZM-48.141,0h-1.9V-8.453h1.9Zm-2.016-10.648a1.008,1.008,0,0,1,.277-.727,1.048,1.048,0,0,1,.793-.289,1.061,1.061,0,0,1,.8.289,1,1,0,0,1,.281.727.977.977,0,0,1-.281.715,1.069,1.069,0,0,1-.8.285,1.056,1.056,0,0,1-.793-.285A.984.984,0,0,1-50.156-10.648ZM-41.023,0a2.93,2.93,0,0,1-.219-.789,2.955,2.955,0,0,1-2.219.945A2.982,2.982,0,0,1-45.539-.57a2.325,2.325,0,0,1-.8-1.8,2.4,2.4,0,0,1,1-2.074,4.865,4.865,0,0,1,2.871-.723H-41.3v-.555a1.481,1.481,0,0,0-.367-1.051,1.456,1.456,0,0,0-1.117-.395,1.672,1.672,0,0,0-1.062.324,1,1,0,0,0-.414.824h-1.9a2.107,2.107,0,0,1,.461-1.3,3.071,3.071,0,0,1,1.254-.949,4.4,4.4,0,0,1,1.77-.344,3.547,3.547,0,0,1,2.367.746,2.661,2.661,0,0,1,.906,2.1v3.813a4.321,4.321,0,0,0,.32,1.82V0Zm-2.086-1.367a2.16,2.16,0,0,0,1.059-.273,1.827,1.827,0,0,0,.746-.734V-3.969h-1.023a2.8,2.8,0,0,0-1.586.367,1.189,1.189,0,0,0-.531,1.039,1.109,1.109,0,0,0,.363.871A1.407,1.407,0,0,0-43.109-1.367ZM-30-4.141a5.078,5.078,0,0,1-.879,3.133A2.863,2.863,0,0,1-33.3.156a2.758,2.758,0,0,1-2.312-1.07L-35.7,0h-1.719V-12h1.9v4.359a2.748,2.748,0,0,1,2.211-.969,2.9,2.9,0,0,1,2.43,1.148A5.162,5.162,0,0,1-30-4.25ZM-31.9-4.3a3.589,3.589,0,0,0-.484-2.062,1.613,1.613,0,0,0-1.406-.687,1.763,1.763,0,0,0-1.734,1.078v3.484a1.781,1.781,0,0,0,1.75,1.1A1.6,1.6,0,0,0-32.4-2.055a3.477,3.477,0,0,0,.5-2.008ZM-26.391,0h-1.9V-12h1.9ZM-20.6.156A3.928,3.928,0,0,1-23.527-.98a4.124,4.124,0,0,1-1.121-3.027v-.234A5.072,5.072,0,0,1-24.16-6.5a3.716,3.716,0,0,1,1.371-1.551,3.625,3.625,0,0,1,1.969-.555,3.318,3.318,0,0,1,2.668,1.1,4.658,4.658,0,0,1,.941,3.117v.766h-5.523a2.539,2.539,0,0,0,.7,1.656,2.1,2.1,0,0,0,1.543.609,2.571,2.571,0,0,0,2.125-1.055l1.023.977A3.418,3.418,0,0,1-18.7-.262,4.244,4.244,0,0,1-20.6.156Zm-.227-7.242a1.6,1.6,0,0,0-1.262.547A2.835,2.835,0,0,0-22.7-5.016h3.617v-.141A2.307,2.307,0,0,0-19.594-6.6,1.586,1.586,0,0,0-20.828-7.086ZM-11-2.3a.861.861,0,0,0-.418-.773A4.445,4.445,0,0,0-12.8-3.539a7.129,7.129,0,0,1-1.617-.516,2.158,2.158,0,0,1-1.422-1.992,2.25,2.25,0,0,1,.922-1.828,3.644,3.644,0,0,1,2.344-.734,3.792,3.792,0,0,1,2.449.75A2.38,2.38,0,0,1-9.2-5.914h-1.9a1.17,1.17,0,0,0-.406-.91,1.557,1.557,0,0,0-1.078-.363A1.682,1.682,0,0,0-13.6-6.9a.911.911,0,0,0-.395.773.769.769,0,0,0,.367.68,5.049,5.049,0,0,0,1.484.488,7.027,7.027,0,0,1,1.754.586,2.484,2.484,0,0,1,.945.816A2.082,2.082,0,0,1-9.133-2.4a2.2,2.2,0,0,1-.945,1.848,4.031,4.031,0,0,1-2.477.707,4.371,4.371,0,0,1-1.852-.375A3.047,3.047,0,0,1-15.672-1.25a2.441,2.441,0,0,1-.453-1.414h1.844a1.338,1.338,0,0,0,.508,1.035,1.973,1.973,0,0,0,1.242.363,1.92,1.92,0,0,0,1.141-.285A.883.883,0,0,0-11-2.3ZM-3.852-4.3a4.984,4.984,0,0,1,.492-2.238A3.6,3.6,0,0,1-1.977-8.074,3.9,3.9,0,0,1,.07-8.609a3.692,3.692,0,0,1,2.777,1.1A4.333,4.333,0,0,1,4-4.586l.008.445a5.029,5.029,0,0,1-.48,2.234A3.551,3.551,0,0,1,2.152-.383,3.925,3.925,0,0,1,.086.156,3.667,3.667,0,0,1-2.777-1.035,4.563,4.563,0,0,1-3.852-4.211Zm1.9.164A3.406,3.406,0,0,0-1.414-2.1a1.752,1.752,0,0,0,1.5.738,1.733,1.733,0,0,0,1.5-.75,3.762,3.762,0,0,0,.535-2.2,3.362,3.362,0,0,0-.551-2.031,1.759,1.759,0,0,0-1.5-.75,1.743,1.743,0,0,0-1.477.738A3.691,3.691,0,0,0-1.953-4.141ZM13.32.156A3.928,3.928,0,0,1,10.395-.98,4.124,4.124,0,0,1,9.273-4.008v-.234A5.072,5.072,0,0,1,9.762-6.5a3.716,3.716,0,0,1,1.371-1.551A3.625,3.625,0,0,1,13.1-8.609a3.318,3.318,0,0,1,2.668,1.1,4.658,4.658,0,0,1,.941,3.117v.766H11.188a2.539,2.539,0,0,0,.7,1.656,2.1,2.1,0,0,0,1.543.609,2.571,2.571,0,0,0,2.125-1.055l1.023.977A3.418,3.418,0,0,1,15.223-.262,4.244,4.244,0,0,1,13.32.156Zm-.227-7.242a1.6,1.6,0,0,0-1.262.547,2.835,2.835,0,0,0-.613,1.523h3.617v-.141A2.307,2.307,0,0,0,14.328-6.6,1.586,1.586,0,0,0,13.094-7.086Zm6.852-1.367L20-7.477a3.039,3.039,0,0,1,2.461-1.133q2.641,0,2.688,3.023V0h-1.9V-5.477A1.741,1.741,0,0,0,22.9-6.668a1.462,1.462,0,0,0-1.137-.387,1.829,1.829,0,0,0-1.711,1.039V0h-1.9V-8.453Zm9.516-2.055v2.055h1.492v1.406H29.461v4.719a1.039,1.039,0,0,0,.191.7.888.888,0,0,0,.684.215A2.924,2.924,0,0,0,31-1.492V-.023a4.676,4.676,0,0,1-1.25.18q-2.188,0-2.187-2.414V-7.047H26.172V-8.453h1.391v-2.055Zm7.367,3.789a4.7,4.7,0,0,0-.773-.062,1.741,1.741,0,0,0-1.758,1V0H32.4V-8.453h1.813l.047.945a2.139,2.139,0,0,1,1.906-1.1,1.777,1.777,0,0,1,.672.109ZM42.844,0a2.93,2.93,0,0,1-.219-.789,2.955,2.955,0,0,1-2.219.945A2.982,2.982,0,0,1,38.328-.57a2.325,2.325,0,0,1-.8-1.8,2.4,2.4,0,0,1,1-2.074A4.865,4.865,0,0,1,41.4-5.164h1.164v-.555A1.481,1.481,0,0,0,42.2-6.77a1.456,1.456,0,0,0-1.117-.395,1.672,1.672,0,0,0-1.062.324,1,1,0,0,0-.414.824H37.7a2.107,2.107,0,0,1,.461-1.3,3.071,3.071,0,0,1,1.254-.949,4.4,4.4,0,0,1,1.77-.344,3.547,3.547,0,0,1,2.367.746,2.661,2.661,0,0,1,.906,2.1v3.813a4.321,4.321,0,0,0,.32,1.82V0ZM40.758-1.367a2.16,2.16,0,0,0,1.059-.273,1.827,1.827,0,0,0,.746-.734V-3.969H41.539a2.8,2.8,0,0,0-1.586.367,1.189,1.189,0,0,0-.531,1.039,1.109,1.109,0,0,0,.363.871A1.407,1.407,0,0,0,40.758-1.367Zm5.336-2.922A5.026,5.026,0,0,1,47-7.426a2.9,2.9,0,0,1,2.43-1.184,2.759,2.759,0,0,1,2.172.938V-12h1.9V0H51.781l-.094-.875A2.8,2.8,0,0,1,49.414.156a2.887,2.887,0,0,1-2.4-1.2A5.21,5.21,0,0,1,46.094-4.289Zm1.9.164a3.519,3.519,0,0,0,.5,2.012,1.61,1.61,0,0,0,1.41.723A1.793,1.793,0,0,0,51.6-2.43V-6.039a1.766,1.766,0,0,0-1.687-1.016,1.622,1.622,0,0,0-1.422.73A3.919,3.919,0,0,0,47.992-4.125ZM60.531,0a2.93,2.93,0,0,1-.219-.789,2.955,2.955,0,0,1-2.219.945A2.982,2.982,0,0,1,56.016-.57a2.325,2.325,0,0,1-.8-1.8,2.4,2.4,0,0,1,1-2.074,4.865,4.865,0,0,1,2.871-.723H60.25v-.555a1.481,1.481,0,0,0-.367-1.051,1.456,1.456,0,0,0-1.117-.395A1.672,1.672,0,0,0,57.7-6.84a1,1,0,0,0-.414.824h-1.9a2.107,2.107,0,0,1,.461-1.3,3.071,3.071,0,0,1,1.254-.949,4.4,4.4,0,0,1,1.77-.344,3.547,3.547,0,0,1,2.367.746,2.661,2.661,0,0,1,.906,2.1v3.813a4.321,4.321,0,0,0,.32,1.82V0ZM58.445-1.367A2.16,2.16,0,0,0,59.5-1.641a1.827,1.827,0,0,0,.746-.734V-3.969H59.227a2.8,2.8,0,0,0-1.586.367,1.189,1.189,0,0,0-.531,1.039,1.109,1.109,0,0,0,.363.871A1.407,1.407,0,0,0,58.445-1.367Zm10.43-.93a.861.861,0,0,0-.418-.773,4.445,4.445,0,0,0-1.387-.469,7.129,7.129,0,0,1-1.617-.516,2.158,2.158,0,0,1-1.422-1.992,2.25,2.25,0,0,1,.922-1.828A3.644,3.644,0,0,1,67.3-8.609a3.792,3.792,0,0,1,2.449.75,2.38,2.38,0,0,1,.934,1.945h-1.9a1.17,1.17,0,0,0-.406-.91A1.557,1.557,0,0,0,67.3-7.187a1.682,1.682,0,0,0-1.02.289.911.911,0,0,0-.395.773.769.769,0,0,0,.367.68,5.049,5.049,0,0,0,1.484.488,7.027,7.027,0,0,1,1.754.586,2.484,2.484,0,0,1,.945.816A2.082,2.082,0,0,1,70.742-2.4,2.2,2.2,0,0,1,69.8-.551,4.031,4.031,0,0,1,67.32.156a4.371,4.371,0,0,1-1.852-.375A3.047,3.047,0,0,1,64.2-1.25a2.441,2.441,0,0,1-.453-1.414h1.844A1.338,1.338,0,0,0,66.1-1.629a1.973,1.973,0,0,0,1.242.363,1.92,1.92,0,0,0,1.141-.285A.883.883,0,0,0,68.875-2.3Z" transform="translate(466 5896)" fill="#12263f"/>
    <path id="Trazado_900358" data-name="Trazado 900358" d="M-59.016-4.82h-4.578V0H-65.57V-11.375h7.227v1.594h-5.25V-6.4h4.578Zm7,3.992a2.944,2.944,0,0,1-2.375.984,2.624,2.624,0,0,1-2.082-.8,3.423,3.423,0,0,1-.707-2.328V-8.453h1.9V-3q0,1.609,1.336,1.609a1.876,1.876,0,0,0,1.867-.992v-6.07h1.9V0h-1.789Zm5.531-7.625.055.977a3.039,3.039,0,0,1,2.461-1.133q2.641,0,2.688,3.023V0h-1.9V-5.477a1.741,1.741,0,0,0-.348-1.191,1.462,1.462,0,0,0-1.137-.387,1.829,1.829,0,0,0-1.711,1.039V0h-1.9V-8.453Zm10.609,7.094a1.716,1.716,0,0,0,1.18-.414A1.415,1.415,0,0,0-34.2-2.8h1.789A2.789,2.789,0,0,1-32.9-1.324a3.228,3.228,0,0,1-1.25,1.082,3.725,3.725,0,0,1-1.7.4A3.6,3.6,0,0,1-38.664-.992,4.555,4.555,0,0,1-39.7-4.164v-.2a4.479,4.479,0,0,1,1.031-3.09,3.571,3.571,0,0,1,2.813-1.16A3.473,3.473,0,0,1-33.4-7.73a3.148,3.148,0,0,1,1,2.309H-34.2a1.738,1.738,0,0,0-.5-1.2,1.6,1.6,0,0,0-1.184-.469,1.671,1.671,0,0,0-1.422.668A3.408,3.408,0,0,0-37.8-4.391v.3a3.465,3.465,0,0,0,.5,2.051A1.669,1.669,0,0,0-35.875-1.359ZM-28.953,0h-1.9V-8.453h1.9Zm-2.016-10.648a1.008,1.008,0,0,1,.277-.727,1.048,1.048,0,0,1,.793-.289,1.061,1.061,0,0,1,.8.289,1,1,0,0,1,.281.727.977.977,0,0,1-.281.715,1.069,1.069,0,0,1-.8.285,1.056,1.056,0,0,1-.793-.285A.984.984,0,0,1-30.969-10.648ZM-27.242-4.3a4.984,4.984,0,0,1,.492-2.238,3.6,3.6,0,0,1,1.383-1.531,3.9,3.9,0,0,1,2.047-.535,3.692,3.692,0,0,1,2.777,1.1,4.333,4.333,0,0,1,1.152,2.922l.008.445a5.029,5.029,0,0,1-.48,2.234A3.551,3.551,0,0,1-21.238-.383,3.925,3.925,0,0,1-23.3.156a3.667,3.667,0,0,1-2.863-1.191,4.563,4.563,0,0,1-1.074-3.176Zm1.9.164A3.406,3.406,0,0,0-24.8-2.1a1.752,1.752,0,0,0,1.5.738,1.733,1.733,0,0,0,1.5-.75,3.762,3.762,0,0,0,.535-2.2,3.362,3.362,0,0,0-.551-2.031,1.759,1.759,0,0,0-1.5-.75,1.743,1.743,0,0,0-1.477.738A3.691,3.691,0,0,0-25.344-4.141ZM-22.8-12h2.164L-22.8-9.633l-1.523,0Zm6.781,3.547.055.977A3.039,3.039,0,0,1-13.5-8.609q2.641,0,2.688,3.023V0h-1.9V-5.477a1.741,1.741,0,0,0-.348-1.191A1.462,1.462,0,0,0-14.2-7.055a1.829,1.829,0,0,0-1.711,1.039V0h-1.9V-8.453ZM-2.875,0h-1.9V-12h1.9Zm1.711-4.3A4.984,4.984,0,0,1-.672-6.543,3.6,3.6,0,0,1,.711-8.074a3.9,3.9,0,0,1,2.047-.535,3.692,3.692,0,0,1,2.777,1.1A4.333,4.333,0,0,1,6.688-4.586l.008.445a5.029,5.029,0,0,1-.48,2.234A3.551,3.551,0,0,1,4.84-.383,3.925,3.925,0,0,1,2.773.156,3.667,3.667,0,0,1-.09-1.035,4.563,4.563,0,0,1-1.164-4.211Zm1.9.164A3.406,3.406,0,0,0,1.273-2.1a1.752,1.752,0,0,0,1.5.738,1.733,1.733,0,0,0,1.5-.75A3.762,3.762,0,0,0,4.8-4.3a3.362,3.362,0,0,0-.551-2.031,1.759,1.759,0,0,0-1.5-.75,1.743,1.743,0,0,0-1.477.738A3.691,3.691,0,0,0,.734-4.141ZM3.281-12H5.445L3.281-9.633l-1.523,0ZM7.969-4.289a4.944,4.944,0,0,1,.926-3.145,2.971,2.971,0,0,1,2.457-1.176A2.784,2.784,0,0,1,13.625-7.6l.086-.852h1.711v8.2a3.406,3.406,0,0,1-1.035,2.625,3.943,3.943,0,0,1-2.793.961,4.5,4.5,0,0,1-1.816-.387A3.227,3.227,0,0,1,8.43,1.93l.9-1.141a2.713,2.713,0,0,0,2.156,1.039,2.1,2.1,0,0,0,1.492-.512,1.961,1.961,0,0,0,.547-1.5v-.57a2.8,2.8,0,0,1-2.187.914A2.964,2.964,0,0,1,8.91-1.023,5.1,5.1,0,0,1,7.969-4.289Zm1.891.164a3.4,3.4,0,0,0,.52,2,1.671,1.671,0,0,0,1.441.73,1.827,1.827,0,0,0,1.7-.984V-6.094a1.8,1.8,0,0,0-1.687-.961,1.677,1.677,0,0,0-1.457.742A3.811,3.811,0,0,0,9.859-4.125ZM19.391,0h-1.9V-8.453h1.9ZM17.375-10.648a1.008,1.008,0,0,1,.277-.727,1.048,1.048,0,0,1,.793-.289,1.061,1.061,0,0,1,.8.289,1,1,0,0,1,.281.727.977.977,0,0,1-.281.715,1.069,1.069,0,0,1-.8.285,1.056,1.056,0,0,1-.793-.285A.984.984,0,0,1,17.375-10.648ZM24.93-1.359a1.716,1.716,0,0,0,1.18-.414,1.415,1.415,0,0,0,.5-1.023H28.4a2.789,2.789,0,0,1-.492,1.473,3.228,3.228,0,0,1-1.25,1.082,3.725,3.725,0,0,1-1.7.4A3.6,3.6,0,0,1,22.141-.992,4.555,4.555,0,0,1,21.1-4.164v-.2a4.479,4.479,0,0,1,1.031-3.09,3.571,3.571,0,0,1,2.813-1.16A3.473,3.473,0,0,1,27.4-7.73a3.148,3.148,0,0,1,1,2.309H26.609a1.738,1.738,0,0,0-.5-1.2,1.6,1.6,0,0,0-1.184-.469,1.671,1.671,0,0,0-1.422.668A3.408,3.408,0,0,0,23-4.391v.3a3.465,3.465,0,0,0,.5,2.051A1.669,1.669,0,0,0,24.93-1.359ZM34.883,0a2.93,2.93,0,0,1-.219-.789,2.955,2.955,0,0,1-2.219.945A2.982,2.982,0,0,1,30.367-.57a2.325,2.325,0,0,1-.8-1.8,2.4,2.4,0,0,1,1-2.074,4.865,4.865,0,0,1,2.871-.723H34.6v-.555a1.481,1.481,0,0,0-.367-1.051,1.456,1.456,0,0,0-1.117-.395,1.672,1.672,0,0,0-1.062.324,1,1,0,0,0-.414.824h-1.9a2.107,2.107,0,0,1,.461-1.3,3.071,3.071,0,0,1,1.254-.949,4.4,4.4,0,0,1,1.77-.344,3.547,3.547,0,0,1,2.367.746,2.661,2.661,0,0,1,.906,2.1v3.813a4.321,4.321,0,0,0,.32,1.82V0ZM32.8-1.367a2.16,2.16,0,0,0,1.059-.273,1.827,1.827,0,0,0,.746-.734V-3.969H33.578a2.8,2.8,0,0,0-1.586.367,1.189,1.189,0,0,0-.531,1.039,1.109,1.109,0,0,0,.363.871A1.407,1.407,0,0,0,32.8-1.367ZM47.211-2.3a.861.861,0,0,0-.418-.773,4.445,4.445,0,0,0-1.387-.469,7.129,7.129,0,0,1-1.617-.516,2.158,2.158,0,0,1-1.422-1.992,2.25,2.25,0,0,1,.922-1.828,3.644,3.644,0,0,1,2.344-.734,3.792,3.792,0,0,1,2.449.75,2.38,2.38,0,0,1,.934,1.945h-1.9a1.17,1.17,0,0,0-.406-.91,1.557,1.557,0,0,0-1.078-.363,1.682,1.682,0,0,0-1.02.289.911.911,0,0,0-.395.773.769.769,0,0,0,.367.68,5.049,5.049,0,0,0,1.484.488,7.027,7.027,0,0,1,1.754.586,2.484,2.484,0,0,1,.945.816A2.082,2.082,0,0,1,49.078-2.4a2.2,2.2,0,0,1-.945,1.848,4.031,4.031,0,0,1-2.477.707A4.371,4.371,0,0,1,43.8-.219,3.047,3.047,0,0,1,42.539-1.25a2.441,2.441,0,0,1-.453-1.414H43.93a1.338,1.338,0,0,0,.508,1.035,1.973,1.973,0,0,0,1.242.363,1.92,1.92,0,0,0,1.141-.285A.883.883,0,0,0,47.211-2.3ZM52.75,0h-1.9V-8.453h1.9ZM50.734-10.648a1.008,1.008,0,0,1,.277-.727,1.048,1.048,0,0,1,.793-.289,1.061,1.061,0,0,1,.8.289,1,1,0,0,1,.281.727.977.977,0,0,1-.281.715,1.069,1.069,0,0,1-.8.285,1.056,1.056,0,0,1-.793-.285A.984.984,0,0,1,50.734-10.648Zm5.844,2.2.055.977a3.039,3.039,0,0,1,2.461-1.133q2.641,0,2.688,3.023V0h-1.9V-5.477a1.741,1.741,0,0,0-.348-1.191A1.462,1.462,0,0,0,58.4-7.055a1.829,1.829,0,0,0-1.711,1.039V0h-1.9V-8.453ZM-33.988,17.7a.861.861,0,0,0-.418-.773,4.445,4.445,0,0,0-1.387-.469,7.129,7.129,0,0,1-1.617-.516,2.158,2.158,0,0,1-1.422-1.992,2.25,2.25,0,0,1,.922-1.828,3.644,3.644,0,0,1,2.344-.734,3.792,3.792,0,0,1,2.449.75,2.38,2.38,0,0,1,.934,1.945h-1.9a1.17,1.17,0,0,0-.406-.91,1.557,1.557,0,0,0-1.078-.363,1.682,1.682,0,0,0-1.02.289.911.911,0,0,0-.395.773.769.769,0,0,0,.367.68,5.049,5.049,0,0,0,1.484.488,7.027,7.027,0,0,1,1.754.586,2.484,2.484,0,0,1,.945.816,2.082,2.082,0,0,1,.309,1.156,2.2,2.2,0,0,1-.945,1.848,4.031,4.031,0,0,1-2.477.707,4.371,4.371,0,0,1-1.852-.375A3.047,3.047,0,0,1-38.66,18.75a2.441,2.441,0,0,1-.453-1.414h1.844a1.338,1.338,0,0,0,.508,1.035,1.973,1.973,0,0,0,1.242.363,1.92,1.92,0,0,0,1.141-.285A.883.883,0,0,0-33.988,17.7Zm5.539,2.3h-1.9V11.547h1.9ZM-30.465,9.352a1.008,1.008,0,0,1,.277-.727,1.048,1.048,0,0,1,.793-.289,1.061,1.061,0,0,1,.8.289,1,1,0,0,1,.281.727.977.977,0,0,1-.281.715,1.069,1.069,0,0,1-.8.285,1.056,1.056,0,0,1-.793-.285A.984.984,0,0,1-30.465,9.352Zm5.867,2.2.055.883a3.042,3.042,0,0,1,2.438-1.039,2.337,2.337,0,0,1,2.32,1.3,3,3,0,0,1,2.594-1.3,2.636,2.636,0,0,1,2.082.773,3.405,3.405,0,0,1,.7,2.281V20h-1.9V14.5a1.681,1.681,0,0,0-.352-1.18,1.539,1.539,0,0,0-1.164-.375,1.581,1.581,0,0,0-1.059.348,1.833,1.833,0,0,0-.574.91l.008,5.8h-1.9V14.438a1.354,1.354,0,0,0-1.523-1.492,1.671,1.671,0,0,0-1.617.93V20h-1.9V11.547Zm19.539,4.313a5.033,5.033,0,0,1-.891,3.129A2.852,2.852,0,0,1-8.34,20.156a2.871,2.871,0,0,1-2.227-.914V23.25h-1.9v-11.7h1.75l.078.859a2.788,2.788,0,0,1,2.273-1.016,2.881,2.881,0,0,1,2.426,1.152,5.167,5.167,0,0,1,.879,3.2ZM-6.949,15.7a3.526,3.526,0,0,0-.5-2.008,1.638,1.638,0,0,0-1.441-.742,1.747,1.747,0,0,0-1.672.961v3.75a1.763,1.763,0,0,0,1.688.984,1.636,1.636,0,0,0,1.418-.73A3.881,3.881,0,0,0-6.949,15.7ZM-1.434,20h-1.9V8h1.9Zm4.086,0H.754V11.547h1.9ZM.637,9.352a1.008,1.008,0,0,1,.277-.727,1.048,1.048,0,0,1,.793-.289,1.061,1.061,0,0,1,.8.289,1,1,0,0,1,.281.727.977.977,0,0,1-.281.715,1.069,1.069,0,0,1-.8.285,1.056,1.056,0,0,1-.793-.285A.984.984,0,0,1,.637,9.352ZM5.223,20V12.953H3.934V11.547H5.223v-.578a3.382,3.382,0,0,1,.422-1.7A2.624,2.624,0,0,1,6.816,8.2a4.218,4.218,0,0,1,1.82-.359,5.306,5.306,0,0,1,1.2.133q.574.133,1.191.336l-.289,1.57A6.043,6.043,0,0,0,8.77,9.5a1.759,1.759,0,0,0-1.258.379,1.516,1.516,0,0,0-.391,1.137v.531H8.785v1.406H7.121V20Zm6.7,0h-1.9V11.547h1.9ZM17.5,18.641a1.716,1.716,0,0,0,1.18-.414,1.415,1.415,0,0,0,.5-1.023h1.789a2.789,2.789,0,0,1-.492,1.473,3.228,3.228,0,0,1-1.25,1.082,3.725,3.725,0,0,1-1.7.4,3.6,3.6,0,0,1-2.812-1.148,4.555,4.555,0,0,1-1.039-3.172v-.2a4.479,4.479,0,0,1,1.031-3.09,3.571,3.571,0,0,1,2.813-1.16,3.473,3.473,0,0,1,2.457.879,3.148,3.148,0,0,1,1,2.309H19.184a1.738,1.738,0,0,0-.5-1.2,1.6,1.6,0,0,0-1.184-.469,1.671,1.671,0,0,0-1.422.668,3.408,3.408,0,0,0-.508,2.027v.3a3.465,3.465,0,0,0,.5,2.051A1.669,1.669,0,0,0,17.5,18.641ZM27.457,20a2.93,2.93,0,0,1-.219-.789,3.193,3.193,0,0,1-4.3.219,2.325,2.325,0,0,1-.8-1.8,2.4,2.4,0,0,1,1-2.074,4.865,4.865,0,0,1,2.871-.723h1.164v-.555a1.481,1.481,0,0,0-.367-1.051,1.456,1.456,0,0,0-1.117-.395,1.672,1.672,0,0,0-1.062.324,1,1,0,0,0-.414.824h-1.9a2.107,2.107,0,0,1,.461-1.3,3.071,3.071,0,0,1,1.254-.949,4.4,4.4,0,0,1,1.77-.344,3.547,3.547,0,0,1,2.367.746,2.661,2.661,0,0,1,.906,2.1v3.813a4.321,4.321,0,0,0,.32,1.82V20Zm-2.086-1.367a2.16,2.16,0,0,0,1.059-.273,1.827,1.827,0,0,0,.746-.734V16.031H26.152a2.8,2.8,0,0,0-1.586.367,1.189,1.189,0,0,0-.531,1.039,1.109,1.109,0,0,0,.363.871A1.407,1.407,0,0,0,25.371,18.633Zm10.117-5.352a4.7,4.7,0,0,0-.773-.062,1.741,1.741,0,0,0-1.758,1V20h-1.9V11.547h1.813l.047.945a2.139,2.139,0,0,1,1.906-1.1,1.777,1.777,0,0,1,.672.109Z" transform="translate(675 5878)" fill="#12263f"/>
    <path id="Trazado_900374" data-name="Trazado 900374" d="M-68.25-2.477l2.891-8.9h2.172L-67.281,0H-69.2l-4.078-11.375h2.164ZM-57.4,0a2.93,2.93,0,0,1-.219-.789,2.955,2.955,0,0,1-2.219.945A2.982,2.982,0,0,1-61.914-.57a2.325,2.325,0,0,1-.8-1.8,2.4,2.4,0,0,1,1-2.074,4.865,4.865,0,0,1,2.871-.723h1.164v-.555a1.481,1.481,0,0,0-.367-1.051,1.456,1.456,0,0,0-1.117-.395,1.672,1.672,0,0,0-1.062.324,1,1,0,0,0-.414.824h-1.9a2.107,2.107,0,0,1,.461-1.3,3.071,3.071,0,0,1,1.254-.949,4.4,4.4,0,0,1,1.77-.344,3.547,3.547,0,0,1,2.367.746,2.661,2.661,0,0,1,.906,2.1v3.813a4.321,4.321,0,0,0,.32,1.82V0Zm-2.086-1.367a2.16,2.16,0,0,0,1.059-.273,1.827,1.827,0,0,0,.746-.734V-3.969H-58.7a2.8,2.8,0,0,0-1.586.367,1.189,1.189,0,0,0-.531,1.039,1.109,1.109,0,0,0,.363.871A1.407,1.407,0,0,0-59.484-1.367Zm10.117-5.352a4.7,4.7,0,0,0-.773-.062,1.741,1.741,0,0,0-1.758,1V0h-1.9V-8.453h1.813l.047.945a2.139,2.139,0,0,1,1.906-1.1,1.777,1.777,0,0,1,.672.109ZM-46.148,0h-1.9V-8.453h1.9Zm-2.016-10.648a1.008,1.008,0,0,1,.277-.727,1.048,1.048,0,0,1,.793-.289,1.061,1.061,0,0,1,.8.289,1,1,0,0,1,.281.727.977.977,0,0,1-.281.715,1.069,1.069,0,0,1-.8.285,1.056,1.056,0,0,1-.793-.285A.984.984,0,0,1-48.164-10.648ZM-39.031,0a2.93,2.93,0,0,1-.219-.789,2.955,2.955,0,0,1-2.219.945A2.982,2.982,0,0,1-43.547-.57a2.325,2.325,0,0,1-.8-1.8,2.4,2.4,0,0,1,1-2.074,4.865,4.865,0,0,1,2.871-.723h1.164v-.555A1.481,1.481,0,0,0-39.68-6.77,1.456,1.456,0,0,0-40.8-7.164a1.672,1.672,0,0,0-1.062.324,1,1,0,0,0-.414.824h-1.9a2.107,2.107,0,0,1,.461-1.3,3.071,3.071,0,0,1,1.254-.949,4.4,4.4,0,0,1,1.77-.344,3.547,3.547,0,0,1,2.367.746,2.661,2.661,0,0,1,.906,2.1v3.813a4.321,4.321,0,0,0,.32,1.82V0Zm-2.086-1.367a2.16,2.16,0,0,0,1.059-.273,1.827,1.827,0,0,0,.746-.734V-3.969h-1.023a2.8,2.8,0,0,0-1.586.367,1.189,1.189,0,0,0-.531,1.039,1.109,1.109,0,0,0,.363.871A1.407,1.407,0,0,0-41.117-1.367Zm13.109-2.773a5.078,5.078,0,0,1-.879,3.133A2.863,2.863,0,0,1-31.3.156a2.758,2.758,0,0,1-2.312-1.07L-33.711,0H-35.43V-12h1.9v4.359a2.748,2.748,0,0,1,2.211-.969,2.9,2.9,0,0,1,2.43,1.148,5.162,5.162,0,0,1,.883,3.211Zm-1.9-.164a3.589,3.589,0,0,0-.484-2.062A1.613,1.613,0,0,0-31.8-7.055a1.763,1.763,0,0,0-1.734,1.078v3.484a1.781,1.781,0,0,0,1.75,1.1,1.6,1.6,0,0,0,1.375-.664,3.477,3.477,0,0,0,.5-2.008ZM-24.4,0h-1.9V-12h1.9Zm5.789.156A3.928,3.928,0,0,1-21.535-.98a4.124,4.124,0,0,1-1.121-3.027v-.234A5.072,5.072,0,0,1-22.168-6.5,3.716,3.716,0,0,1-20.8-8.055a3.625,3.625,0,0,1,1.969-.555,3.318,3.318,0,0,1,2.668,1.1,4.658,4.658,0,0,1,.941,3.117v.766h-5.523a2.539,2.539,0,0,0,.7,1.656,2.1,2.1,0,0,0,1.543.609,2.571,2.571,0,0,0,2.125-1.055l1.023.977A3.418,3.418,0,0,1-16.707-.262,4.244,4.244,0,0,1-18.609.156Zm-.227-7.242a1.6,1.6,0,0,0-1.262.547,2.835,2.835,0,0,0-.613,1.523h3.617v-.141A2.307,2.307,0,0,0-17.6-6.6,1.586,1.586,0,0,0-18.836-7.086ZM-9.008-2.3a.861.861,0,0,0-.418-.773,4.445,4.445,0,0,0-1.387-.469,7.129,7.129,0,0,1-1.617-.516,2.158,2.158,0,0,1-1.422-1.992,2.25,2.25,0,0,1,.922-1.828,3.644,3.644,0,0,1,2.344-.734,3.792,3.792,0,0,1,2.449.75A2.38,2.38,0,0,1-7.2-5.914H-9.1a1.17,1.17,0,0,0-.406-.91,1.557,1.557,0,0,0-1.078-.363,1.682,1.682,0,0,0-1.02.289A.911.911,0,0,0-12-6.125a.769.769,0,0,0,.367.68,5.049,5.049,0,0,0,1.484.488,7.027,7.027,0,0,1,1.754.586,2.484,2.484,0,0,1,.945.816A2.082,2.082,0,0,1-7.141-2.4,2.2,2.2,0,0,1-8.086-.551a4.031,4.031,0,0,1-2.477.707,4.371,4.371,0,0,1-1.852-.375A3.047,3.047,0,0,1-13.68-1.25a2.441,2.441,0,0,1-.453-1.414h1.844a1.338,1.338,0,0,0,.508,1.035,1.973,1.973,0,0,0,1.242.363A1.92,1.92,0,0,0-9.4-1.551.883.883,0,0,0-9.008-2.3ZM-1.859-4.3a4.984,4.984,0,0,1,.492-2.238A3.6,3.6,0,0,1,.016-8.074a3.9,3.9,0,0,1,2.047-.535,3.692,3.692,0,0,1,2.777,1.1A4.333,4.333,0,0,1,5.992-4.586L6-4.141a5.029,5.029,0,0,1-.48,2.234A3.551,3.551,0,0,1,4.145-.383,3.925,3.925,0,0,1,2.078.156,3.667,3.667,0,0,1-.785-1.035,4.563,4.563,0,0,1-1.859-4.211Zm1.9.164A3.406,3.406,0,0,0,.578-2.1a1.752,1.752,0,0,0,1.5.738,1.733,1.733,0,0,0,1.5-.75,3.762,3.762,0,0,0,.535-2.2,3.362,3.362,0,0,0-.551-2.031,1.759,1.759,0,0,0-1.5-.75,1.743,1.743,0,0,0-1.477.738A3.691,3.691,0,0,0,.039-4.141ZM15.313.156A3.928,3.928,0,0,1,12.387-.98a4.124,4.124,0,0,1-1.121-3.027v-.234A5.072,5.072,0,0,1,11.754-6.5a3.716,3.716,0,0,1,1.371-1.551,3.625,3.625,0,0,1,1.969-.555,3.318,3.318,0,0,1,2.668,1.1A4.658,4.658,0,0,1,18.7-4.391v.766H13.18a2.539,2.539,0,0,0,.7,1.656,2.1,2.1,0,0,0,1.543.609,2.571,2.571,0,0,0,2.125-1.055l1.023.977A3.418,3.418,0,0,1,17.215-.262,4.244,4.244,0,0,1,15.313.156Zm-.227-7.242a1.6,1.6,0,0,0-1.262.547,2.835,2.835,0,0,0-.613,1.523h3.617v-.141A2.307,2.307,0,0,0,16.32-6.6,1.586,1.586,0,0,0,15.086-7.086Zm6.852-1.367.055.977a3.039,3.039,0,0,1,2.461-1.133q2.641,0,2.688,3.023V0h-1.9V-5.477a1.741,1.741,0,0,0-.348-1.191,1.462,1.462,0,0,0-1.137-.387,1.829,1.829,0,0,0-1.711,1.039V0h-1.9V-8.453Zm9.516-2.055v2.055h1.492v1.406H31.453v4.719a1.039,1.039,0,0,0,.191.7.888.888,0,0,0,.684.215,2.924,2.924,0,0,0,.664-.078V-.023a4.676,4.676,0,0,1-1.25.18q-2.188,0-2.187-2.414V-7.047H28.164V-8.453h1.391v-2.055ZM38.82-6.719a4.7,4.7,0,0,0-.773-.062,1.741,1.741,0,0,0-1.758,1V0h-1.9V-8.453H36.2l.047.945a2.139,2.139,0,0,1,1.906-1.1,1.777,1.777,0,0,1,.672.109ZM44.836,0a2.93,2.93,0,0,1-.219-.789A2.955,2.955,0,0,1,42.4.156,2.982,2.982,0,0,1,40.32-.57a2.325,2.325,0,0,1-.8-1.8,2.4,2.4,0,0,1,1-2.074,4.865,4.865,0,0,1,2.871-.723h1.164v-.555a1.481,1.481,0,0,0-.367-1.051,1.456,1.456,0,0,0-1.117-.395,1.672,1.672,0,0,0-1.062.324,1,1,0,0,0-.414.824H39.7a2.107,2.107,0,0,1,.461-1.3,3.071,3.071,0,0,1,1.254-.949,4.4,4.4,0,0,1,1.77-.344,3.547,3.547,0,0,1,2.367.746,2.661,2.661,0,0,1,.906,2.1v3.813a4.321,4.321,0,0,0,.32,1.82V0ZM42.75-1.367a2.16,2.16,0,0,0,1.059-.273,1.827,1.827,0,0,0,.746-.734V-3.969H43.531a2.8,2.8,0,0,0-1.586.367,1.189,1.189,0,0,0-.531,1.039,1.109,1.109,0,0,0,.363.871A1.407,1.407,0,0,0,42.75-1.367Zm5.336-2.922a5.026,5.026,0,0,1,.906-3.137,2.9,2.9,0,0,1,2.43-1.184,2.759,2.759,0,0,1,2.172.938V-12h1.9V0H53.773L53.68-.875A2.8,2.8,0,0,1,51.406.156a2.887,2.887,0,0,1-2.4-1.2A5.21,5.21,0,0,1,48.086-4.289Zm1.9.164a3.519,3.519,0,0,0,.5,2.012,1.61,1.61,0,0,0,1.41.723,1.793,1.793,0,0,0,1.7-1.039V-6.039a1.766,1.766,0,0,0-1.687-1.016,1.622,1.622,0,0,0-1.422.73A3.919,3.919,0,0,0,49.984-4.125ZM62.523,0A2.93,2.93,0,0,1,62.3-.789a2.955,2.955,0,0,1-2.219.945A2.982,2.982,0,0,1,58.008-.57a2.325,2.325,0,0,1-.8-1.8,2.4,2.4,0,0,1,1-2.074,4.865,4.865,0,0,1,2.871-.723h1.164v-.555a1.481,1.481,0,0,0-.367-1.051,1.456,1.456,0,0,0-1.117-.395A1.672,1.672,0,0,0,59.7-6.84a1,1,0,0,0-.414.824h-1.9a2.107,2.107,0,0,1,.461-1.3A3.071,3.071,0,0,1,59.1-8.266a4.4,4.4,0,0,1,1.77-.344,3.547,3.547,0,0,1,2.367.746,2.661,2.661,0,0,1,.906,2.1v3.813a4.321,4.321,0,0,0,.32,1.82V0ZM60.438-1.367A2.16,2.16,0,0,0,61.5-1.641a1.827,1.827,0,0,0,.746-.734V-3.969H61.219a2.8,2.8,0,0,0-1.586.367A1.189,1.189,0,0,0,59.1-2.562a1.109,1.109,0,0,0,.363.871A1.407,1.407,0,0,0,60.438-1.367Zm10.43-.93a.861.861,0,0,0-.418-.773,4.445,4.445,0,0,0-1.387-.469,7.129,7.129,0,0,1-1.617-.516,2.158,2.158,0,0,1-1.422-1.992,2.25,2.25,0,0,1,.922-1.828,3.644,3.644,0,0,1,2.344-.734,3.792,3.792,0,0,1,2.449.75,2.38,2.38,0,0,1,.934,1.945h-1.9a1.17,1.17,0,0,0-.406-.91,1.557,1.557,0,0,0-1.078-.363,1.682,1.682,0,0,0-1.02.289.911.911,0,0,0-.395.773.769.769,0,0,0,.367.68,5.049,5.049,0,0,0,1.484.488,7.027,7.027,0,0,1,1.754.586,2.484,2.484,0,0,1,.945.816A2.082,2.082,0,0,1,72.734-2.4a2.2,2.2,0,0,1-.945,1.848,4.031,4.031,0,0,1-2.477.707,4.371,4.371,0,0,1-1.852-.375A3.047,3.047,0,0,1,66.2-1.25a2.441,2.441,0,0,1-.453-1.414h1.844a1.338,1.338,0,0,0,.508,1.035,1.973,1.973,0,0,0,1.242.363,1.92,1.92,0,0,0,1.141-.285A.883.883,0,0,0,70.867-2.3Z" transform="translate(878 5896)" fill="#12263f"/>
    <path id="Trazado_900361" data-name="Trazado 900361" d="M7.438-2.344H3.328L2.547,0H.055L4.289-11.375H6.461L10.719,0H8.227Zm-3.477-1.9H6.8L5.375-8.5Z" transform="translate(391 5932)" fill="#12263f"/>
    <path id="Trazado_900231" data-name="Trazado 900231" d="M-8270.9-5700v282.875" transform="translate(8704 11609.998)" fill="none" stroke="#fff" stroke-width="1"/>
    <path id="Trazado_900232" data-name="Trazado 900232" d="M-8270.9-5700v282.875" transform="translate(8766 11609.998)" fill="none" stroke="#fff" stroke-width="1"/>
    <path id="Trazado_900362" data-name="Trazado 900362" d="M1.016,0V-11.375H5a5.232,5.232,0,0,1,3.141.793,2.712,2.712,0,0,1,1.07,2.324,2.57,2.57,0,0,1-.43,1.473,2.482,2.482,0,0,1-1.2.934,2.4,2.4,0,0,1,1.379.883,2.61,2.61,0,0,1,.5,1.625A3,3,0,0,1,8.422-.859,4.713,4.713,0,0,1,5.438,0ZM3.359-4.953v3.07H5.367A1.938,1.938,0,0,0,6.66-2.277a1.353,1.353,0,0,0,.465-1.09A1.428,1.428,0,0,0,5.508-4.953Zm0-1.656H5.094q1.773-.031,1.773-1.414a1.307,1.307,0,0,0-.449-1.113A2.363,2.363,0,0,0,5-9.477H3.359Z" transform="translate(460 5932)" fill="#12263f"/>
    <path id="Trazado_900363" data-name="Trazado 900363" d="M9.945-3.789A4.025,4.025,0,0,1,8.59-.9,4.76,4.76,0,0,1,5.367.156,4.28,4.28,0,0,1,1.926-1.316,6.038,6.038,0,0,1,.672-5.359v-.7A6.819,6.819,0,0,1,1.25-8.945,4.332,4.332,0,0,1,2.9-10.863a4.629,4.629,0,0,1,2.5-.668A4.637,4.637,0,0,1,8.57-10.477,4.326,4.326,0,0,1,9.961-7.516H7.617A2.376,2.376,0,0,0,7-9.113a2.271,2.271,0,0,0-1.605-.5,1.991,1.991,0,0,0-1.754.84,4.707,4.707,0,0,0-.6,2.605V-5.3a5.038,5.038,0,0,0,.559,2.7,1.954,1.954,0,0,0,1.762.852,2.314,2.314,0,0,0,1.621-.5A2.241,2.241,0,0,0,7.6-3.789Z" transform="translate(521 5932)" fill="#12263f"/>
    <path id="Trazado_900364" data-name="Trazado 900364" d="M.969-4.625a11.99,11.99,0,0,1,.477-3.406,8.989,8.989,0,0,1,1.406-2.863,5.251,5.251,0,0,1,2.016-1.73L5.3-11.406A5.438,5.438,0,0,0,3.523-8.8a12.082,12.082,0,0,0-.641,4.125v.242A12.313,12.313,0,0,0,3.516-.289,5.544,5.544,0,0,0,5.3,2.359l-.437,1.2a5.253,5.253,0,0,1-1.98-1.684,8.838,8.838,0,0,1-1.4-2.785,11.918,11.918,0,0,1-.516-3.3ZM13.055-2.344H8.945L8.164,0H5.672L9.906-11.375h2.172L16.336,0H13.844Zm-3.477-1.9h2.844L10.992-8.5ZM21.8-6.367h2.82v2.039H21.8v3.188H19.656V-4.328H16.828V-6.367h2.828V-9.422H21.8ZM26.133,0V-11.375h3.984a5.232,5.232,0,0,1,3.141.793,2.712,2.712,0,0,1,1.07,2.324,2.57,2.57,0,0,1-.43,1.473,2.482,2.482,0,0,1-1.2.934,2.4,2.4,0,0,1,1.379.883,2.61,2.61,0,0,1,.5,1.625A3,3,0,0,1,33.539-.859,4.713,4.713,0,0,1,30.555,0Zm2.344-4.953v3.07h2.008a1.938,1.938,0,0,0,1.293-.395,1.353,1.353,0,0,0,.465-1.09,1.428,1.428,0,0,0-1.617-1.586Zm0-1.656h1.734q1.773-.031,1.773-1.414a1.307,1.307,0,0,0-.449-1.113,2.363,2.363,0,0,0-1.418-.34H28.477ZM40.086-4.445a11.377,11.377,0,0,1-.508,3.4,9.225,9.225,0,0,1-1.461,2.883,5.264,5.264,0,0,1-2.039,1.719l-.437-1.2a5.494,5.494,0,0,0,1.75-2.578,11.939,11.939,0,0,0,.664-4.008v-.414a12.208,12.208,0,0,0-.637-4.117,5.727,5.727,0,0,0-1.777-2.672l.438-1.2a5.265,5.265,0,0,1,2,1.672,9.106,9.106,0,0,1,1.461,2.82A11.3,11.3,0,0,1,40.086-4.8ZM43.633-7.52,41.18-8.214l.461-1.413,2.43.976-.156-2.724h1.531L45.289-8.6l2.367-.96.461,1.428-2.5.695,1.641,2.078-1.242.883L44.594-6.754l-1.406,2.2-1.242-.844Zm5.555,2.895a11.99,11.99,0,0,1,.477-3.406,8.989,8.989,0,0,1,1.406-2.863,5.251,5.251,0,0,1,2.016-1.73l.438,1.219A5.438,5.438,0,0,0,51.742-8.8,12.082,12.082,0,0,0,51.1-4.672v.242a12.313,12.313,0,0,0,.633,4.141,5.544,5.544,0,0,0,1.789,2.648l-.437,1.2a5.253,5.253,0,0,1-1.98-1.684A8.838,8.838,0,0,1,49.7-.914a11.918,11.918,0,0,1-.516-3.3ZM54.852,0V-11.375h3.984a5.232,5.232,0,0,1,3.141.793,2.712,2.712,0,0,1,1.07,2.324,2.57,2.57,0,0,1-.43,1.473,2.482,2.482,0,0,1-1.2.934,2.4,2.4,0,0,1,1.379.883,2.61,2.61,0,0,1,.5,1.625A3,3,0,0,1,62.258-.859,4.713,4.713,0,0,1,59.273,0ZM57.2-4.953v3.07H59.2A1.938,1.938,0,0,0,60.5-2.277a1.353,1.353,0,0,0,.465-1.09,1.428,1.428,0,0,0-1.617-1.586Zm0-1.656H58.93Q60.7-6.641,60.7-8.023a1.307,1.307,0,0,0-.449-1.113,2.363,2.363,0,0,0-1.418-.34H57.2Zm12.273.242h2.82v2.039h-2.82v3.188H67.32V-4.328H64.492V-6.367H67.32V-9.422h2.148ZM82.727-3.789A4.025,4.025,0,0,1,81.371-.9,4.76,4.76,0,0,1,78.148.156a4.28,4.28,0,0,1-3.441-1.473,6.038,6.038,0,0,1-1.254-4.043v-.7a6.819,6.819,0,0,1,.578-2.891,4.332,4.332,0,0,1,1.652-1.918,4.629,4.629,0,0,1,2.5-.668,4.637,4.637,0,0,1,3.172,1.055,4.326,4.326,0,0,1,1.391,2.961H80.4a2.376,2.376,0,0,0-.613-1.6,2.271,2.271,0,0,0-1.605-.5,1.991,1.991,0,0,0-1.754.84,4.707,4.707,0,0,0-.6,2.605V-5.3a5.038,5.038,0,0,0,.559,2.7,1.954,1.954,0,0,0,1.762.852,2.314,2.314,0,0,0,1.621-.5,2.241,2.241,0,0,0,.613-1.535ZM87.8-4.445a11.377,11.377,0,0,1-.508,3.4,9.225,9.225,0,0,1-1.461,2.883A5.263,5.263,0,0,1,83.8,3.555l-.437-1.2a5.494,5.494,0,0,0,1.75-2.578,11.939,11.939,0,0,0,.664-4.008v-.414a12.209,12.209,0,0,0-.637-4.117,5.727,5.727,0,0,0-1.777-2.672l.438-1.2a5.265,5.265,0,0,1,2,1.672,9.106,9.106,0,0,1,1.461,2.82A11.3,11.3,0,0,1,87.8-4.8Z" transform="translate(621 5932)" fill="#12263f"/>
    <path id="Trazado_900233" data-name="Trazado 900233" d="M-8270.9-5700v282.875" transform="translate(9116.902 11609.998)" fill="none" stroke="#fff" stroke-width="1"/>
    <path id="Trazado_900234" data-name="Trazado 900234" d="M-8270.9-5700v282.875" transform="translate(9178.902 11609.998)" fill="none" stroke="#fff" stroke-width="1"/>
    <path id="Trazado_900375" data-name="Trazado 900375" d="M7.438-2.344H3.328L2.547,0H.055L4.289-11.375H6.461L10.719,0H8.227Zm-3.477-1.9H6.8L5.375-8.5Z" transform="translate(811 5932)" fill="#12263f"/>
    <path id="Trazado_900382" data-name="Trazado 900382" d="M1.016,0V-11.375H5a5.232,5.232,0,0,1,3.141.793,2.712,2.712,0,0,1,1.07,2.324,2.57,2.57,0,0,1-.43,1.473,2.482,2.482,0,0,1-1.2.934,2.4,2.4,0,0,1,1.379.883,2.61,2.61,0,0,1,.5,1.625A3,3,0,0,1,8.422-.859,4.713,4.713,0,0,1,5.438,0ZM3.359-4.953v3.07H5.367A1.938,1.938,0,0,0,6.66-2.277a1.353,1.353,0,0,0,.465-1.09A1.428,1.428,0,0,0,5.508-4.953Zm0-1.656H5.094q1.773-.031,1.773-1.414a1.307,1.307,0,0,0-.449-1.113A2.363,2.363,0,0,0,5-9.477H3.359Z" transform="translate(873 5932)" fill="#12263f"/>
    <path id="Trazado_900385" data-name="Trazado 900385" d="M9.945-3.789A4.025,4.025,0,0,1,8.59-.9,4.76,4.76,0,0,1,5.367.156,4.28,4.28,0,0,1,1.926-1.316,6.038,6.038,0,0,1,.672-5.359v-.7A6.819,6.819,0,0,1,1.25-8.945,4.332,4.332,0,0,1,2.9-10.863a4.629,4.629,0,0,1,2.5-.668A4.637,4.637,0,0,1,8.57-10.477,4.326,4.326,0,0,1,9.961-7.516H7.617A2.376,2.376,0,0,0,7-9.113a2.271,2.271,0,0,0-1.605-.5,1.991,1.991,0,0,0-1.754.84,4.707,4.707,0,0,0-.6,2.605V-5.3a5.038,5.038,0,0,0,.559,2.7,1.954,1.954,0,0,0,1.762.852,2.314,2.314,0,0,0,1.621-.5A2.241,2.241,0,0,0,7.6-3.789Z" transform="translate(931 5932)" fill="#12263f"/>
    <path id="Trazado_900395" data-name="Trazado 900395" d="M0,0H130V53H0Z" transform="translate(971 5856)" fill="#fd96ca"/>
    <path id="Trazado_900396" data-name="Trazado 900396" d="M0,0H130V33H0Z" transform="translate(971 5910)" fill="#fed4e9"/>
    <path id="Trazado_900397" data-name="Trazado 900397" d="M0,0H130V248.875H0Z" transform="translate(971 5944)" fill="#fed4e9"/>
    <path id="Trazado_900398" data-name="Trazado 900398" d="M-41.148-2.93a1.374,1.374,0,0,0-.527-1.156,6.345,6.345,0,0,0-1.9-.82,9.186,9.186,0,0,1-2.187-.922A2.919,2.919,0,0,1-47.32-8.375,2.772,2.772,0,0,1-46.2-10.641a4.538,4.538,0,0,1,2.91-.891,4.916,4.916,0,0,1,2.117.438,3.475,3.475,0,0,1,1.461,1.246,3.2,3.2,0,0,1,.531,1.793h-1.969a1.782,1.782,0,0,0-.559-1.395,2.305,2.305,0,0,0-1.6-.5,2.408,2.408,0,0,0-1.5.414,1.379,1.379,0,0,0-.535,1.156,1.247,1.247,0,0,0,.578,1.043,6.66,6.66,0,0,0,1.906.813,8.768,8.768,0,0,1,2.133.9,3.392,3.392,0,0,1,1.18,1.156,3.011,3.011,0,0,1,.375,1.527,2.707,2.707,0,0,1-1.09,2.262,4.727,4.727,0,0,1-2.957.84A5.557,5.557,0,0,1-45.488-.3,3.812,3.812,0,0,1-47.1-1.562a3.144,3.144,0,0,1-.574-1.875H-45.7a1.84,1.84,0,0,0,.641,1.5,2.805,2.805,0,0,0,1.836.531,2.437,2.437,0,0,0,1.551-.418A1.349,1.349,0,0,0-41.148-2.93ZM-32.57,0a2.93,2.93,0,0,1-.219-.789,2.955,2.955,0,0,1-2.219.945A2.982,2.982,0,0,1-37.086-.57a2.325,2.325,0,0,1-.8-1.8,2.4,2.4,0,0,1,1-2.074,4.865,4.865,0,0,1,2.871-.723h1.164v-.555a1.481,1.481,0,0,0-.367-1.051,1.456,1.456,0,0,0-1.117-.395A1.672,1.672,0,0,0-35.4-6.84a1,1,0,0,0-.414.824h-1.9a2.107,2.107,0,0,1,.461-1.3A3.071,3.071,0,0,1-36-8.266a4.4,4.4,0,0,1,1.77-.344,3.547,3.547,0,0,1,2.367.746,2.661,2.661,0,0,1,.906,2.1v3.813a4.321,4.321,0,0,0,.32,1.82V0Zm-2.086-1.367A2.16,2.16,0,0,0-33.6-1.641a1.827,1.827,0,0,0,.746-.734V-3.969h-1.023a2.8,2.8,0,0,0-1.586.367,1.189,1.189,0,0,0-.531,1.039,1.109,1.109,0,0,0,.363.871A1.407,1.407,0,0,0-34.656-1.367ZM-26.945,0h-1.9V-12h1.9Zm4.086,0h-1.9V-8.453h1.9Zm-2.016-10.648a1.008,1.008,0,0,1,.277-.727,1.048,1.048,0,0,1,.793-.289,1.061,1.061,0,0,1,.8.289,1,1,0,0,1,.281.727.977.977,0,0,1-.281.715,1.069,1.069,0,0,1-.8.285,1.056,1.056,0,0,1-.793-.285A.984.984,0,0,1-24.875-10.648Zm3.727,6.359a5.026,5.026,0,0,1,.906-3.137,2.9,2.9,0,0,1,2.43-1.184,2.759,2.759,0,0,1,2.172.938V-12h1.9V0h-1.719l-.094-.875A2.8,2.8,0,0,1-17.828.156a2.887,2.887,0,0,1-2.4-1.2A5.21,5.21,0,0,1-21.148-4.289Zm1.9.164a3.519,3.519,0,0,0,.5,2.012,1.61,1.61,0,0,0,1.41.723,1.793,1.793,0,0,0,1.7-1.039V-6.039a1.766,1.766,0,0,0-1.687-1.016,1.622,1.622,0,0,0-1.422.73A3.918,3.918,0,0,0-19.25-4.125ZM-6.711,0A2.93,2.93,0,0,1-6.93-.789,2.955,2.955,0,0,1-9.148.156,2.982,2.982,0,0,1-11.227-.57a2.325,2.325,0,0,1-.8-1.8,2.4,2.4,0,0,1,1-2.074,4.865,4.865,0,0,1,2.871-.723h1.164v-.555A1.481,1.481,0,0,0-7.359-6.77a1.456,1.456,0,0,0-1.117-.395,1.672,1.672,0,0,0-1.062.324,1,1,0,0,0-.414.824h-1.9a2.107,2.107,0,0,1,.461-1.3,3.071,3.071,0,0,1,1.254-.949,4.4,4.4,0,0,1,1.77-.344A3.547,3.547,0,0,1-6-7.863a2.661,2.661,0,0,1,.906,2.1v3.813a4.321,4.321,0,0,0,.32,1.82V0ZM-8.8-1.367a2.159,2.159,0,0,0,1.059-.273,1.827,1.827,0,0,0,.746-.734V-3.969H-8.016A2.8,2.8,0,0,0-9.6-3.6a1.189,1.189,0,0,0-.531,1.039,1.109,1.109,0,0,0,.363.871A1.407,1.407,0,0,0-8.8-1.367ZM8.281-4.141a5.033,5.033,0,0,1-.891,3.129A2.852,2.852,0,0,1,5,.156,2.871,2.871,0,0,1,2.773-.758V3.25H.875v-11.7h1.75l.078.859A2.788,2.788,0,0,1,4.977-8.609,2.881,2.881,0,0,1,7.4-7.457a5.167,5.167,0,0,1,.879,3.2ZM6.391-4.3a3.526,3.526,0,0,0-.5-2.008,1.638,1.638,0,0,0-1.441-.742,1.747,1.747,0,0,0-1.672.961v3.75a1.763,1.763,0,0,0,1.688.984,1.636,1.636,0,0,0,1.418-.73A3.881,3.881,0,0,0,6.391-4.3ZM14.938,0a2.93,2.93,0,0,1-.219-.789A2.955,2.955,0,0,1,12.5.156,2.982,2.982,0,0,1,10.422-.57a2.325,2.325,0,0,1-.8-1.8,2.4,2.4,0,0,1,1-2.074,4.865,4.865,0,0,1,2.871-.723h1.164v-.555a1.481,1.481,0,0,0-.367-1.051,1.456,1.456,0,0,0-1.117-.395,1.672,1.672,0,0,0-1.062.324,1,1,0,0,0-.414.824H9.8a2.107,2.107,0,0,1,.461-1.3,3.071,3.071,0,0,1,1.254-.949,4.4,4.4,0,0,1,1.77-.344,3.547,3.547,0,0,1,2.367.746,2.661,2.661,0,0,1,.906,2.1v3.813a4.321,4.321,0,0,0,.32,1.82V0ZM12.852-1.367a2.159,2.159,0,0,0,1.059-.273,1.827,1.827,0,0,0,.746-.734V-3.969H13.633a2.8,2.8,0,0,0-1.586.367,1.189,1.189,0,0,0-.531,1.039,1.109,1.109,0,0,0,.363.871A1.407,1.407,0,0,0,12.852-1.367ZM22.969-6.719a4.7,4.7,0,0,0-.773-.062,1.741,1.741,0,0,0-1.758,1V0h-1.9V-8.453h1.813l.047.945a2.139,2.139,0,0,1,1.906-1.1,1.777,1.777,0,0,1,.672.109Zm4.523,5.359a1.716,1.716,0,0,0,1.18-.414,1.415,1.415,0,0,0,.5-1.023h1.789a2.789,2.789,0,0,1-.492,1.473,3.228,3.228,0,0,1-1.25,1.082,3.725,3.725,0,0,1-1.7.4A3.6,3.6,0,0,1,24.7-.992a4.555,4.555,0,0,1-1.039-3.172v-.2A4.479,4.479,0,0,1,24.7-7.449a3.571,3.571,0,0,1,2.813-1.16,3.473,3.473,0,0,1,2.457.879,3.148,3.148,0,0,1,1,2.309H29.172a1.738,1.738,0,0,0-.5-1.2,1.6,1.6,0,0,0-1.184-.469,1.671,1.671,0,0,0-1.422.668,3.408,3.408,0,0,0-.508,2.027v.3a3.465,3.465,0,0,0,.5,2.051A1.669,1.669,0,0,0,27.492-1.359ZM34.414,0h-1.9V-8.453h1.9ZM32.4-10.648a1.008,1.008,0,0,1,.277-.727,1.048,1.048,0,0,1,.793-.289,1.061,1.061,0,0,1,.8.289,1,1,0,0,1,.281.727.977.977,0,0,1-.281.715,1.069,1.069,0,0,1-.8.285,1.056,1.056,0,0,1-.793-.285A.984.984,0,0,1,32.4-10.648ZM41.531,0a2.93,2.93,0,0,1-.219-.789,2.955,2.955,0,0,1-2.219.945A2.982,2.982,0,0,1,37.016-.57a2.325,2.325,0,0,1-.8-1.8,2.4,2.4,0,0,1,1-2.074,4.865,4.865,0,0,1,2.871-.723H41.25v-.555a1.481,1.481,0,0,0-.367-1.051,1.456,1.456,0,0,0-1.117-.395A1.672,1.672,0,0,0,38.7-6.84a1,1,0,0,0-.414.824h-1.9a2.107,2.107,0,0,1,.461-1.3,3.071,3.071,0,0,1,1.254-.949,4.4,4.4,0,0,1,1.77-.344,3.547,3.547,0,0,1,2.367.746,2.661,2.661,0,0,1,.906,2.1v3.813a4.321,4.321,0,0,0,.32,1.82V0ZM39.445-1.367A2.16,2.16,0,0,0,40.5-1.641a1.827,1.827,0,0,0,.746-.734V-3.969H40.227a2.8,2.8,0,0,0-1.586.367,1.189,1.189,0,0,0-.531,1.039,1.109,1.109,0,0,0,.363.871A1.407,1.407,0,0,0,39.445-1.367ZM47.156,0h-1.9V-12h1.9Z" transform="translate(1036 5896)" fill="#12263f"/>
    <path id="Trazado_900406" data-name="Trazado 900406" d="M7.438-2.344H3.328L2.547,0H.055L4.289-11.375H6.461L10.719,0H8.227Zm-3.477-1.9H6.8L5.375-8.5ZM13.43-7.52l-2.453-.695.461-1.413,2.43.976-.156-2.724h1.531L15.086-8.6l2.367-.96.461,1.428-2.5.695,1.641,2.078-1.242.883L14.391-6.754l-1.406,2.2-1.242-.844Zm14.531,3.73A4.025,4.025,0,0,1,26.605-.9,4.76,4.76,0,0,1,23.383.156a4.28,4.28,0,0,1-3.441-1.473,6.038,6.038,0,0,1-1.254-4.043v-.7a6.819,6.819,0,0,1,.578-2.891,4.332,4.332,0,0,1,1.652-1.918,4.629,4.629,0,0,1,2.5-.668,4.637,4.637,0,0,1,3.172,1.055,4.326,4.326,0,0,1,1.391,2.961H25.633a2.376,2.376,0,0,0-.613-1.6,2.271,2.271,0,0,0-1.605-.5,1.991,1.991,0,0,0-1.754.84,4.707,4.707,0,0,0-.6,2.605V-5.3a5.038,5.038,0,0,0,.559,2.7,1.954,1.954,0,0,0,1.762.852A2.314,2.314,0,0,0,25-2.254a2.241,2.241,0,0,0,.613-1.535Z" transform="translate(1020 5932)" fill="#12263f"/>
    <path id="Trazado_900419" data-name="Trazado 900419" d="M0,0H130V53H0Z" transform="translate(1102 5856)" fill="#fd96ca"/>
    <path id="Trazado_900420" data-name="Trazado 900420" d="M0,0H130V33H0Z" transform="translate(1102 5910)" fill="#fed4e9"/>
    <path id="Trazado_900421" data-name="Trazado 900421" d="M0,0H130V248.875H0Z" transform="translate(1102 5944)" fill="#fed4e9"/>
    <path id="Trazado_900430" data-name="Trazado 900430" d="M-46.4-4.82H-50.98V0h-1.977V-11.375h7.227v1.594h-5.25V-6.4H-46.4Zm7,3.992a2.944,2.944,0,0,1-2.375.984,2.624,2.624,0,0,1-2.082-.8,3.423,3.423,0,0,1-.707-2.328V-8.453h1.9V-3q0,1.609,1.336,1.609a1.876,1.876,0,0,0,1.867-.992v-6.07h1.9V0h-1.789Zm5.531-7.625.055.977a3.039,3.039,0,0,1,2.461-1.133q2.641,0,2.688,3.023V0h-1.9V-5.477a1.741,1.741,0,0,0-.348-1.191,1.462,1.462,0,0,0-1.137-.387,1.829,1.829,0,0,0-1.711,1.039V0h-1.9V-8.453Zm10.609,7.094a1.716,1.716,0,0,0,1.18-.414,1.415,1.415,0,0,0,.5-1.023h1.789a2.789,2.789,0,0,1-.492,1.473,3.228,3.228,0,0,1-1.25,1.082,3.725,3.725,0,0,1-1.7.4A3.6,3.6,0,0,1-26.051-.992,4.555,4.555,0,0,1-27.09-4.164v-.2a4.479,4.479,0,0,1,1.031-3.09,3.571,3.571,0,0,1,2.813-1.16,3.473,3.473,0,0,1,2.457.879,3.148,3.148,0,0,1,1,2.309h-1.789a1.738,1.738,0,0,0-.5-1.2,1.6,1.6,0,0,0-1.184-.469,1.671,1.671,0,0,0-1.422.668,3.408,3.408,0,0,0-.508,2.027v.3a3.465,3.465,0,0,0,.5,2.051A1.669,1.669,0,0,0-23.262-1.359ZM-16.34,0h-1.9V-8.453h1.9Zm-2.016-10.648a1.008,1.008,0,0,1,.277-.727,1.048,1.048,0,0,1,.793-.289,1.061,1.061,0,0,1,.8.289,1,1,0,0,1,.281.727.977.977,0,0,1-.281.715,1.069,1.069,0,0,1-.8.285,1.056,1.056,0,0,1-.793-.285A.984.984,0,0,1-18.355-10.648ZM-14.629-4.3a4.984,4.984,0,0,1,.492-2.238,3.6,3.6,0,0,1,1.383-1.531,3.9,3.9,0,0,1,2.047-.535,3.692,3.692,0,0,1,2.777,1.1A4.333,4.333,0,0,1-6.777-4.586l.008.445a5.029,5.029,0,0,1-.48,2.234A3.551,3.551,0,0,1-8.625-.383a3.925,3.925,0,0,1-2.066.539,3.667,3.667,0,0,1-2.863-1.191,4.563,4.563,0,0,1-1.074-3.176Zm1.9.164A3.406,3.406,0,0,0-12.191-2.1a1.752,1.752,0,0,0,1.5.738,1.733,1.733,0,0,0,1.5-.75A3.762,3.762,0,0,0-8.66-4.3a3.362,3.362,0,0,0-.551-2.031,1.759,1.759,0,0,0-1.5-.75,1.743,1.743,0,0,0-1.477.738A3.691,3.691,0,0,0-12.73-4.141ZM-10.184-12H-8.02l-2.164,2.367-1.523,0ZM-3.4-8.453l.055.977A3.039,3.039,0,0,1-.887-8.609q2.641,0,2.688,3.023V0H-.1V-5.477A1.741,1.741,0,0,0-.445-6.668a1.462,1.462,0,0,0-1.137-.387A1.829,1.829,0,0,0-3.293-6.016V0h-1.9V-8.453ZM9.738,0H7.84V-12h1.9Zm1.711-4.3a4.984,4.984,0,0,1,.492-2.238,3.6,3.6,0,0,1,1.383-1.531,3.9,3.9,0,0,1,2.047-.535,3.692,3.692,0,0,1,2.777,1.1A4.333,4.333,0,0,1,19.3-4.586l.008.445a5.029,5.029,0,0,1-.48,2.234A3.551,3.551,0,0,1,17.453-.383a3.925,3.925,0,0,1-2.066.539,3.667,3.667,0,0,1-2.863-1.191,4.563,4.563,0,0,1-1.074-3.176Zm1.9.164A3.406,3.406,0,0,0,13.887-2.1a1.752,1.752,0,0,0,1.5.738,1.733,1.733,0,0,0,1.5-.75,3.762,3.762,0,0,0,.535-2.2,3.362,3.362,0,0,0-.551-2.031,1.759,1.759,0,0,0-1.5-.75,1.743,1.743,0,0,0-1.477.738A3.691,3.691,0,0,0,13.348-4.141ZM15.895-12h2.164L15.895-9.633l-1.523,0Zm4.688,7.711a4.944,4.944,0,0,1,.926-3.145,2.971,2.971,0,0,1,2.457-1.176A2.784,2.784,0,0,1,26.238-7.6l.086-.852h1.711v8.2A3.406,3.406,0,0,1,27,2.367a3.943,3.943,0,0,1-2.793.961,4.5,4.5,0,0,1-1.816-.387A3.227,3.227,0,0,1,21.043,1.93l.9-1.141A2.713,2.713,0,0,0,24.1,1.828a2.1,2.1,0,0,0,1.492-.512,1.961,1.961,0,0,0,.547-1.5v-.57a2.8,2.8,0,0,1-2.187.914,2.964,2.964,0,0,1-2.426-1.18A5.1,5.1,0,0,1,20.582-4.289Zm1.891.164a3.4,3.4,0,0,0,.52,2,1.671,1.671,0,0,0,1.441.73,1.827,1.827,0,0,0,1.7-.984V-6.094a1.8,1.8,0,0,0-1.687-.961,1.677,1.677,0,0,0-1.457.742A3.811,3.811,0,0,0,22.473-4.125ZM32,0h-1.9V-8.453H32ZM29.988-10.648a1.008,1.008,0,0,1,.277-.727,1.048,1.048,0,0,1,.793-.289,1.061,1.061,0,0,1,.8.289,1,1,0,0,1,.281.727.977.977,0,0,1-.281.715,1.069,1.069,0,0,1-.8.285,1.056,1.056,0,0,1-.793-.285A.984.984,0,0,1,29.988-10.648Zm7.555,9.289a1.716,1.716,0,0,0,1.18-.414,1.415,1.415,0,0,0,.5-1.023h1.789a2.789,2.789,0,0,1-.492,1.473A3.228,3.228,0,0,1,39.27-.242a3.725,3.725,0,0,1-1.7.4A3.6,3.6,0,0,1,34.754-.992a4.555,4.555,0,0,1-1.039-3.172v-.2a4.479,4.479,0,0,1,1.031-3.09,3.571,3.571,0,0,1,2.813-1.16,3.473,3.473,0,0,1,2.457.879,3.148,3.148,0,0,1,1,2.309H39.223a1.738,1.738,0,0,0-.5-1.2,1.6,1.6,0,0,0-1.184-.469,1.671,1.671,0,0,0-1.422.668,3.408,3.408,0,0,0-.508,2.027v.3a3.465,3.465,0,0,0,.5,2.051A1.669,1.669,0,0,0,37.543-1.359ZM47.5,0a2.93,2.93,0,0,1-.219-.789,2.955,2.955,0,0,1-2.219.945A2.982,2.982,0,0,1,42.98-.57a2.325,2.325,0,0,1-.8-1.8,2.4,2.4,0,0,1,1-2.074,4.865,4.865,0,0,1,2.871-.723h1.164v-.555a1.481,1.481,0,0,0-.367-1.051,1.456,1.456,0,0,0-1.117-.395,1.672,1.672,0,0,0-1.062.324,1,1,0,0,0-.414.824h-1.9a2.107,2.107,0,0,1,.461-1.3,3.071,3.071,0,0,1,1.254-.949,4.4,4.4,0,0,1,1.77-.344,3.547,3.547,0,0,1,2.367.746,2.661,2.661,0,0,1,.906,2.1v3.813a4.321,4.321,0,0,0,.32,1.82V0ZM45.41-1.367a2.16,2.16,0,0,0,1.059-.273,1.827,1.827,0,0,0,.746-.734V-3.969H46.191a2.8,2.8,0,0,0-1.586.367,1.189,1.189,0,0,0-.531,1.039,1.109,1.109,0,0,0,.363.871A1.407,1.407,0,0,0,45.41-1.367ZM-40.02,17.7a.861.861,0,0,0-.418-.773,4.445,4.445,0,0,0-1.387-.469,7.129,7.129,0,0,1-1.617-.516,2.158,2.158,0,0,1-1.422-1.992,2.25,2.25,0,0,1,.922-1.828,3.644,3.644,0,0,1,2.344-.734,3.792,3.792,0,0,1,2.449.75,2.38,2.38,0,0,1,.934,1.945h-1.9a1.17,1.17,0,0,0-.406-.91,1.557,1.557,0,0,0-1.078-.363,1.682,1.682,0,0,0-1.02.289.911.911,0,0,0-.395.773.769.769,0,0,0,.367.68,5.049,5.049,0,0,0,1.484.488,7.027,7.027,0,0,1,1.754.586,2.484,2.484,0,0,1,.945.816,2.082,2.082,0,0,1,.309,1.156,2.2,2.2,0,0,1-.945,1.848,4.031,4.031,0,0,1-2.477.707,4.371,4.371,0,0,1-1.852-.375,3.047,3.047,0,0,1-1.266-1.031,2.441,2.441,0,0,1-.453-1.414H-43.3a1.338,1.338,0,0,0,.508,1.035,1.973,1.973,0,0,0,1.242.363,1.92,1.92,0,0,0,1.141-.285A.883.883,0,0,0-40.02,17.7ZM-34.48,20h-1.9V11.547h1.9ZM-36.5,9.352a1.008,1.008,0,0,1,.277-.727,1.048,1.048,0,0,1,.793-.289,1.061,1.061,0,0,1,.8.289,1,1,0,0,1,.281.727.977.977,0,0,1-.281.715,1.069,1.069,0,0,1-.8.285,1.056,1.056,0,0,1-.793-.285A.984.984,0,0,1-36.5,9.352Zm5.867,2.2.055.883a3.042,3.042,0,0,1,2.438-1.039,2.337,2.337,0,0,1,2.32,1.3,3,3,0,0,1,2.594-1.3,2.636,2.636,0,0,1,2.082.773,3.405,3.405,0,0,1,.7,2.281V20h-1.9V14.5a1.681,1.681,0,0,0-.352-1.18,1.539,1.539,0,0,0-1.164-.375,1.581,1.581,0,0,0-1.059.348,1.833,1.833,0,0,0-.574.91l.008,5.8h-1.9V14.438A1.354,1.354,0,0,0-28.9,12.945a1.671,1.671,0,0,0-1.617.93V20h-1.9V11.547Zm19.539,4.313a5.033,5.033,0,0,1-.891,3.129,2.852,2.852,0,0,1-2.391,1.168,2.871,2.871,0,0,1-2.227-.914V23.25h-1.9v-11.7h1.75l.078.859a2.788,2.788,0,0,1,2.273-1.016,2.881,2.881,0,0,1,2.426,1.152,5.167,5.167,0,0,1,.879,3.2ZM-12.98,15.7a3.526,3.526,0,0,0-.5-2.008,1.638,1.638,0,0,0-1.441-.742,1.747,1.747,0,0,0-1.672.961v3.75a1.763,1.763,0,0,0,1.688.984,1.636,1.636,0,0,0,1.418-.73A3.881,3.881,0,0,0-12.98,15.7ZM-7.465,20h-1.9V8h1.9Zm4.086,0h-1.9V11.547h1.9ZM-5.395,9.352a1.008,1.008,0,0,1,.277-.727,1.048,1.048,0,0,1,.793-.289,1.061,1.061,0,0,1,.8.289,1,1,0,0,1,.281.727.977.977,0,0,1-.281.715,1.069,1.069,0,0,1-.8.285,1.056,1.056,0,0,1-.793-.285A.984.984,0,0,1-5.395,9.352ZM-.809,20V12.953H-2.1V11.547H-.809v-.578a3.382,3.382,0,0,1,.422-1.7A2.624,2.624,0,0,1,.785,8.2a4.218,4.218,0,0,1,1.82-.359,5.306,5.306,0,0,1,1.2.133Q4.379,8.1,5,8.3l-.289,1.57A6.043,6.043,0,0,0,2.738,9.5a1.759,1.759,0,0,0-1.258.379,1.516,1.516,0,0,0-.391,1.137v.531H2.754v1.406H1.09V20Zm6.7,0H4V11.547h1.9Zm5.578-1.359a1.716,1.716,0,0,0,1.18-.414,1.415,1.415,0,0,0,.5-1.023h1.789a2.789,2.789,0,0,1-.492,1.473,3.228,3.228,0,0,1-1.25,1.082,3.725,3.725,0,0,1-1.7.4,3.6,3.6,0,0,1-2.812-1.148,4.555,4.555,0,0,1-1.039-3.172v-.2a4.479,4.479,0,0,1,1.031-3.09,3.571,3.571,0,0,1,2.813-1.16,3.473,3.473,0,0,1,2.457.879,3.148,3.148,0,0,1,1,2.309H13.152a1.738,1.738,0,0,0-.5-1.2,1.6,1.6,0,0,0-1.184-.469,1.671,1.671,0,0,0-1.422.668,3.408,3.408,0,0,0-.508,2.027v.3a3.465,3.465,0,0,0,.5,2.051A1.669,1.669,0,0,0,11.473,18.641ZM21.426,20a2.93,2.93,0,0,1-.219-.789,3.193,3.193,0,0,1-4.3.219,2.325,2.325,0,0,1-.8-1.8,2.4,2.4,0,0,1,1-2.074,4.865,4.865,0,0,1,2.871-.723h1.164v-.555a1.481,1.481,0,0,0-.367-1.051,1.456,1.456,0,0,0-1.117-.395,1.672,1.672,0,0,0-1.062.324,1,1,0,0,0-.414.824h-1.9a2.107,2.107,0,0,1,.461-1.3A3.071,3.071,0,0,1,18,11.734a4.4,4.4,0,0,1,1.77-.344,3.547,3.547,0,0,1,2.367.746,2.661,2.661,0,0,1,.906,2.1v3.813a4.321,4.321,0,0,0,.32,1.82V20ZM19.34,18.633a2.16,2.16,0,0,0,1.059-.273,1.827,1.827,0,0,0,.746-.734V16.031H20.121a2.8,2.8,0,0,0-1.586.367A1.189,1.189,0,0,0,18,17.438a1.109,1.109,0,0,0,.363.871A1.407,1.407,0,0,0,19.34,18.633Zm5.336-2.922a5.026,5.026,0,0,1,.906-3.137,2.9,2.9,0,0,1,2.43-1.184,2.759,2.759,0,0,1,2.172.938V8h1.9V20H30.363l-.094-.875A2.8,2.8,0,0,1,28,20.156a2.887,2.887,0,0,1-2.4-1.2A5.21,5.21,0,0,1,24.676,15.711Zm1.9.164a3.519,3.519,0,0,0,.5,2.012,1.61,1.61,0,0,0,1.41.723,1.793,1.793,0,0,0,1.7-1.039V13.961A1.766,1.766,0,0,0,28.5,12.945a1.622,1.622,0,0,0-1.422.73A3.918,3.918,0,0,0,26.574,15.875ZM39.113,20a2.93,2.93,0,0,1-.219-.789,3.193,3.193,0,0,1-4.3.219,2.325,2.325,0,0,1-.8-1.8,2.4,2.4,0,0,1,1-2.074,4.865,4.865,0,0,1,2.871-.723h1.164v-.555a1.481,1.481,0,0,0-.367-1.051,1.456,1.456,0,0,0-1.117-.395,1.672,1.672,0,0,0-1.062.324,1,1,0,0,0-.414.824h-1.9a2.107,2.107,0,0,1,.461-1.3,3.071,3.071,0,0,1,1.254-.949,4.4,4.4,0,0,1,1.77-.344,3.547,3.547,0,0,1,2.367.746,2.661,2.661,0,0,1,.906,2.1v3.813a4.321,4.321,0,0,0,.32,1.82V20Zm-2.086-1.367a2.16,2.16,0,0,0,1.059-.273,1.827,1.827,0,0,0,.746-.734V16.031H37.809a2.8,2.8,0,0,0-1.586.367,1.189,1.189,0,0,0-.531,1.039,1.109,1.109,0,0,0,.363.871A1.407,1.407,0,0,0,37.027,18.633Z" transform="translate(1171 5878)" fill="#12263f"/>
    <path id="Trazado_900439" data-name="Trazado 900439" d="M7.438-2.344H3.328L2.547,0H.055L4.289-11.375H6.461L10.719,0H8.227Zm-3.477-1.9H6.8L5.375-8.5ZM13.43-7.52l-2.453-.695.461-1.413,2.43.976-.156-2.724h1.531L15.086-8.6l2.367-.96.461,1.428-2.5.695,1.641,2.078-1.242.883L14.391-6.754l-1.406,2.2-1.242-.844Zm14.531,3.73A4.025,4.025,0,0,1,26.605-.9,4.76,4.76,0,0,1,23.383.156a4.28,4.28,0,0,1-3.441-1.473,6.038,6.038,0,0,1-1.254-4.043v-.7a6.819,6.819,0,0,1,.578-2.891,4.332,4.332,0,0,1,1.652-1.918,4.629,4.629,0,0,1,2.5-.668,4.637,4.637,0,0,1,3.172,1.055,4.326,4.326,0,0,1,1.391,2.961H25.633a2.376,2.376,0,0,0-.613-1.6,2.271,2.271,0,0,0-1.605-.5,1.991,1.991,0,0,0-1.754.84,4.707,4.707,0,0,0-.6,2.605V-5.3a5.038,5.038,0,0,0,.559,2.7,1.954,1.954,0,0,0,1.762.852A2.314,2.314,0,0,0,25-2.254a2.241,2.241,0,0,0,.613-1.535Z" transform="translate(1137 5932)" fill="#12263f"/>
    <path id="Trazado_900235" data-name="Trazado 900235" d="M-8270.9-5700v860" transform="translate(-4469.998 14244.262) rotate(90)" fill="none" stroke="#fff" stroke-width="1"/>
    <path id="Trazado_900236" data-name="Trazado 900236" d="M-8270.9-5700v860" transform="translate(-4469.998 14275.621) rotate(90)" fill="none" stroke="#fff" stroke-width="1"/>
    <path id="Trazado_900237" data-name="Trazado 900237" d="M-8270.9-5700v860" transform="translate(-4469.998 14306.98) rotate(90)" fill="none" stroke="#fff" stroke-width="1"/>
    <path id="Trazado_900238" data-name="Trazado 900238" d="M-8270.9-5700v860" transform="translate(-4469.998 14338.34) rotate(90)" fill="none" stroke="#fff" stroke-width="1"/>
    <path id="Trazado_900239" data-name="Trazado 900239" d="M-8270.9-5700v860" transform="translate(-4469.998 14369.699) rotate(90)" fill="none" stroke="#fff" stroke-width="1"/>
    <path id="Trazado_900240" data-name="Trazado 900240" d="M-8270.9-5700v860" transform="translate(-4469.998 14401.059) rotate(90)" fill="none" stroke="#fff" stroke-width="1"/>
    <path id="Trazado_900241" data-name="Trazado 900241" d="M-8270.9-5700v860" transform="translate(-4469.998 14432.418) rotate(90)" fill="none" stroke="#fff" stroke-width="1"/>
    <path id="Trazado_900242" data-name="Trazado 900242" d="M-8270.9-5700v860" transform="translate(-4469.998 14463.777) rotate(90)" fill="none" stroke="#fff" stroke-width="1"/>
    <path id="Trazado_900367" data-name="Trazado 900367" d="M8.078-4.852a6.61,6.61,0,0,1-.867,3.773A3.084,3.084,0,0,1,4.5.156,3.107,3.107,0,0,1,1.8-1.051,6.274,6.274,0,0,1,.9-4.656v-1.93a6.463,6.463,0,0,1,.867-3.727,3.108,3.108,0,0,1,2.719-1.219,3.136,3.136,0,0,1,2.7,1.176,6.237,6.237,0,0,1,.891,3.629ZM6.633-6.828A5.3,5.3,0,0,0,6.117-9.5a1.775,1.775,0,0,0-1.633-.84,1.751,1.751,0,0,0-1.617.836,5.171,5.171,0,0,0-.523,2.57v2.313A5.381,5.381,0,0,0,2.879-1.9,1.771,1.771,0,0,0,4.5-1.023a1.747,1.747,0,0,0,1.59-.828,5.186,5.186,0,0,0,.543-2.609Z" transform="translate(391 5965)" fill="#12263f"/>
    <path id="Trazado_900368" data-name="Trazado 900368" d="M8.078-4.852a6.61,6.61,0,0,1-.867,3.773A3.084,3.084,0,0,1,4.5.156,3.107,3.107,0,0,1,1.8-1.051,6.274,6.274,0,0,1,.9-4.656v-1.93a6.463,6.463,0,0,1,.867-3.727,3.108,3.108,0,0,1,2.719-1.219,3.136,3.136,0,0,1,2.7,1.176,6.237,6.237,0,0,1,.891,3.629ZM6.633-6.828A5.3,5.3,0,0,0,6.117-9.5a1.775,1.775,0,0,0-1.633-.84,1.751,1.751,0,0,0-1.617.836,5.171,5.171,0,0,0-.523,2.57v2.313A5.381,5.381,0,0,0,2.879-1.9,1.771,1.771,0,0,0,4.5-1.023a1.747,1.747,0,0,0,1.59-.828,5.186,5.186,0,0,0,.543-2.609Z" transform="translate(460 5965)" fill="#12263f"/>
    <path id="Trazado_900369" data-name="Trazado 900369" d="M8.078-4.852a6.61,6.61,0,0,1-.867,3.773A3.084,3.084,0,0,1,4.5.156,3.107,3.107,0,0,1,1.8-1.051,6.274,6.274,0,0,1,.9-4.656v-1.93a6.463,6.463,0,0,1,.867-3.727,3.108,3.108,0,0,1,2.719-1.219,3.136,3.136,0,0,1,2.7,1.176,6.237,6.237,0,0,1,.891,3.629ZM6.633-6.828A5.3,5.3,0,0,0,6.117-9.5a1.775,1.775,0,0,0-1.633-.84,1.751,1.751,0,0,0-1.617.836,5.171,5.171,0,0,0-.523,2.57v2.313A5.381,5.381,0,0,0,2.879-1.9,1.771,1.771,0,0,0,4.5-1.023a1.747,1.747,0,0,0,1.59-.828,5.186,5.186,0,0,0,.543-2.609Z" transform="translate(521 5965)" fill="#12263f"/>
    <path id="Trazado_900376" data-name="Trazado 900376" d="M8.078-4.852a6.61,6.61,0,0,1-.867,3.773A3.084,3.084,0,0,1,4.5.156,3.107,3.107,0,0,1,1.8-1.051,6.274,6.274,0,0,1,.9-4.656v-1.93a6.463,6.463,0,0,1,.867-3.727,3.108,3.108,0,0,1,2.719-1.219,3.136,3.136,0,0,1,2.7,1.176,6.237,6.237,0,0,1,.891,3.629ZM6.633-6.828A5.3,5.3,0,0,0,6.117-9.5a1.775,1.775,0,0,0-1.633-.84,1.751,1.751,0,0,0-1.617.836,5.171,5.171,0,0,0-.523,2.57v2.313A5.381,5.381,0,0,0,2.879-1.9,1.771,1.771,0,0,0,4.5-1.023a1.747,1.747,0,0,0,1.59-.828,5.186,5.186,0,0,0,.543-2.609Z" transform="translate(391 5992.719)" fill="#12263f"/>
    <path id="Trazado_900377" data-name="Trazado 900377" d="M8.078-4.852a6.61,6.61,0,0,1-.867,3.773A3.084,3.084,0,0,1,4.5.156,3.107,3.107,0,0,1,1.8-1.051,6.274,6.274,0,0,1,.9-4.656v-1.93a6.463,6.463,0,0,1,.867-3.727,3.108,3.108,0,0,1,2.719-1.219,3.136,3.136,0,0,1,2.7,1.176,6.237,6.237,0,0,1,.891,3.629ZM6.633-6.828A5.3,5.3,0,0,0,6.117-9.5a1.775,1.775,0,0,0-1.633-.84,1.751,1.751,0,0,0-1.617.836,5.171,5.171,0,0,0-.523,2.57v2.313A5.381,5.381,0,0,0,2.879-1.9,1.771,1.771,0,0,0,4.5-1.023a1.747,1.747,0,0,0,1.59-.828,5.186,5.186,0,0,0,.543-2.609Z" transform="translate(460 5992.719)" fill="#12263f"/>
    <path id="Trazado_900378" data-name="Trazado 900378" d="M5.7,0H4.242V-9.633L1.328-8.562V-9.875L5.469-11.43H5.7Z" transform="translate(521 5992.719)" fill="#12263f"/>
    <path id="Trazado_900386" data-name="Trazado 900386" d="M8.078-4.852a6.61,6.61,0,0,1-.867,3.773A3.084,3.084,0,0,1,4.5.156,3.107,3.107,0,0,1,1.8-1.051,6.274,6.274,0,0,1,.9-4.656v-1.93a6.463,6.463,0,0,1,.867-3.727,3.108,3.108,0,0,1,2.719-1.219,3.136,3.136,0,0,1,2.7,1.176,6.237,6.237,0,0,1,.891,3.629ZM6.633-6.828A5.3,5.3,0,0,0,6.117-9.5a1.775,1.775,0,0,0-1.633-.84,1.751,1.751,0,0,0-1.617.836,5.171,5.171,0,0,0-.523,2.57v2.313A5.381,5.381,0,0,0,2.879-1.9,1.771,1.771,0,0,0,4.5-1.023a1.747,1.747,0,0,0,1.59-.828,5.186,5.186,0,0,0,.543-2.609Z" transform="translate(391 6025.719)" fill="#12263f"/>
    <path id="Trazado_900387" data-name="Trazado 900387" d="M5.7,0H4.242V-9.633L1.328-8.562V-9.875L5.469-11.43H5.7Z" transform="translate(460 6025.719)" fill="#12263f"/>
    <path id="Trazado_900388" data-name="Trazado 900388" d="M8.078-4.852a6.61,6.61,0,0,1-.867,3.773A3.084,3.084,0,0,1,4.5.156,3.107,3.107,0,0,1,1.8-1.051,6.274,6.274,0,0,1,.9-4.656v-1.93a6.463,6.463,0,0,1,.867-3.727,3.108,3.108,0,0,1,2.719-1.219,3.136,3.136,0,0,1,2.7,1.176,6.237,6.237,0,0,1,.891,3.629ZM6.633-6.828A5.3,5.3,0,0,0,6.117-9.5a1.775,1.775,0,0,0-1.633-.84,1.751,1.751,0,0,0-1.617.836,5.171,5.171,0,0,0-.523,2.57v2.313A5.381,5.381,0,0,0,2.879-1.9,1.771,1.771,0,0,0,4.5-1.023a1.747,1.747,0,0,0,1.59-.828,5.186,5.186,0,0,0,.543-2.609Z" transform="translate(521 6025.719)" fill="#12263f"/>
    <path id="Trazado_900399" data-name="Trazado 900399" d="M8.078-4.852a6.61,6.61,0,0,1-.867,3.773A3.084,3.084,0,0,1,4.5.156,3.107,3.107,0,0,1,1.8-1.051,6.274,6.274,0,0,1,.9-4.656v-1.93a6.463,6.463,0,0,1,.867-3.727,3.108,3.108,0,0,1,2.719-1.219,3.136,3.136,0,0,1,2.7,1.176,6.237,6.237,0,0,1,.891,3.629ZM6.633-6.828A5.3,5.3,0,0,0,6.117-9.5a1.775,1.775,0,0,0-1.633-.84,1.751,1.751,0,0,0-1.617.836,5.171,5.171,0,0,0-.523,2.57v2.313A5.381,5.381,0,0,0,2.879-1.9,1.771,1.771,0,0,0,4.5-1.023a1.747,1.747,0,0,0,1.59-.828,5.186,5.186,0,0,0,.543-2.609Z" transform="translate(391 6057.078)" fill="#12263f"/>
    <path id="Trazado_900400" data-name="Trazado 900400" d="M5.7,0H4.242V-9.633L1.328-8.562V-9.875L5.469-11.43H5.7Z" transform="translate(460 6057.078)" fill="#12263f"/>
    <path id="Trazado_900401" data-name="Trazado 900401" d="M5.7,0H4.242V-9.633L1.328-8.562V-9.875L5.469-11.43H5.7Z" transform="translate(521 6057.078)" fill="#12263f"/>
    <path id="Trazado_900411" data-name="Trazado 900411" d="M5.7,0H4.242V-9.633L1.328-8.562V-9.875L5.469-11.43H5.7Z" transform="translate(391 6088.797)" fill="#12263f"/>
    <path id="Trazado_900412" data-name="Trazado 900412" d="M8.078-4.852a6.61,6.61,0,0,1-.867,3.773A3.084,3.084,0,0,1,4.5.156,3.107,3.107,0,0,1,1.8-1.051,6.274,6.274,0,0,1,.9-4.656v-1.93a6.463,6.463,0,0,1,.867-3.727,3.108,3.108,0,0,1,2.719-1.219,3.136,3.136,0,0,1,2.7,1.176,6.237,6.237,0,0,1,.891,3.629ZM6.633-6.828A5.3,5.3,0,0,0,6.117-9.5a1.775,1.775,0,0,0-1.633-.84,1.751,1.751,0,0,0-1.617.836,5.171,5.171,0,0,0-.523,2.57v2.313A5.381,5.381,0,0,0,2.879-1.9,1.771,1.771,0,0,0,4.5-1.023a1.747,1.747,0,0,0,1.59-.828,5.186,5.186,0,0,0,.543-2.609Z" transform="translate(460 6088.797)" fill="#12263f"/>
    <path id="Trazado_900413" data-name="Trazado 900413" d="M8.078-4.852a6.61,6.61,0,0,1-.867,3.773A3.084,3.084,0,0,1,4.5.156,3.107,3.107,0,0,1,1.8-1.051,6.274,6.274,0,0,1,.9-4.656v-1.93a6.463,6.463,0,0,1,.867-3.727,3.108,3.108,0,0,1,2.719-1.219,3.136,3.136,0,0,1,2.7,1.176,6.237,6.237,0,0,1,.891,3.629ZM6.633-6.828A5.3,5.3,0,0,0,6.117-9.5a1.775,1.775,0,0,0-1.633-.84,1.751,1.751,0,0,0-1.617.836,5.171,5.171,0,0,0-.523,2.57v2.313A5.381,5.381,0,0,0,2.879-1.9,1.771,1.771,0,0,0,4.5-1.023a1.747,1.747,0,0,0,1.59-.828,5.186,5.186,0,0,0,.543-2.609Z" transform="translate(521 6088.797)" fill="#12263f"/>
    <path id="Trazado_900422" data-name="Trazado 900422" d="M5.7,0H4.242V-9.633L1.328-8.562V-9.875L5.469-11.43H5.7Z" transform="translate(391 6121.797)" fill="#12263f"/>
    <path id="Trazado_900423" data-name="Trazado 900423" d="M8.078-4.852a6.61,6.61,0,0,1-.867,3.773A3.084,3.084,0,0,1,4.5.156,3.107,3.107,0,0,1,1.8-1.051,6.274,6.274,0,0,1,.9-4.656v-1.93a6.463,6.463,0,0,1,.867-3.727,3.108,3.108,0,0,1,2.719-1.219,3.136,3.136,0,0,1,2.7,1.176,6.237,6.237,0,0,1,.891,3.629ZM6.633-6.828A5.3,5.3,0,0,0,6.117-9.5a1.775,1.775,0,0,0-1.633-.84,1.751,1.751,0,0,0-1.617.836,5.171,5.171,0,0,0-.523,2.57v2.313A5.381,5.381,0,0,0,2.879-1.9,1.771,1.771,0,0,0,4.5-1.023a1.747,1.747,0,0,0,1.59-.828,5.186,5.186,0,0,0,.543-2.609Z" transform="translate(460 6121.797)" fill="#12263f"/>
    <path id="Trazado_900424" data-name="Trazado 900424" d="M5.7,0H4.242V-9.633L1.328-8.562V-9.875L5.469-11.43H5.7Z" transform="translate(521 6121.797)" fill="#12263f"/>
    <path id="Trazado_900431" data-name="Trazado 900431" d="M5.7,0H4.242V-9.633L1.328-8.562V-9.875L5.469-11.43H5.7Z" transform="translate(391 6153.156)" fill="#12263f"/>
    <path id="Trazado_900432" data-name="Trazado 900432" d="M5.7,0H4.242V-9.633L1.328-8.562V-9.875L5.469-11.43H5.7Z" transform="translate(460 6153.156)" fill="#12263f"/>
    <path id="Trazado_900433" data-name="Trazado 900433" d="M8.078-4.852a6.61,6.61,0,0,1-.867,3.773A3.084,3.084,0,0,1,4.5.156,3.107,3.107,0,0,1,1.8-1.051,6.274,6.274,0,0,1,.9-4.656v-1.93a6.463,6.463,0,0,1,.867-3.727,3.108,3.108,0,0,1,2.719-1.219,3.136,3.136,0,0,1,2.7,1.176,6.237,6.237,0,0,1,.891,3.629ZM6.633-6.828A5.3,5.3,0,0,0,6.117-9.5a1.775,1.775,0,0,0-1.633-.84,1.751,1.751,0,0,0-1.617.836,5.171,5.171,0,0,0-.523,2.57v2.313A5.381,5.381,0,0,0,2.879-1.9,1.771,1.771,0,0,0,4.5-1.023a1.747,1.747,0,0,0,1.59-.828,5.186,5.186,0,0,0,.543-2.609Z" transform="translate(521 6153.156)" fill="#12263f"/>
    <path id="Trazado_900447" data-name="Trazado 900447" d="M5.7,0H4.242V-9.633L1.328-8.562V-9.875L5.469-11.43H5.7Z" transform="translate(391 6184.516)" fill="#12263f"/>
    <path id="Trazado_900448" data-name="Trazado 900448" d="M5.7,0H4.242V-9.633L1.328-8.562V-9.875L5.469-11.43H5.7Z" transform="translate(460 6184.516)" fill="#12263f"/>
    <path id="Trazado_900449" data-name="Trazado 900449" d="M5.7,0H4.242V-9.633L1.328-8.562V-9.875L5.469-11.43H5.7Z" transform="translate(521 6184.516)" fill="#12263f"/>
    <path id="Trazado_900370" data-name="Trazado 900370" d="M8.078-4.852a6.61,6.61,0,0,1-.867,3.773A3.084,3.084,0,0,1,4.5.156,3.107,3.107,0,0,1,1.8-1.051,6.274,6.274,0,0,1,.9-4.656v-1.93a6.463,6.463,0,0,1,.867-3.727,3.108,3.108,0,0,1,2.719-1.219,3.136,3.136,0,0,1,2.7,1.176,6.237,6.237,0,0,1,.891,3.629ZM6.633-6.828A5.3,5.3,0,0,0,6.117-9.5a1.775,1.775,0,0,0-1.633-.84,1.751,1.751,0,0,0-1.617.836,5.171,5.171,0,0,0-.523,2.57v2.313A5.381,5.381,0,0,0,2.879-1.9,1.771,1.771,0,0,0,4.5-1.023a1.747,1.747,0,0,0,1.59-.828,5.186,5.186,0,0,0,.543-2.609Z" transform="translate(670.5 5965)" fill="#12263f"/>
    <path id="Trazado_900379" data-name="Trazado 900379" d="M8.078-4.852a6.61,6.61,0,0,1-.867,3.773A3.084,3.084,0,0,1,4.5.156,3.107,3.107,0,0,1,1.8-1.051,6.274,6.274,0,0,1,.9-4.656v-1.93a6.463,6.463,0,0,1,.867-3.727,3.108,3.108,0,0,1,2.719-1.219,3.136,3.136,0,0,1,2.7,1.176,6.237,6.237,0,0,1,.891,3.629ZM6.633-6.828A5.3,5.3,0,0,0,6.117-9.5a1.775,1.775,0,0,0-1.633-.84,1.751,1.751,0,0,0-1.617.836,5.171,5.171,0,0,0-.523,2.57v2.313A5.381,5.381,0,0,0,2.879-1.9,1.771,1.771,0,0,0,4.5-1.023a1.747,1.747,0,0,0,1.59-.828,5.186,5.186,0,0,0,.543-2.609Z" transform="translate(670.5 5996.359)" fill="#12263f"/>
    <path id="Trazado_900394" data-name="Trazado 900394" d="M5.7,0H4.242V-9.633L1.328-8.562V-9.875L5.469-11.43H5.7Z" transform="translate(670.5 6026.078)" fill="#12263f"/>
    <path id="Trazado_900402" data-name="Trazado 900402" d="M5.7,0H4.242V-9.633L1.328-8.562V-9.875L5.469-11.43H5.7Z" transform="translate(670.5 6059.078)" fill="#12263f"/>
    <path id="Trazado_900414" data-name="Trazado 900414" d="M8.078-4.852a6.61,6.61,0,0,1-.867,3.773A3.084,3.084,0,0,1,4.5.156,3.107,3.107,0,0,1,1.8-1.051,6.274,6.274,0,0,1,.9-4.656v-1.93a6.463,6.463,0,0,1,.867-3.727,3.108,3.108,0,0,1,2.719-1.219,3.136,3.136,0,0,1,2.7,1.176,6.237,6.237,0,0,1,.891,3.629ZM6.633-6.828A5.3,5.3,0,0,0,6.117-9.5a1.775,1.775,0,0,0-1.633-.84,1.751,1.751,0,0,0-1.617.836,5.171,5.171,0,0,0-.523,2.57v2.313A5.381,5.381,0,0,0,2.879-1.9,1.771,1.771,0,0,0,4.5-1.023a1.747,1.747,0,0,0,1.59-.828,5.186,5.186,0,0,0,.543-2.609Z" transform="translate(670.5 6088.797)" fill="#12263f"/>
    <path id="Trazado_900425" data-name="Trazado 900425" d="M5.7,0H4.242V-9.633L1.328-8.562V-9.875L5.469-11.43H5.7Z" transform="translate(670.5 6121.797)" fill="#12263f"/>
    <path id="Trazado_900434" data-name="Trazado 900434" d="M5.7,0H4.242V-9.633L1.328-8.562V-9.875L5.469-11.43H5.7Z" transform="translate(670.5 6150.797)" fill="#12263f"/>
    <path id="Trazado_900450" data-name="Trazado 900450" d="M5.7,0H4.242V-9.633L1.328-8.562V-9.875L5.469-11.43H5.7Z" transform="translate(670.5 6182.156)" fill="#12263f"/>
    <path id="Trazado_900380" data-name="Trazado 900380" d="M8.078-4.852a6.61,6.61,0,0,1-.867,3.773A3.084,3.084,0,0,1,4.5.156,3.107,3.107,0,0,1,1.8-1.051,6.274,6.274,0,0,1,.9-4.656v-1.93a6.463,6.463,0,0,1,.867-3.727,3.108,3.108,0,0,1,2.719-1.219,3.136,3.136,0,0,1,2.7,1.176,6.237,6.237,0,0,1,.891,3.629ZM6.633-6.828A5.3,5.3,0,0,0,6.117-9.5a1.775,1.775,0,0,0-1.633-.84,1.751,1.751,0,0,0-1.617.836,5.171,5.171,0,0,0-.523,2.57v2.313A5.381,5.381,0,0,0,2.879-1.9,1.771,1.771,0,0,0,4.5-1.023a1.747,1.747,0,0,0,1.59-.828,5.186,5.186,0,0,0,.543-2.609Z" transform="translate(810 5965)" fill="#12263f"/>
    <path id="Trazado_900383" data-name="Trazado 900383" d="M8.078-4.852a6.61,6.61,0,0,1-.867,3.773A3.084,3.084,0,0,1,4.5.156,3.107,3.107,0,0,1,1.8-1.051,6.274,6.274,0,0,1,.9-4.656v-1.93a6.463,6.463,0,0,1,.867-3.727,3.108,3.108,0,0,1,2.719-1.219,3.136,3.136,0,0,1,2.7,1.176,6.237,6.237,0,0,1,.891,3.629ZM6.633-6.828A5.3,5.3,0,0,0,6.117-9.5a1.775,1.775,0,0,0-1.633-.84,1.751,1.751,0,0,0-1.617.836,5.171,5.171,0,0,0-.523,2.57v2.313A5.381,5.381,0,0,0,2.879-1.9,1.771,1.771,0,0,0,4.5-1.023a1.747,1.747,0,0,0,1.59-.828,5.186,5.186,0,0,0,.543-2.609Z" transform="translate(874 5965)" fill="#12263f"/>
    <path id="Trazado_900389" data-name="Trazado 900389" d="M8.078-4.852a6.61,6.61,0,0,1-.867,3.773A3.084,3.084,0,0,1,4.5.156,3.107,3.107,0,0,1,1.8-1.051,6.274,6.274,0,0,1,.9-4.656v-1.93a6.463,6.463,0,0,1,.867-3.727,3.108,3.108,0,0,1,2.719-1.219,3.136,3.136,0,0,1,2.7,1.176,6.237,6.237,0,0,1,.891,3.629ZM6.633-6.828A5.3,5.3,0,0,0,6.117-9.5a1.775,1.775,0,0,0-1.633-.84,1.751,1.751,0,0,0-1.617.836,5.171,5.171,0,0,0-.523,2.57v2.313A5.381,5.381,0,0,0,2.879-1.9,1.771,1.771,0,0,0,4.5-1.023a1.747,1.747,0,0,0,1.59-.828,5.186,5.186,0,0,0,.543-2.609Z" transform="translate(932 5965)" fill="#12263f"/>
    <path id="Trazado_900381" data-name="Trazado 900381" d="M8.078-4.852a6.61,6.61,0,0,1-.867,3.773A3.084,3.084,0,0,1,4.5.156,3.107,3.107,0,0,1,1.8-1.051,6.274,6.274,0,0,1,.9-4.656v-1.93a6.463,6.463,0,0,1,.867-3.727,3.108,3.108,0,0,1,2.719-1.219,3.136,3.136,0,0,1,2.7,1.176,6.237,6.237,0,0,1,.891,3.629ZM6.633-6.828A5.3,5.3,0,0,0,6.117-9.5a1.775,1.775,0,0,0-1.633-.84,1.751,1.751,0,0,0-1.617.836,5.171,5.171,0,0,0-.523,2.57v2.313A5.381,5.381,0,0,0,2.879-1.9,1.771,1.771,0,0,0,4.5-1.023a1.747,1.747,0,0,0,1.59-.828,5.186,5.186,0,0,0,.543-2.609Z" transform="translate(810 5994.359)" fill="#12263f"/>
    <path id="Trazado_900384" data-name="Trazado 900384" d="M8.078-4.852a6.61,6.61,0,0,1-.867,3.773A3.084,3.084,0,0,1,4.5.156,3.107,3.107,0,0,1,1.8-1.051,6.274,6.274,0,0,1,.9-4.656v-1.93a6.463,6.463,0,0,1,.867-3.727,3.108,3.108,0,0,1,2.719-1.219,3.136,3.136,0,0,1,2.7,1.176,6.237,6.237,0,0,1,.891,3.629ZM6.633-6.828A5.3,5.3,0,0,0,6.117-9.5a1.775,1.775,0,0,0-1.633-.84,1.751,1.751,0,0,0-1.617.836,5.171,5.171,0,0,0-.523,2.57v2.313A5.381,5.381,0,0,0,2.879-1.9,1.771,1.771,0,0,0,4.5-1.023a1.747,1.747,0,0,0,1.59-.828,5.186,5.186,0,0,0,.543-2.609Z" transform="translate(874 5994.359)" fill="#12263f"/>
    <path id="Trazado_900390" data-name="Trazado 900390" d="M5.7,0H4.242V-9.633L1.328-8.562V-9.875L5.469-11.43H5.7Z" transform="translate(932 5994.359)" fill="#12263f"/>
    <path id="Trazado_900391" data-name="Trazado 900391" d="M8.078-4.852a6.61,6.61,0,0,1-.867,3.773A3.084,3.084,0,0,1,4.5.156,3.107,3.107,0,0,1,1.8-1.051,6.274,6.274,0,0,1,.9-4.656v-1.93a6.463,6.463,0,0,1,.867-3.727,3.108,3.108,0,0,1,2.719-1.219,3.136,3.136,0,0,1,2.7,1.176,6.237,6.237,0,0,1,.891,3.629ZM6.633-6.828A5.3,5.3,0,0,0,6.117-9.5a1.775,1.775,0,0,0-1.633-.84,1.751,1.751,0,0,0-1.617.836,5.171,5.171,0,0,0-.523,2.57v2.313A5.381,5.381,0,0,0,2.879-1.9,1.771,1.771,0,0,0,4.5-1.023a1.747,1.747,0,0,0,1.59-.828,5.186,5.186,0,0,0,.543-2.609Z" transform="translate(810 6025.078)" fill="#12263f"/>
    <path id="Trazado_900392" data-name="Trazado 900392" d="M5.7,0H4.242V-9.633L1.328-8.562V-9.875L5.469-11.43H5.7Z" transform="translate(874 6025.078)" fill="#12263f"/>
    <path id="Trazado_900393" data-name="Trazado 900393" d="M8.078-4.852a6.61,6.61,0,0,1-.867,3.773A3.084,3.084,0,0,1,4.5.156,3.107,3.107,0,0,1,1.8-1.051,6.274,6.274,0,0,1,.9-4.656v-1.93a6.463,6.463,0,0,1,.867-3.727,3.108,3.108,0,0,1,2.719-1.219,3.136,3.136,0,0,1,2.7,1.176,6.237,6.237,0,0,1,.891,3.629ZM6.633-6.828A5.3,5.3,0,0,0,6.117-9.5a1.775,1.775,0,0,0-1.633-.84,1.751,1.751,0,0,0-1.617.836,5.171,5.171,0,0,0-.523,2.57v2.313A5.381,5.381,0,0,0,2.879-1.9,1.771,1.771,0,0,0,4.5-1.023a1.747,1.747,0,0,0,1.59-.828,5.186,5.186,0,0,0,.543-2.609Z" transform="translate(932 6025.078)" fill="#12263f"/>
    <path id="Trazado_900403" data-name="Trazado 900403" d="M8.078-4.852a6.61,6.61,0,0,1-.867,3.773A3.084,3.084,0,0,1,4.5.156,3.107,3.107,0,0,1,1.8-1.051,6.274,6.274,0,0,1,.9-4.656v-1.93a6.463,6.463,0,0,1,.867-3.727,3.108,3.108,0,0,1,2.719-1.219,3.136,3.136,0,0,1,2.7,1.176,6.237,6.237,0,0,1,.891,3.629ZM6.633-6.828A5.3,5.3,0,0,0,6.117-9.5a1.775,1.775,0,0,0-1.633-.84,1.751,1.751,0,0,0-1.617.836,5.171,5.171,0,0,0-.523,2.57v2.313A5.381,5.381,0,0,0,2.879-1.9,1.771,1.771,0,0,0,4.5-1.023a1.747,1.747,0,0,0,1.59-.828,5.186,5.186,0,0,0,.543-2.609Z" transform="translate(810 6058.078)" fill="#12263f"/>
    <path id="Trazado_900404" data-name="Trazado 900404" d="M5.7,0H4.242V-9.633L1.328-8.562V-9.875L5.469-11.43H5.7Z" transform="translate(874 6058.078)" fill="#12263f"/>
    <path id="Trazado_900405" data-name="Trazado 900405" d="M5.7,0H4.242V-9.633L1.328-8.562V-9.875L5.469-11.43H5.7Z" transform="translate(932 6058.078)" fill="#12263f"/>
    <path id="Trazado_900415" data-name="Trazado 900415" d="M5.7,0H4.242V-9.633L1.328-8.562V-9.875L5.469-11.43H5.7Z" transform="translate(810 6089.438)" fill="#12263f"/>
    <path id="Trazado_900416" data-name="Trazado 900416" d="M8.078-4.852a6.61,6.61,0,0,1-.867,3.773A3.084,3.084,0,0,1,4.5.156,3.107,3.107,0,0,1,1.8-1.051,6.274,6.274,0,0,1,.9-4.656v-1.93a6.463,6.463,0,0,1,.867-3.727,3.108,3.108,0,0,1,2.719-1.219,3.136,3.136,0,0,1,2.7,1.176,6.237,6.237,0,0,1,.891,3.629ZM6.633-6.828A5.3,5.3,0,0,0,6.117-9.5a1.775,1.775,0,0,0-1.633-.84,1.751,1.751,0,0,0-1.617.836,5.171,5.171,0,0,0-.523,2.57v2.313A5.381,5.381,0,0,0,2.879-1.9,1.771,1.771,0,0,0,4.5-1.023a1.747,1.747,0,0,0,1.59-.828,5.186,5.186,0,0,0,.543-2.609Z" transform="translate(874 6089.438)" fill="#12263f"/>
    <path id="Trazado_900417" data-name="Trazado 900417" d="M8.078-4.852a6.61,6.61,0,0,1-.867,3.773A3.084,3.084,0,0,1,4.5.156,3.107,3.107,0,0,1,1.8-1.051,6.274,6.274,0,0,1,.9-4.656v-1.93a6.463,6.463,0,0,1,.867-3.727,3.108,3.108,0,0,1,2.719-1.219,3.136,3.136,0,0,1,2.7,1.176,6.237,6.237,0,0,1,.891,3.629ZM6.633-6.828A5.3,5.3,0,0,0,6.117-9.5a1.775,1.775,0,0,0-1.633-.84,1.751,1.751,0,0,0-1.617.836,5.171,5.171,0,0,0-.523,2.57v2.313A5.381,5.381,0,0,0,2.879-1.9,1.771,1.771,0,0,0,4.5-1.023a1.747,1.747,0,0,0,1.59-.828,5.186,5.186,0,0,0,.543-2.609Z" transform="translate(932 6089.438)" fill="#12263f"/>
    <path id="Trazado_900426" data-name="Trazado 900426" d="M5.7,0H4.242V-9.633L1.328-8.562V-9.875L5.469-11.43H5.7Z" transform="translate(810 6120.797)" fill="#12263f"/>
    <path id="Trazado_900427" data-name="Trazado 900427" d="M8.078-4.852a6.61,6.61,0,0,1-.867,3.773A3.084,3.084,0,0,1,4.5.156,3.107,3.107,0,0,1,1.8-1.051,6.274,6.274,0,0,1,.9-4.656v-1.93a6.463,6.463,0,0,1,.867-3.727,3.108,3.108,0,0,1,2.719-1.219,3.136,3.136,0,0,1,2.7,1.176,6.237,6.237,0,0,1,.891,3.629ZM6.633-6.828A5.3,5.3,0,0,0,6.117-9.5a1.775,1.775,0,0,0-1.633-.84,1.751,1.751,0,0,0-1.617.836,5.171,5.171,0,0,0-.523,2.57v2.313A5.381,5.381,0,0,0,2.879-1.9,1.771,1.771,0,0,0,4.5-1.023a1.747,1.747,0,0,0,1.59-.828,5.186,5.186,0,0,0,.543-2.609Z" transform="translate(874 6120.797)" fill="#12263f"/>
    <path id="Trazado_900428" data-name="Trazado 900428" d="M5.7,0H4.242V-9.633L1.328-8.562V-9.875L5.469-11.43H5.7Z" transform="translate(932 6120.797)" fill="#12263f"/>
    <path id="Trazado_900435" data-name="Trazado 900435" d="M5.7,0H4.242V-9.633L1.328-8.562V-9.875L5.469-11.43H5.7Z" transform="translate(810 6152.156)" fill="#12263f"/>
    <path id="Trazado_900436" data-name="Trazado 900436" d="M5.7,0H4.242V-9.633L1.328-8.562V-9.875L5.469-11.43H5.7Z" transform="translate(874 6152.156)" fill="#12263f"/>
    <path id="Trazado_900437" data-name="Trazado 900437" d="M8.078-4.852a6.61,6.61,0,0,1-.867,3.773A3.084,3.084,0,0,1,4.5.156,3.107,3.107,0,0,1,1.8-1.051,6.274,6.274,0,0,1,.9-4.656v-1.93a6.463,6.463,0,0,1,.867-3.727,3.108,3.108,0,0,1,2.719-1.219,3.136,3.136,0,0,1,2.7,1.176,6.237,6.237,0,0,1,.891,3.629ZM6.633-6.828A5.3,5.3,0,0,0,6.117-9.5a1.775,1.775,0,0,0-1.633-.84,1.751,1.751,0,0,0-1.617.836,5.171,5.171,0,0,0-.523,2.57v2.313A5.381,5.381,0,0,0,2.879-1.9,1.771,1.771,0,0,0,4.5-1.023a1.747,1.747,0,0,0,1.59-.828,5.186,5.186,0,0,0,.543-2.609Z" transform="translate(932 6152.156)" fill="#12263f"/>
    <path id="Trazado_900451" data-name="Trazado 900451" d="M5.7,0H4.242V-9.633L1.328-8.562V-9.875L5.469-11.43H5.7Z" transform="translate(810 6183.516)" fill="#12263f"/>
    <path id="Trazado_900452" data-name="Trazado 900452" d="M5.7,0H4.242V-9.633L1.328-8.562V-9.875L5.469-11.43H5.7Z" transform="translate(874 6183.516)" fill="#12263f"/>
    <path id="Trazado_900453" data-name="Trazado 900453" d="M5.7,0H4.242V-9.633L1.328-8.562V-9.875L5.469-11.43H5.7Z" transform="translate(932 6183.516)" fill="#12263f"/>
    <path id="Trazado_900407" data-name="Trazado 900407" d="M8.078-4.852a6.61,6.61,0,0,1-.867,3.773A3.084,3.084,0,0,1,4.5.156,3.107,3.107,0,0,1,1.8-1.051,6.274,6.274,0,0,1,.9-4.656v-1.93a6.463,6.463,0,0,1,.867-3.727,3.108,3.108,0,0,1,2.719-1.219,3.136,3.136,0,0,1,2.7,1.176,6.237,6.237,0,0,1,.891,3.629ZM6.633-6.828A5.3,5.3,0,0,0,6.117-9.5a1.775,1.775,0,0,0-1.633-.84,1.751,1.751,0,0,0-1.617.836,5.171,5.171,0,0,0-.523,2.57v2.313A5.381,5.381,0,0,0,2.879-1.9,1.771,1.771,0,0,0,4.5-1.023a1.747,1.747,0,0,0,1.59-.828,5.186,5.186,0,0,0,.543-2.609Z" transform="translate(1029.5 5965)" fill="#12263f"/>
    <path id="Trazado_900408" data-name="Trazado 900408" d="M8.078-4.852a6.61,6.61,0,0,1-.867,3.773A3.084,3.084,0,0,1,4.5.156,3.107,3.107,0,0,1,1.8-1.051,6.274,6.274,0,0,1,.9-4.656v-1.93a6.463,6.463,0,0,1,.867-3.727,3.108,3.108,0,0,1,2.719-1.219,3.136,3.136,0,0,1,2.7,1.176,6.237,6.237,0,0,1,.891,3.629ZM6.633-6.828A5.3,5.3,0,0,0,6.117-9.5a1.775,1.775,0,0,0-1.633-.84,1.751,1.751,0,0,0-1.617.836,5.171,5.171,0,0,0-.523,2.57v2.313A5.381,5.381,0,0,0,2.879-1.9,1.771,1.771,0,0,0,4.5-1.023a1.747,1.747,0,0,0,1.59-.828,5.186,5.186,0,0,0,.543-2.609Z" transform="translate(1029.5 5994.719)" fill="#12263f"/>
    <path id="Trazado_900409" data-name="Trazado 900409" d="M8.078-4.852a6.61,6.61,0,0,1-.867,3.773A3.084,3.084,0,0,1,4.5.156,3.107,3.107,0,0,1,1.8-1.051,6.274,6.274,0,0,1,.9-4.656v-1.93a6.463,6.463,0,0,1,.867-3.727,3.108,3.108,0,0,1,2.719-1.219,3.136,3.136,0,0,1,2.7,1.176,6.237,6.237,0,0,1,.891,3.629ZM6.633-6.828A5.3,5.3,0,0,0,6.117-9.5a1.775,1.775,0,0,0-1.633-.84,1.751,1.751,0,0,0-1.617.836,5.171,5.171,0,0,0-.523,2.57v2.313A5.381,5.381,0,0,0,2.879-1.9,1.771,1.771,0,0,0,4.5-1.023a1.747,1.747,0,0,0,1.59-.828,5.186,5.186,0,0,0,.543-2.609Z" transform="translate(1029.5 6025.719)" fill="#12263f"/>
    <path id="Trazado_900410" data-name="Trazado 900410" d="M8.078-4.852a6.61,6.61,0,0,1-.867,3.773A3.084,3.084,0,0,1,4.5.156,3.107,3.107,0,0,1,1.8-1.051,6.274,6.274,0,0,1,.9-4.656v-1.93a6.463,6.463,0,0,1,.867-3.727,3.108,3.108,0,0,1,2.719-1.219,3.136,3.136,0,0,1,2.7,1.176,6.237,6.237,0,0,1,.891,3.629ZM6.633-6.828A5.3,5.3,0,0,0,6.117-9.5a1.775,1.775,0,0,0-1.633-.84,1.751,1.751,0,0,0-1.617.836,5.171,5.171,0,0,0-.523,2.57v2.313A5.381,5.381,0,0,0,2.879-1.9,1.771,1.771,0,0,0,4.5-1.023a1.747,1.747,0,0,0,1.59-.828,5.186,5.186,0,0,0,.543-2.609Z" transform="translate(1029.5 6057.438)" fill="#12263f"/>
    <path id="Trazado_900418" data-name="Trazado 900418" d="M8.078-4.852a6.61,6.61,0,0,1-.867,3.773A3.084,3.084,0,0,1,4.5.156,3.107,3.107,0,0,1,1.8-1.051,6.274,6.274,0,0,1,.9-4.656v-1.93a6.463,6.463,0,0,1,.867-3.727,3.108,3.108,0,0,1,2.719-1.219,3.136,3.136,0,0,1,2.7,1.176,6.237,6.237,0,0,1,.891,3.629ZM6.633-6.828A5.3,5.3,0,0,0,6.117-9.5a1.775,1.775,0,0,0-1.633-.84,1.751,1.751,0,0,0-1.617.836,5.171,5.171,0,0,0-.523,2.57v2.313A5.381,5.381,0,0,0,2.879-1.9,1.771,1.771,0,0,0,4.5-1.023a1.747,1.747,0,0,0,1.59-.828,5.186,5.186,0,0,0,.543-2.609Z" transform="translate(1029.5 6088.438)" fill="#12263f"/>
    <path id="Trazado_900429" data-name="Trazado 900429" d="M5.7,0H4.242V-9.633L1.328-8.562V-9.875L5.469-11.43H5.7Z" transform="translate(1029.5 6119.797)" fill="#12263f"/>
    <path id="Trazado_900438" data-name="Trazado 900438" d="M8.078-4.852a6.61,6.61,0,0,1-.867,3.773A3.084,3.084,0,0,1,4.5.156,3.107,3.107,0,0,1,1.8-1.051,6.274,6.274,0,0,1,.9-4.656v-1.93a6.463,6.463,0,0,1,.867-3.727,3.108,3.108,0,0,1,2.719-1.219,3.136,3.136,0,0,1,2.7,1.176,6.237,6.237,0,0,1,.891,3.629ZM6.633-6.828A5.3,5.3,0,0,0,6.117-9.5a1.775,1.775,0,0,0-1.633-.84,1.751,1.751,0,0,0-1.617.836,5.171,5.171,0,0,0-.523,2.57v2.313A5.381,5.381,0,0,0,2.879-1.9,1.771,1.771,0,0,0,4.5-1.023a1.747,1.747,0,0,0,1.59-.828,5.186,5.186,0,0,0,.543-2.609Z" transform="translate(1029.5 6151.516)" fill="#12263f"/>
    <path id="Trazado_900454" data-name="Trazado 900454" d="M5.7,0H4.242V-9.633L1.328-8.562V-9.875L5.469-11.43H5.7Z" transform="translate(1029.5 6182.516)" fill="#12263f"/>
    <path id="Trazado_900440" data-name="Trazado 900440" d="M8.078-4.852a6.61,6.61,0,0,1-.867,3.773A3.084,3.084,0,0,1,4.5.156,3.107,3.107,0,0,1,1.8-1.051,6.274,6.274,0,0,1,.9-4.656v-1.93a6.463,6.463,0,0,1,.867-3.727,3.108,3.108,0,0,1,2.719-1.219,3.136,3.136,0,0,1,2.7,1.176,6.237,6.237,0,0,1,.891,3.629ZM6.633-6.828A5.3,5.3,0,0,0,6.117-9.5a1.775,1.775,0,0,0-1.633-.84,1.751,1.751,0,0,0-1.617.836,5.171,5.171,0,0,0-.523,2.57v2.313A5.381,5.381,0,0,0,2.879-1.9,1.771,1.771,0,0,0,4.5-1.023a1.747,1.747,0,0,0,1.59-.828,5.186,5.186,0,0,0,.543-2.609Z" transform="translate(1148 5965)" fill="#12263f"/>
    <path id="Trazado_900441" data-name="Trazado 900441" d="M8.078-4.852a6.61,6.61,0,0,1-.867,3.773A3.084,3.084,0,0,1,4.5.156,3.107,3.107,0,0,1,1.8-1.051,6.274,6.274,0,0,1,.9-4.656v-1.93a6.463,6.463,0,0,1,.867-3.727,3.108,3.108,0,0,1,2.719-1.219,3.136,3.136,0,0,1,2.7,1.176,6.237,6.237,0,0,1,.891,3.629ZM6.633-6.828A5.3,5.3,0,0,0,6.117-9.5a1.775,1.775,0,0,0-1.633-.84,1.751,1.751,0,0,0-1.617.836,5.171,5.171,0,0,0-.523,2.57v2.313A5.381,5.381,0,0,0,2.879-1.9,1.771,1.771,0,0,0,4.5-1.023a1.747,1.747,0,0,0,1.59-.828,5.186,5.186,0,0,0,.543-2.609Z" transform="translate(1148 5994.719)" fill="#12263f"/>
    <path id="Trazado_900442" data-name="Trazado 900442" d="M8.078-4.852a6.61,6.61,0,0,1-.867,3.773A3.084,3.084,0,0,1,4.5.156,3.107,3.107,0,0,1,1.8-1.051,6.274,6.274,0,0,1,.9-4.656v-1.93a6.463,6.463,0,0,1,.867-3.727,3.108,3.108,0,0,1,2.719-1.219,3.136,3.136,0,0,1,2.7,1.176,6.237,6.237,0,0,1,.891,3.629ZM6.633-6.828A5.3,5.3,0,0,0,6.117-9.5a1.775,1.775,0,0,0-1.633-.84,1.751,1.751,0,0,0-1.617.836,5.171,5.171,0,0,0-.523,2.57v2.313A5.381,5.381,0,0,0,2.879-1.9,1.771,1.771,0,0,0,4.5-1.023a1.747,1.747,0,0,0,1.59-.828,5.186,5.186,0,0,0,.543-2.609Z" transform="translate(1148 6025.719)" fill="#12263f"/>
    <path id="Trazado_900443" data-name="Trazado 900443" d="M8.078-4.852a6.61,6.61,0,0,1-.867,3.773A3.084,3.084,0,0,1,4.5.156,3.107,3.107,0,0,1,1.8-1.051,6.274,6.274,0,0,1,.9-4.656v-1.93a6.463,6.463,0,0,1,.867-3.727,3.108,3.108,0,0,1,2.719-1.219,3.136,3.136,0,0,1,2.7,1.176,6.237,6.237,0,0,1,.891,3.629ZM6.633-6.828A5.3,5.3,0,0,0,6.117-9.5a1.775,1.775,0,0,0-1.633-.84,1.751,1.751,0,0,0-1.617.836,5.171,5.171,0,0,0-.523,2.57v2.313A5.381,5.381,0,0,0,2.879-1.9,1.771,1.771,0,0,0,4.5-1.023a1.747,1.747,0,0,0,1.59-.828,5.186,5.186,0,0,0,.543-2.609Z" transform="translate(1148 6057.438)" fill="#12263f"/>
    <path id="Trazado_900444" data-name="Trazado 900444" d="M8.078-4.852a6.61,6.61,0,0,1-.867,3.773A3.084,3.084,0,0,1,4.5.156,3.107,3.107,0,0,1,1.8-1.051,6.274,6.274,0,0,1,.9-4.656v-1.93a6.463,6.463,0,0,1,.867-3.727,3.108,3.108,0,0,1,2.719-1.219,3.136,3.136,0,0,1,2.7,1.176,6.237,6.237,0,0,1,.891,3.629ZM6.633-6.828A5.3,5.3,0,0,0,6.117-9.5a1.775,1.775,0,0,0-1.633-.84,1.751,1.751,0,0,0-1.617.836,5.171,5.171,0,0,0-.523,2.57v2.313A5.381,5.381,0,0,0,2.879-1.9,1.771,1.771,0,0,0,4.5-1.023a1.747,1.747,0,0,0,1.59-.828,5.186,5.186,0,0,0,.543-2.609Z" transform="translate(1148 6088.438)" fill="#12263f"/>
    <path id="Trazado_900445" data-name="Trazado 900445" d="M5.7,0H4.242V-9.633L1.328-8.562V-9.875L5.469-11.43H5.7Z" transform="translate(1148 6119.797)" fill="#12263f"/>
    <path id="Trazado_900446" data-name="Trazado 900446" d="M8.078-4.852a6.61,6.61,0,0,1-.867,3.773A3.084,3.084,0,0,1,4.5.156,3.107,3.107,0,0,1,1.8-1.051,6.274,6.274,0,0,1,.9-4.656v-1.93a6.463,6.463,0,0,1,.867-3.727,3.108,3.108,0,0,1,2.719-1.219,3.136,3.136,0,0,1,2.7,1.176,6.237,6.237,0,0,1,.891,3.629ZM6.633-6.828A5.3,5.3,0,0,0,6.117-9.5a1.775,1.775,0,0,0-1.633-.84,1.751,1.751,0,0,0-1.617.836,5.171,5.171,0,0,0-.523,2.57v2.313A5.381,5.381,0,0,0,2.879-1.9,1.771,1.771,0,0,0,4.5-1.023a1.747,1.747,0,0,0,1.59-.828,5.186,5.186,0,0,0,.543-2.609Z" transform="translate(1148 6151.516)" fill="#12263f"/>
    <path id="Trazado_900455" data-name="Trazado 900455" d="M5.7,0H4.242V-9.633L1.328-8.562V-9.875L5.469-11.43H5.7Z" transform="translate(1148 6182.516)" fill="#12263f"/>
    <path id="Trazado_900243" data-name="Trazado 900243" d="M-7979.051-5404.6v30.359h220" transform="translate(8654.051 11608)" fill="none" stroke="#000" stroke-width="1"/>
    <path id="Trazado_900244" data-name="Trazado 900244" d="M-7832.051-5404.6v30.359h-147" transform="translate(8989.051 11608)" fill="none" stroke="#000" stroke-width="1"/>
    <g id="Trazado_900456" data-name="Trazado 900456" transform="translate(936.051 6223)">
      <path d="M 32.5 8.5 L 0.5 8.5 L 0.5 0.5 L 32.5 0.5 L 32.5 8.5 Z" stroke="none"/>
      <path d="M 1 1 L 1 8 L 32 8 L 32 1 L 1 1 M 0 0 L 33 0 L 33 9 L 0 9 L 0 0 Z" stroke="none" fill="#000"/>
    </g>
    <g id="Trazado_900457" data-name="Trazado 900457" transform="translate(936.051 6235)">
      <path d="M 32.5 8.5 L 0.5 8.5 L 0.5 0.5 L 32.5 0.5 L 32.5 8.5 Z" stroke="none"/>
      <path d="M 1 1 L 1 8 L 32 8 L 32 1 L 1 1 M 0 0 L 33 0 L 33 9 L 0 9 L 0 0 Z" stroke="none" fill="#000"/>
    </g>
  </g>
</svg>
