<svg xmlns="http://www.w3.org/2000/svg" width="1030" height="408" viewBox="0 0 1030 408">
  <g id="Grupo_1113115" data-name="Grupo 1113115" transform="translate(-285.051 -14385)">
    <rect id="Rectángulo_406559" data-name="Rectángulo 406559" width="1030" height="408" transform="translate(285.051 14385)" fill="#e9f7ef"/>
    <path id="Trazado_900392" data-name="Trazado 900392" d="M7.6-2.977H2.836L1.766,0H.219L4.563-11.375H5.875L10.227,0H8.688ZM3.289-4.2H7.156L5.219-9.523Z" transform="translate(473 14490.078)" fill="#12263f"/>
    <rect id="Rectángulo_406569" data-name="Rectángulo 406569" width="12" height="12" transform="translate(473 14455.078)" fill="#905aae"/>
    <rect id="Rectángulo_406570" data-name="Rectángulo 406570" width="24" height="24" transform="translate(427.922 14584.795)" fill="#905aae"/>
    <text id="_14" data-name="14" transform="translate(430.922 14602.295)" fill="#fff" font-size="16" font-family="Roboto-Regular, Roboto"><tspan x="0" y="0">14</tspan></text>
    <rect id="Rectángulo_406571" data-name="Rectángulo 406571" width="24" height="24" transform="translate(465.871 14584.795)" fill="#905aae"/>
    <text id="_13" data-name="13" transform="translate(468.871 14602.295)" fill="#fff" font-size="16" font-family="Roboto-Regular, Roboto"><tspan x="0" y="0">13</tspan></text>
    <rect id="Rectángulo_406572" data-name="Rectángulo 406572" width="24" height="24" transform="translate(505.871 14584.795)" fill="#905aae"/>
    <text id="_12" data-name="12" transform="translate(508.871 14602.295)" fill="#fff" font-size="16" font-family="Roboto-Regular, Roboto"><tspan x="0" y="0">12</tspan></text>
    <rect id="Rectángulo_406573" data-name="Rectángulo 406573" width="24" height="24" transform="translate(545.871 14584.795)" fill="#905aae"/>
    <text id="_11" data-name="11" transform="translate(548.871 14602.295)" fill="#fff" font-size="16" font-family="Roboto-Regular, Roboto"><tspan x="0" y="0">11</tspan></text>
    <rect id="Rectángulo_406574" data-name="Rectángulo 406574" width="24" height="24" transform="translate(584.871 14584.795)" fill="#905aae"/>
    <text id="_10" data-name="10" transform="translate(587.871 14602.295)" fill="#fff" font-size="16" font-family="Roboto-Regular, Roboto"><tspan x="0" y="0">10</tspan></text>
    <rect id="Rectángulo_406575" data-name="Rectángulo 406575" width="24" height="24" transform="translate(622.871 14584.795)" fill="#905aae"/>
    <text id="_9" data-name="9" transform="translate(629.871 14602.295)" fill="#fff" font-size="16" font-family="Roboto-Regular, Roboto"><tspan x="0" y="0">9</tspan></text>
    <rect id="Rectángulo_406576" data-name="Rectángulo 406576" width="24" height="24" transform="translate(660.871 14584.795)" fill="#905aae"/>
    <text id="_8" data-name="8" transform="translate(668.871 14602.295)" fill="#fff" font-size="16" font-family="Roboto-Regular, Roboto"><tspan x="0" y="0">8</tspan></text>
    <rect id="Rectángulo_406577" data-name="Rectángulo 406577" width="24" height="24" transform="translate(427.922 14692.795)" fill="#905aae"/>
    <text id="_1" data-name="1" transform="translate(435.922 14710.295)" fill="#fff" font-size="16" font-family="Roboto-Regular, Roboto"><tspan x="0" y="0">1</tspan></text>
    <rect id="Rectángulo_406578" data-name="Rectángulo 406578" width="24" height="24" transform="translate(465.871 14692.795)" fill="#905aae"/>
    <text id="_2" data-name="2" transform="translate(472.871 14710.295)" fill="#fff" font-size="16" font-family="Roboto-Regular, Roboto"><tspan x="0" y="0">2</tspan></text>
    <rect id="Rectángulo_406579" data-name="Rectángulo 406579" width="24" height="24" transform="translate(505.871 14692.795)" fill="#905aae"/>
    <text id="_3" data-name="3" transform="translate(513.871 14710.295)" fill="#fff" font-size="16" font-family="Roboto-Regular, Roboto"><tspan x="0" y="0">3</tspan></text>
    <rect id="Rectángulo_406580" data-name="Rectángulo 406580" width="24" height="24" transform="translate(545.871 14692.795)" fill="#905aae"/>
    <text id="_4" data-name="4" transform="translate(552.871 14710.295)" fill="#fff" font-size="16" font-family="Roboto-Regular, Roboto"><tspan x="0" y="0">4</tspan></text>
    <rect id="Rectángulo_406581" data-name="Rectángulo 406581" width="24" height="24" transform="translate(584.871 14692.795)" fill="#905aae"/>
    <text id="_5" data-name="5" transform="translate(591.871 14710.295)" fill="#fff" font-size="16" font-family="Roboto-Regular, Roboto"><tspan x="0" y="0">5</tspan></text>
    <rect id="Rectángulo_406582" data-name="Rectángulo 406582" width="24" height="24" transform="translate(622.871 14692.795)" fill="#905aae"/>
    <text id="_6" data-name="6" transform="translate(629.871 14710.295)" fill="#fff" font-size="16" font-family="Roboto-Regular, Roboto"><tspan x="0" y="0">6</tspan></text>
    <rect id="Rectángulo_406583" data-name="Rectángulo 406583" width="24" height="24" transform="translate(660.871 14692.795)" fill="#905aae"/>
    <text id="_7" data-name="7" transform="translate(668.871 14710.295)" fill="#fff" font-size="16" font-family="Roboto-Regular, Roboto"><tspan x="0" y="0">7</tspan></text>
    <rect id="Rectángulo_406584" data-name="Rectángulo 406584" width="24" height="24" transform="translate(773.051 14584.795)" fill="#905aae"/>
    <text id="_14-2" data-name="14" transform="translate(776.051 14602.295)" fill="#fff" font-size="16" font-family="Roboto-Regular, Roboto"><tspan x="0" y="0">14</tspan></text>
    <rect id="Rectángulo_406585" data-name="Rectángulo 406585" width="24" height="24" transform="translate(811 14584.795)" fill="#905aae"/>
    <text id="_13-2" data-name="13" transform="translate(814 14602.295)" fill="#fff" font-size="16" font-family="Roboto-Regular, Roboto"><tspan x="0" y="0">13</tspan></text>
    <rect id="Rectángulo_406586" data-name="Rectángulo 406586" width="24" height="24" transform="translate(851 14584.795)" fill="#905aae"/>
    <text id="_12-2" data-name="12" transform="translate(854 14602.295)" fill="#fff" font-size="16" font-family="Roboto-Regular, Roboto"><tspan x="0" y="0">12</tspan></text>
    <rect id="Rectángulo_406587" data-name="Rectángulo 406587" width="24" height="24" transform="translate(891 14584.795)" fill="#905aae"/>
    <text id="_11-2" data-name="11" transform="translate(894 14602.295)" fill="#fff" font-size="16" font-family="Roboto-Regular, Roboto"><tspan x="0" y="0">11</tspan></text>
    <rect id="Rectángulo_406588" data-name="Rectángulo 406588" width="24" height="24" transform="translate(930 14584.795)" fill="#905aae"/>
    <text id="_10-2" data-name="10" transform="translate(933 14602.295)" fill="#fff" font-size="16" font-family="Roboto-Regular, Roboto"><tspan x="0" y="0">10</tspan></text>
    <rect id="Rectángulo_406589" data-name="Rectángulo 406589" width="24" height="24" transform="translate(968 14584.795)" fill="#905aae"/>
    <text id="_9-2" data-name="9" transform="translate(975 14602.295)" fill="#fff" font-size="16" font-family="Roboto-Regular, Roboto"><tspan x="0" y="0">9</tspan></text>
    <rect id="Rectángulo_406590" data-name="Rectángulo 406590" width="24" height="24" transform="translate(1006 14584.795)" fill="#905aae"/>
    <text id="_8-2" data-name="8" transform="translate(1014 14602.295)" fill="#fff" font-size="16" font-family="Roboto-Regular, Roboto"><tspan x="0" y="0">8</tspan></text>
    <rect id="Rectángulo_406591" data-name="Rectángulo 406591" width="24" height="24" transform="translate(773.051 14692.795)" fill="#905aae"/>
    <text id="_1-2" data-name="1" transform="translate(781.051 14710.295)" fill="#fff" font-size="16" font-family="Roboto-Regular, Roboto"><tspan x="0" y="0">1</tspan></text>
    <rect id="Rectángulo_406592" data-name="Rectángulo 406592" width="24" height="24" transform="translate(811 14692.795)" fill="#905aae"/>
    <text id="_2-2" data-name="2" transform="translate(818 14710.295)" fill="#fff" font-size="16" font-family="Roboto-Regular, Roboto"><tspan x="0" y="0">2</tspan></text>
    <rect id="Rectángulo_406593" data-name="Rectángulo 406593" width="24" height="24" transform="translate(851 14692.795)" fill="#905aae"/>
    <text id="_3-2" data-name="3" transform="translate(859 14710.295)" fill="#fff" font-size="16" font-family="Roboto-Regular, Roboto"><tspan x="0" y="0">3</tspan></text>
    <rect id="Rectángulo_406594" data-name="Rectángulo 406594" width="24" height="24" transform="translate(891 14692.795)" fill="#905aae"/>
    <text id="_4-2" data-name="4" transform="translate(898 14710.295)" fill="#fff" font-size="16" font-family="Roboto-Regular, Roboto"><tspan x="0" y="0">4</tspan></text>
    <rect id="Rectángulo_406595" data-name="Rectángulo 406595" width="24" height="24" transform="translate(930 14692.795)" fill="#905aae"/>
    <text id="_5-2" data-name="5" transform="translate(937 14710.295)" fill="#fff" font-size="16" font-family="Roboto-Regular, Roboto"><tspan x="0" y="0">5</tspan></text>
    <rect id="Rectángulo_406596" data-name="Rectángulo 406596" width="24" height="24" transform="translate(968 14692.795)" fill="#905aae"/>
    <text id="_6-2" data-name="6" transform="translate(975 14710.295)" fill="#fff" font-size="16" font-family="Roboto-Regular, Roboto"><tspan x="0" y="0">6</tspan></text>
    <rect id="Rectángulo_406597" data-name="Rectángulo 406597" width="24" height="24" transform="translate(1006 14692.795)" fill="#905aae"/>
    <text id="_7-2" data-name="7" transform="translate(1014 14710.295)" fill="#fff" font-size="16" font-family="Roboto-Regular, Roboto"><tspan x="0" y="0">7</tspan></text>
    <path id="Trazado_900303" data-name="Trazado 900303" d="M-8329.818,2943.822v-29.67h290.9V2998.4h-290.9v-34.407" transform="translate(8743.922 11694)" fill="none" stroke="#905aae" stroke-width="1"/>
    <path id="Trazado_900304" data-name="Trazado 900304" d="M-8324.936,2946.059s15.886,10.671,0,20.868" transform="translate(8739.039 11691.515)" fill="none" stroke="#905aae" stroke-width="1"/>
    <path id="Polígono_8" data-name="Polígono 8" d="M7.12,0l7.12,12.945H0Z" transform="translate(505.871 14621.119) rotate(90)" fill="#905aae"/>
    <path id="Polígono_9" data-name="Polígono 9" d="M7.12,0l7.12,12.945H0Z" transform="translate(584.871 14621.119) rotate(90)" fill="#905aae"/>
    <path id="Polígono_10" data-name="Polígono 10" d="M7.12,0l7.12,12.945H0Z" transform="translate(659.816 14621.119) rotate(90)" fill="#905aae"/>
    <path id="Polígono_11" data-name="Polígono 11" d="M7.12,0l7.12,12.945H0Z" transform="translate(464.867 14665.983) rotate(90)" fill="#905aae"/>
    <path id="Polígono_12" data-name="Polígono 12" d="M7.12,0l7.12,12.945H0Z" transform="translate(542.816 14664.983) rotate(90)" fill="#905aae"/>
    <path id="Polígono_13" data-name="Polígono 13" d="M7.12,0l7.12,12.945H0Z" transform="translate(620.766 14664.983) rotate(90)" fill="#905aae"/>
    <path id="Trazado_900305" data-name="Trazado 900305" d="M-8305.852,2998.4v-19.445h38.071V2998.4" transform="translate(8743.922 11694)" fill="none" stroke="#905aae" stroke-width="1"/>
    <circle id="Elipse_11659" data-name="Elipse 11659" cx="2.75" cy="2.75" r="2.75" transform="translate(464.371 14670.104)" fill="#905aae"/>
    <path id="Trazado_900306" data-name="Trazado 900306" d="M-8305.852,2998.4v-19.445h38.071V2998.4" transform="translate(8823.16 11694)" fill="none" stroke="#905aae" stroke-width="1"/>
    <circle id="Elipse_11660" data-name="Elipse 11660" cx="2.75" cy="2.75" r="2.75" transform="translate(543.371 14670.104)" fill="#905aae"/>
    <path id="Trazado_900307" data-name="Trazado 900307" d="M-8305.852,2998.4v-19.445h38.071V2998.4" transform="translate(8902.16 11694)" fill="none" stroke="#905aae" stroke-width="1"/>
    <circle id="Elipse_11661" data-name="Elipse 11661" cx="2.75" cy="2.75" r="2.75" transform="translate(622.871 14670.104)" fill="#905aae"/>
    <path id="Trazado_900308" data-name="Trazado 900308" d="M-8305.852,2978.956V2998.4h38.071v-19.445" transform="translate(8785.723 11629.839)" fill="none" stroke="#905aae" stroke-width="1"/>
    <circle id="Elipse_11662" data-name="Elipse 11662" cx="2.75" cy="2.75" r="2.75" transform="translate(505.426 14625.983)" fill="#905aae"/>
    <path id="Trazado_900309" data-name="Trazado 900309" d="M-8305.852,2978.956V2998.4h38.071v-19.445" transform="translate(8864.089 11629.839)" fill="none" stroke="#905aae" stroke-width="1"/>
    <circle id="Elipse_11663" data-name="Elipse 11663" cx="2.75" cy="2.75" r="2.75" transform="translate(584.871 14625.983)" fill="#905aae"/>
    <path id="Trazado_900310" data-name="Trazado 900310" d="M-8305.852,2978.956V2998.4h38.071v-19.445" transform="translate(8941.151 11629.839)" fill="none" stroke="#905aae" stroke-width="1"/>
    <circle id="Elipse_11664" data-name="Elipse 11664" cx="2.75" cy="2.75" r="2.75" transform="translate(660.871 14625.983)" fill="#905aae"/>
    <path id="Trazado_900404" data-name="Trazado 900404" d="M7.253-9.242,3.131,0H1.8L5.913-8.914H.526V-9.953H7.253Zm7.677,5a5.784,5.784,0,0,1-.759,3.3A2.7,2.7,0,0,1,11.8.137,2.718,2.718,0,0,1,9.44-.919a5.49,5.49,0,0,1-.793-3.155V-5.763a5.655,5.655,0,0,1,.759-3.261,2.719,2.719,0,0,1,2.379-1.066A2.744,2.744,0,0,1,14.15-9.061a5.458,5.458,0,0,1,.779,3.175ZM13.665-5.975a4.634,4.634,0,0,0-.451-2.341,1.553,1.553,0,0,0-1.429-.735,1.532,1.532,0,0,0-1.415.731A4.525,4.525,0,0,0,9.912-6.07v2.023a4.708,4.708,0,0,0,.468,2.382A1.55,1.55,0,0,0,11.8-.9,1.529,1.529,0,0,0,13.19-1.62,4.538,4.538,0,0,0,13.665-3.9Zm8.224,2.632H23.27v1.032H21.889V0H20.617V-2.311H16.085v-.745l4.457-6.9h1.347Zm-4.368,0h3.1V-8.224l-.15.273ZM31.138-4.437A6.172,6.172,0,0,1,28.68-5.629a2.279,2.279,0,0,1-.769-1.747,2.408,2.408,0,0,1,.94-1.945,3.736,3.736,0,0,1,2.444-.769,4.078,4.078,0,0,1,1.829.4A3.007,3.007,0,0,1,34.368-8.6a2.8,2.8,0,0,1,.441,1.524H33.489A1.82,1.82,0,0,0,32.915-8.5a2.335,2.335,0,0,0-1.62-.518,2.391,2.391,0,0,0-1.514.428A1.428,1.428,0,0,0,29.237-7.4a1.285,1.285,0,0,0,.516,1.031,5.062,5.062,0,0,0,1.757.77,8.151,8.151,0,0,1,1.941.77,2.946,2.946,0,0,1,1.039.981,2.5,2.5,0,0,1,.338,1.319,2.326,2.326,0,0,1-.943,1.938,4.022,4.022,0,0,1-2.522.728,4.678,4.678,0,0,1-1.914-.393,3.221,3.221,0,0,1-1.371-1.077A2.627,2.627,0,0,1,27.6-2.885h1.319a1.714,1.714,0,0,0,.667,1.425,2.806,2.806,0,0,0,1.781.523,2.58,2.58,0,0,0,1.593-.424,1.377,1.377,0,0,0,.554-1.155A1.351,1.351,0,0,0,33-3.647,5.911,5.911,0,0,0,31.138-4.437Zm11-.164H37.823v3.527h5.011V0H36.511V-9.953h6.255V-8.88H37.823v3.206h4.313ZM45.876,0H44.563V-9.953h1.313Zm5.332-4.437A6.172,6.172,0,0,1,48.75-5.629a2.279,2.279,0,0,1-.769-1.747,2.408,2.408,0,0,1,.94-1.945,3.736,3.736,0,0,1,2.444-.769,4.078,4.078,0,0,1,1.829.4A3.007,3.007,0,0,1,54.438-8.6a2.8,2.8,0,0,1,.441,1.524H53.56A1.82,1.82,0,0,0,52.985-8.5a2.335,2.335,0,0,0-1.62-.518,2.391,2.391,0,0,0-1.514.428A1.428,1.428,0,0,0,49.308-7.4a1.285,1.285,0,0,0,.516,1.031,5.062,5.062,0,0,0,1.757.77,8.151,8.151,0,0,1,1.941.77,2.946,2.946,0,0,1,1.039.981A2.5,2.5,0,0,1,54.9-2.529a2.326,2.326,0,0,1-.943,1.938,4.022,4.022,0,0,1-2.522.728A4.678,4.678,0,0,1,49.52-.256a3.221,3.221,0,0,1-1.371-1.077,2.627,2.627,0,0,1-.482-1.552h1.319a1.714,1.714,0,0,0,.667,1.425,2.806,2.806,0,0,0,1.781.523,2.58,2.58,0,0,0,1.593-.424,1.377,1.377,0,0,0,.554-1.155,1.351,1.351,0,0,0-.513-1.131A5.911,5.911,0,0,0,51.208-4.437ZM66.726,0H65.481L61.927-7.725,60.587,0H59.295l1.729-9.953h1.244L65.83-2.194l1.347-7.759h1.278ZM77.3-4.662a7.845,7.845,0,0,1-.489,1.794,5.635,5.635,0,0,1-.926,1.548A4.3,4.3,0,0,1,74.508-.243,3.87,3.87,0,0,1,72.68.137a3.339,3.339,0,0,1-1.166-.215,2.8,2.8,0,0,1-.882-.547,3.042,3.042,0,0,1-.619-.807,4.37,4.37,0,0,1-.379-.988,5.375,5.375,0,0,1-.157-1.1,6.556,6.556,0,0,1,.051-1.138l.089-.629a7.658,7.658,0,0,1,.277-1.2,6.737,6.737,0,0,1,.475-1.135,5.676,5.676,0,0,1,.673-1,4.379,4.379,0,0,1,.868-.79,3.912,3.912,0,0,1,1.066-.513,3.966,3.966,0,0,1,1.261-.167,3.389,3.389,0,0,1,1.176.215,2.789,2.789,0,0,1,.885.547,3.042,3.042,0,0,1,.619.807,4.138,4.138,0,0,1,.373.991,5.606,5.606,0,0,1,.147,1.1,6.821,6.821,0,0,1-.055,1.142ZM76.111-5.3q.048-.383.062-.8a5.13,5.13,0,0,0-.038-.82,3.824,3.824,0,0,0-.178-.766,2.01,2.01,0,0,0-.359-.643,1.756,1.756,0,0,0-.581-.448,2.025,2.025,0,0,0-.841-.185,2.652,2.652,0,0,0-.933.13,2.684,2.684,0,0,0-.766.407,3.031,3.031,0,0,0-.608.622,4.662,4.662,0,0,0-.458.772,5.883,5.883,0,0,0-.325.858A6.237,6.237,0,0,0,70.9-5.3l-.089.649a7.807,7.807,0,0,0-.058.793,5.436,5.436,0,0,0,.041.82,3.676,3.676,0,0,0,.181.769,2.151,2.151,0,0,0,.362.649,1.763,1.763,0,0,0,.578.458,1.949,1.949,0,0,0,.831.188,2.73,2.73,0,0,0,.947-.13,2.662,2.662,0,0,0,.769-.4,3,3,0,0,0,.6-.619,4.494,4.494,0,0,0,.455-.772,5.5,5.5,0,0,0,.314-.865,8.06,8.06,0,0,0,.191-.9Zm10.37-3.568h-3.1L81.847,0H80.568l1.538-8.873h-3.1l.191-1.08h7.472Z" transform="translate(503.871 14654.442)" fill="#12263f"/>
    <path id="Trazado_900403" data-name="Trazado 900403" d="M4.45-1.743l2.844-8.21H8.729L5.038,0H3.876L.191-9.953H1.62ZM12.53-.9a1.822,1.822,0,0,0,1.183-.41,1.443,1.443,0,0,0,.561-1.025h1.2a2.293,2.293,0,0,1-.437,1.21,2.881,2.881,0,0,1-1.077.916A3.107,3.107,0,0,1,12.53.137a3.047,3.047,0,0,1-2.4-1.008A4.016,4.016,0,0,1,9.235-3.63v-.212a4.453,4.453,0,0,1,.4-1.921A3.02,3.02,0,0,1,10.77-7.068a3.233,3.233,0,0,1,1.753-.465,2.966,2.966,0,0,1,2.068.745,2.663,2.663,0,0,1,.878,1.935h-1.2a1.743,1.743,0,0,0-.543-1.179,1.691,1.691,0,0,0-1.207-.461A1.77,1.77,0,0,0,11.03-5.8a3.259,3.259,0,0,0-.53,2.006v.239a3.194,3.194,0,0,0,.526,1.969A1.779,1.779,0,0,0,12.53-.9Zm7.328,0a1.822,1.822,0,0,0,1.183-.41A1.443,1.443,0,0,0,21.6-2.331h1.2a2.293,2.293,0,0,1-.437,1.21,2.881,2.881,0,0,1-1.077.916,3.107,3.107,0,0,1-1.425.342,3.047,3.047,0,0,1-2.4-1.008,4.016,4.016,0,0,1-.892-2.758v-.212a4.453,4.453,0,0,1,.4-1.921A3.02,3.02,0,0,1,18.1-7.068a3.233,3.233,0,0,1,1.753-.465,2.966,2.966,0,0,1,2.068.745A2.663,2.663,0,0,1,22.8-4.854H21.6a1.743,1.743,0,0,0-.543-1.179,1.691,1.691,0,0,0-1.207-.461,1.77,1.77,0,0,0-1.494.694,3.259,3.259,0,0,0-.53,2.006v.239a3.194,3.194,0,0,0,.526,1.969A1.779,1.779,0,0,0,19.858-.9Z" transform="translate(428.422 14625.239)" fill="#12263f"/>
    <path id="Trazado_900405" data-name="Trazado 900405" d="M7.827-1.312a2.728,2.728,0,0,1-.725.7A4.039,4.039,0,0,1,6.2-.161,5.059,5.059,0,0,1,5.2.075a6.875,6.875,0,0,1-1,.062A3.6,3.6,0,0,1,3.021-.068a3.021,3.021,0,0,1-.913-.523,3,3,0,0,1-.656-.779,4.1,4.1,0,0,1-.41-.967A5.126,5.126,0,0,1,.861-3.432,6.14,6.14,0,0,1,.9-4.587l.116-.779a7.931,7.931,0,0,1,.482-1.8,5.318,5.318,0,0,1,.913-1.521A4.159,4.159,0,0,1,3.78-9.728a4.04,4.04,0,0,1,1.846-.362A3.7,3.7,0,0,1,6.9-9.857a2.775,2.775,0,0,1,.964.615,2.843,2.843,0,0,1,.629.957,4.173,4.173,0,0,1,.284,1.258H7.506a2.981,2.981,0,0,0-.167-.8,1.84,1.84,0,0,0-.369-.619,1.655,1.655,0,0,0-.584-.4,2.238,2.238,0,0,0-.807-.161,2.564,2.564,0,0,0-1.35.287,3.027,3.027,0,0,0-.964.834,4.247,4.247,0,0,0-.622,1.179,7.515,7.515,0,0,0-.332,1.33l-.116.8a5.8,5.8,0,0,0-.055.807,5.088,5.088,0,0,0,.065.817,3.651,3.651,0,0,0,.208.762,2.093,2.093,0,0,0,.39.636,1.871,1.871,0,0,0,.6.441,2.024,2.024,0,0,0,.841.174,4.487,4.487,0,0,0,1.22-.137,2.6,2.6,0,0,0,1.07-.574l.41-2.235H4.7l.191-1.066h3.5ZM17.151,0H15.907L12.353-7.725,11.013,0H9.721L11.45-9.953h1.244l3.562,7.759L17.6-9.953h1.278Zm2.317,0L21.2-9.953l2.646.007a3.684,3.684,0,0,1,1.716.414A3.274,3.274,0,0,1,26.715-8.5a3.9,3.9,0,0,1,.6,1.48,5.684,5.684,0,0,1,.051,1.753l-.082.588A6.142,6.142,0,0,1,26.715-2.8a5.176,5.176,0,0,1-1.08,1.48A4.756,4.756,0,0,1,24.1-.349,5.19,5.19,0,0,1,22.169,0Zm2.823-8.873-1.354,7.8,1.265.007a3.722,3.722,0,0,0,1.466-.277A3.543,3.543,0,0,0,24.8-2.1a3.916,3.916,0,0,0,.786-1.142,5.275,5.275,0,0,0,.42-1.432l.089-.615a5.72,5.72,0,0,0,.031-1.292,3.031,3.031,0,0,0-.318-1.135,2.127,2.127,0,0,0-.745-.813,2.384,2.384,0,0,0-1.251-.335Z" transform="translate(657.871 14685.104)" fill="#12263f"/>
    <path id="Trazado_900311" data-name="Trazado 900311" d="M-8329.818,2943.822v-29.67h290.9V2998.4h-290.9v-34.407" transform="translate(9082.37 11694)" fill="none" stroke="#905aae" stroke-width="1"/>
    <path id="Trazado_900312" data-name="Trazado 900312" d="M-8324.936,2946.059s15.886,10.671,0,20.868" transform="translate(9077.487 11691.515)" fill="none" stroke="#905aae" stroke-width="1"/>
    <path id="Trazado_900313" data-name="Trazado 900313" d="M-7794,2998.4v-23.326h34.949" transform="translate(8579.051 11694)" fill="none" stroke="#905aae" stroke-width="1"/>
    <path id="Trazado_900314" data-name="Trazado 900314" d="M-7756.051,2998.4v-9.238h-16.174v-8.7h13.174" transform="translate(8579.051 11694)" fill="none" stroke="#905aae" stroke-width="1"/>
    <path id="Trazado_900315" data-name="Trazado 900315" d="M224.59,80.123H239s6.213,1.567,5.542,8.952c-.547,6.018-6.679,7.246-6.679,7.246H224.59Z" transform="translate(595.41 14583.258)" fill="#905aae"/>
    <path id="Trazado_900316" data-name="Trazado 900316" d="M-7716.051,2998.4V2977.65h-23" transform="translate(8579.051 11694)" fill="none" stroke="#905aae" stroke-width="1"/>
    <path id="Trazado_900406" data-name="Trazado 900406" d="M4.45-1.743l2.844-8.21H8.729L5.038,0H3.876L.191-9.953H1.62ZM12.53-.9a1.822,1.822,0,0,0,1.183-.41,1.443,1.443,0,0,0,.561-1.025h1.2a2.293,2.293,0,0,1-.437,1.21,2.881,2.881,0,0,1-1.077.916A3.107,3.107,0,0,1,12.53.137a3.047,3.047,0,0,1-2.4-1.008A4.016,4.016,0,0,1,9.235-3.63v-.212a4.453,4.453,0,0,1,.4-1.921A3.02,3.02,0,0,1,10.77-7.068a3.233,3.233,0,0,1,1.753-.465,2.966,2.966,0,0,1,2.068.745,2.663,2.663,0,0,1,.878,1.935h-1.2a1.743,1.743,0,0,0-.543-1.179,1.691,1.691,0,0,0-1.207-.461A1.77,1.77,0,0,0,11.03-5.8a3.259,3.259,0,0,0-.53,2.006v.239a3.194,3.194,0,0,0,.526,1.969A1.779,1.779,0,0,0,12.53-.9Zm7.328,0a1.822,1.822,0,0,0,1.183-.41A1.443,1.443,0,0,0,21.6-2.331h1.2a2.293,2.293,0,0,1-.437,1.21,2.881,2.881,0,0,1-1.077.916,3.107,3.107,0,0,1-1.425.342,3.047,3.047,0,0,1-2.4-1.008,4.016,4.016,0,0,1-.892-2.758v-.212a4.453,4.453,0,0,1,.4-1.921A3.02,3.02,0,0,1,18.1-7.068a3.233,3.233,0,0,1,1.753-.465,2.966,2.966,0,0,1,2.068.745A2.663,2.663,0,0,1,22.8-4.854H21.6a1.743,1.743,0,0,0-.543-1.179,1.691,1.691,0,0,0-1.207-.461,1.77,1.77,0,0,0-1.494.694,3.259,3.259,0,0,0-.53,2.006v.239a3.194,3.194,0,0,0,.526,1.969A1.779,1.779,0,0,0,19.858-.9Z" transform="translate(773.051 14625.239)" fill="#12263f"/>
    <path id="Trazado_900317" data-name="Trazado 900317" d="M-7759.051,2914.795v23.464h24.916" transform="translate(8579.051 11694)" fill="none" stroke="#905aae" stroke-width="1"/>
    <path id="Trazado_900318" data-name="Trazado 900318" d="M-7716.051,2914.795v8.95h-27.78v10.494h8.9" transform="translate(8579.051 11694)" fill="none" stroke="#905aae" stroke-width="1"/>
    <path id="Trazado_900319" data-name="Trazado 900319" d="M224.59,80.123H239s6.213,1.567,5.542,8.952c-.547,6.018-6.679,7.246-6.679,7.246H224.59Z" transform="translate(619.41 14542.018)" fill="#905aae"/>
    <path id="Trazado_900320" data-name="Trazado 900320" d="M-7720.051,2936.239h45.781v-21.615" transform="translate(8579.051 11694)" fill="none" stroke="#905aae" stroke-width="1"/>
    <path id="Trazado_900407" data-name="Trazado 900407" d="M7.253-9.242,3.131,0H1.8L5.913-8.914H.526V-9.953H7.253Zm6.774,5.9h1.381v1.032H14.027V0H12.756V-2.311H8.224v-.745l4.457-6.9h1.347Zm-4.368,0h3.1V-8.224l-.15.273Zm13.132-.9a5.784,5.784,0,0,1-.759,3.3A2.7,2.7,0,0,1,19.66.137,2.718,2.718,0,0,1,17.3-.919a5.49,5.49,0,0,1-.793-3.155V-5.763a5.655,5.655,0,0,1,.759-3.261,2.719,2.719,0,0,1,2.379-1.066,2.744,2.744,0,0,1,2.365,1.029,5.458,5.458,0,0,1,.779,3.175ZM21.526-5.975a4.634,4.634,0,0,0-.451-2.341,1.553,1.553,0,0,0-1.429-.735,1.532,1.532,0,0,0-1.415.731,4.525,4.525,0,0,0-.458,2.249v2.023a4.708,4.708,0,0,0,.468,2.382A1.55,1.55,0,0,0,19.66-.9a1.529,1.529,0,0,0,1.391-.725A4.538,4.538,0,0,0,21.526-3.9Zm8.921-1.381a2.311,2.311,0,0,1-.393,1.326,2.674,2.674,0,0,1-1.063.909,2.853,2.853,0,0,1,1.234.978,2.46,2.46,0,0,1,.455,1.456,2.6,2.6,0,0,1-.872,2.058,3.349,3.349,0,0,1-2.293.766,3.334,3.334,0,0,1-2.3-.769,2.613,2.613,0,0,1-.865-2.054,2.533,2.533,0,0,1,.441-1.456,2.744,2.744,0,0,1,1.22-.984,2.608,2.608,0,0,1-1.046-.909,2.344,2.344,0,0,1-.383-1.319,2.573,2.573,0,0,1,.807-2,3.026,3.026,0,0,1,2.126-.738,3.029,3.029,0,0,1,2.123.738A2.567,2.567,0,0,1,30.447-7.355ZM29.415-2.714a1.834,1.834,0,0,0-.53-1.36A1.879,1.879,0,0,0,27.5-4.6a1.846,1.846,0,0,0-1.371.52,1.855,1.855,0,0,0-.516,1.367,1.767,1.767,0,0,0,.5,1.333,1.929,1.929,0,0,0,1.4.485,1.923,1.923,0,0,0,1.395-.489A1.763,1.763,0,0,0,29.415-2.714Zm-1.9-6.337a1.632,1.632,0,0,0-1.207.461,1.7,1.7,0,0,0-.461,1.254A1.687,1.687,0,0,0,26.3-6.108a1.613,1.613,0,0,0,1.213.468,1.613,1.613,0,0,0,1.213-.468,1.687,1.687,0,0,0,.455-1.227,1.687,1.687,0,0,0-.472-1.237A1.609,1.609,0,0,0,27.515-9.051ZM43.388-3.158A3.662,3.662,0,0,1,42.222-.721a3.82,3.82,0,0,1-2.608.858,3.507,3.507,0,0,1-2.827-1.265,5.088,5.088,0,0,1-1.063-3.384v-.957a5.671,5.671,0,0,1,.5-2.44,3.7,3.7,0,0,1,1.4-1.617,3.911,3.911,0,0,1,2.105-.564,3.6,3.6,0,0,1,2.543.885,3.706,3.706,0,0,1,1.114,2.451H42.068a2.86,2.86,0,0,0-.742-1.728,2.244,2.244,0,0,0-1.6-.535,2.348,2.348,0,0,0-1.972.93,4.271,4.271,0,0,0-.714,2.648v.965a4.391,4.391,0,0,0,.677,2.579,2.187,2.187,0,0,0,1.894.958,2.526,2.526,0,0,0,1.678-.5,2.75,2.75,0,0,0,.776-1.726Zm8.8-6.795v6.768a3.175,3.175,0,0,1-.885,2.3,3.567,3.567,0,0,1-2.382,1l-.349.014a3.725,3.725,0,0,1-2.6-.882,3.154,3.154,0,0,1-.984-2.427V-9.953h1.3v6.74a2.277,2.277,0,0,0,.595,1.678,2.286,2.286,0,0,0,1.7.6,2.3,2.3,0,0,0,1.706-.595,2.272,2.272,0,0,0,.591-1.675V-9.953ZM59.6-2.6h-4.17L54.5,0H53.143l3.8-9.953h1.148L61.9,0H60.553ZM55.829-3.678h3.384l-1.7-4.655Zm13.405-5.2h-3.2V0H64.729V-8.88H61.537V-9.953h7.7Zm5.127,4.854H72.023V0H70.7V-9.953H74a3.9,3.9,0,0,1,2.587.766,2.755,2.755,0,0,1,.906,2.229,2.68,2.68,0,0,1-.5,1.62,3,3,0,0,1-1.4,1.032L77.93-.082V0H76.521ZM72.023-5.1H74.04A2.275,2.275,0,0,0,75.6-5.606a1.714,1.714,0,0,0,.578-1.356,1.8,1.8,0,0,0-.55-1.418,2.33,2.33,0,0,0-1.589-.5h-2.01Zm14.964.444A6.157,6.157,0,0,1,86.5-2.1,3.728,3.728,0,0,1,85.1-.437,3.837,3.837,0,0,1,83,.137,3.8,3.8,0,0,1,80.91-.441,3.817,3.817,0,0,1,79.5-2.088a5.908,5.908,0,0,1-.516-2.478v-.718a6.084,6.084,0,0,1,.5-2.536,3.8,3.8,0,0,1,1.412-1.685,3.788,3.788,0,0,1,2.088-.584,3.858,3.858,0,0,1,2.109.578,3.721,3.721,0,0,1,1.4,1.675,6.187,6.187,0,0,1,.492,2.553ZM85.682-5.3a4.463,4.463,0,0,0-.711-2.717,2.345,2.345,0,0,0-1.989-.947,2.32,2.32,0,0,0-1.958.947,4.371,4.371,0,0,0-.735,2.628v.731a4.469,4.469,0,0,0,.721,2.7A2.329,2.329,0,0,0,83-.978,2.32,2.32,0,0,0,84.964-1.9a4.444,4.444,0,0,0,.718-2.656Zm11.8,2.7H93.447L92.087,0H90.713L96.12-9.953h1.128L99.217,0H97.952Zm-3.466-1.08h3.274l-.827-4.642ZM108.028,0h-1.244l-3.555-7.725L101.89,0H100.6l1.729-9.953h1.244l3.562,7.759,1.347-7.759h1.278Zm2.317,0,1.729-9.953,2.646.007a3.684,3.684,0,0,1,1.716.414A3.274,3.274,0,0,1,117.592-8.5a3.9,3.9,0,0,1,.6,1.48,5.684,5.684,0,0,1,.051,1.753l-.082.588a6.142,6.142,0,0,1-.567,1.876,5.176,5.176,0,0,1-1.08,1.48,4.756,4.756,0,0,1-1.535.971A5.19,5.19,0,0,1,113.046,0Zm2.823-8.873-1.354,7.8,1.265.007a3.722,3.722,0,0,0,1.466-.277,3.543,3.543,0,0,0,1.135-.759,3.916,3.916,0,0,0,.786-1.142,5.275,5.275,0,0,0,.42-1.432l.089-.615a5.721,5.721,0,0,0,.031-1.292,3.031,3.031,0,0,0-.318-1.135,2.127,2.127,0,0,0-.745-.813,2.384,2.384,0,0,0-1.251-.335ZM126.267,0h-6.521V-.909l3.445-3.828a8.185,8.185,0,0,0,1.056-1.412,2.356,2.356,0,0,0,.291-1.125,1.786,1.786,0,0,0-.472-1.278,1.649,1.649,0,0,0-1.258-.5,1.953,1.953,0,0,0-1.466.537,2.05,2.05,0,0,0-.523,1.494h-1.265a2.936,2.936,0,0,1,.885-2.222,3.282,3.282,0,0,1,2.369-.848A3.153,3.153,0,0,1,125-9.362a2.483,2.483,0,0,1,.807,1.938q0,1.47-1.873,3.5L121.27-1.032h5Z" transform="translate(854 14654.442)" fill="#12263f"/>
    <path id="Trazado_900321" data-name="Trazado 900321" d="M-7794,2998.4v-23.326h34.949" transform="translate(8697.051 11694)" fill="none" stroke="#905aae" stroke-width="1"/>
    <path id="Trazado_900322" data-name="Trazado 900322" d="M-7756.051,2998.4v-9.238h-16.174v-8.7h13.174" transform="translate(8697.051 11694)" fill="none" stroke="#905aae" stroke-width="1"/>
    <path id="Trazado_900323" data-name="Trazado 900323" d="M224.59,80.123H239s6.213,1.567,5.542,8.952c-.547,6.018-6.679,7.246-6.679,7.246H224.59Z" transform="translate(713.41 14583.258)" fill="#905aae"/>
    <path id="Trazado_900324" data-name="Trazado 900324" d="M-7716.051,2998.4V2977.65h-23" transform="translate(8697.051 11694)" fill="none" stroke="#905aae" stroke-width="1"/>
    <path id="Trazado_900408" data-name="Trazado 900408" d="M7.827-1.312a2.728,2.728,0,0,1-.725.7A4.039,4.039,0,0,1,6.2-.161,5.059,5.059,0,0,1,5.2.075a6.875,6.875,0,0,1-1,.062A3.6,3.6,0,0,1,3.021-.068a3.021,3.021,0,0,1-.913-.523,3,3,0,0,1-.656-.779,4.1,4.1,0,0,1-.41-.967A5.126,5.126,0,0,1,.861-3.432,6.14,6.14,0,0,1,.9-4.587l.116-.779a7.931,7.931,0,0,1,.482-1.8,5.318,5.318,0,0,1,.913-1.521A4.159,4.159,0,0,1,3.78-9.728a4.04,4.04,0,0,1,1.846-.362A3.7,3.7,0,0,1,6.9-9.857a2.775,2.775,0,0,1,.964.615,2.843,2.843,0,0,1,.629.957,4.173,4.173,0,0,1,.284,1.258H7.506a2.981,2.981,0,0,0-.167-.8,1.84,1.84,0,0,0-.369-.619,1.655,1.655,0,0,0-.584-.4,2.238,2.238,0,0,0-.807-.161,2.564,2.564,0,0,0-1.35.287,3.027,3.027,0,0,0-.964.834,4.247,4.247,0,0,0-.622,1.179,7.515,7.515,0,0,0-.332,1.33l-.116.8a5.8,5.8,0,0,0-.055.807,5.088,5.088,0,0,0,.065.817,3.651,3.651,0,0,0,.208.762,2.093,2.093,0,0,0,.39.636,1.871,1.871,0,0,0,.6.441,2.024,2.024,0,0,0,.841.174,4.487,4.487,0,0,0,1.22-.137,2.6,2.6,0,0,0,1.07-.574l.41-2.235H4.7l.191-1.066h3.5ZM17.151,0H15.907L12.353-7.725,11.013,0H9.721L11.45-9.953h1.244l3.562,7.759L17.6-9.953h1.278Zm2.317,0L21.2-9.953l2.646.007a3.684,3.684,0,0,1,1.716.414A3.274,3.274,0,0,1,26.715-8.5a3.9,3.9,0,0,1,.6,1.48,5.684,5.684,0,0,1,.051,1.753l-.082.588A6.142,6.142,0,0,1,26.715-2.8a5.176,5.176,0,0,1-1.08,1.48A4.756,4.756,0,0,1,24.1-.349,5.19,5.19,0,0,1,22.169,0Zm2.823-8.873-1.354,7.8,1.265.007a3.722,3.722,0,0,0,1.466-.277A3.543,3.543,0,0,0,24.8-2.1a3.916,3.916,0,0,0,.786-1.142,5.275,5.275,0,0,0,.42-1.432l.089-.615a5.72,5.72,0,0,0,.031-1.292,3.031,3.031,0,0,0-.318-1.135,2.127,2.127,0,0,0-.745-.813,2.384,2.384,0,0,0-1.251-.335Z" transform="translate(1003 14685.479)" fill="#12263f"/>
    <path id="Trazado_900325" data-name="Trazado 900325" d="M-7759.051,2914.795v23.464h24.916" transform="translate(8697.27 11694)" fill="none" stroke="#905aae" stroke-width="1"/>
    <path id="Trazado_900326" data-name="Trazado 900326" d="M-7716.051,2914.795v8.95h-27.78v10.494h8.9" transform="translate(8697.27 11694)" fill="none" stroke="#905aae" stroke-width="1"/>
    <path id="Trazado_900327" data-name="Trazado 900327" d="M224.59,80.123H239s6.213,1.567,5.542,8.952c-.547,6.018-6.679,7.246-6.679,7.246H224.59Z" transform="translate(737.629 14542.018)" fill="#905aae"/>
    <path id="Trazado_900328" data-name="Trazado 900328" d="M-7720.051,2936.239h45.781v-21.615" transform="translate(8697.27 11694)" fill="none" stroke="#905aae" stroke-width="1"/>
    <path id="Trazado_900329" data-name="Trazado 900329" d="M-8136.18,2890.795v-32.821h308.129v32.821" transform="translate(8654.051 11694)" fill="none" stroke="#905aae" stroke-width="1"/>
    <path id="Trazado_900401" data-name="Trazado 900401" d="M7.6-2.977H2.836L1.766,0H.219L4.563-11.375H5.875L10.227,0H8.688ZM3.289-4.2H7.156L5.219-9.523Z" transform="translate(590.146 14525.933)" fill="#12263f"/>
    <path id="Trazado_900330" data-name="Trazado 900330" d="M-8041.458,1359.615h16.771" transform="translate(8627.922 13151.138)" fill="none" stroke="#000" stroke-width="1"/>
    <path id="Trazado_900400" data-name="Trazado 900400" d="M2.82-4.453V0H1.32V-11.375h4.2a4.215,4.215,0,0,1,2.926.953A3.231,3.231,0,0,1,9.5-7.9,3.189,3.189,0,0,1,8.465-5.348,4.4,4.4,0,0,1,5.5-4.453Zm0-1.227h2.7a2.7,2.7,0,0,0,1.844-.567A2.075,2.075,0,0,0,8-7.887a2.143,2.143,0,0,0-.641-1.628A2.525,2.525,0,0,0,5.6-10.148H2.82ZM16.406-.836A3.07,3.07,0,0,1,13.93.156a2.628,2.628,0,0,1-2.059-.785,3.4,3.4,0,0,1-.715-2.324v-5.5H12.6v5.461q0,1.922,1.563,1.922a2.163,2.163,0,0,0,2.2-1.234V-8.453h1.445V0H16.438Zm7.109.992a3.693,3.693,0,0,1-2.8-1.129,4.19,4.19,0,0,1-1.078-3.02v-.266a5.073,5.073,0,0,1,.48-2.246,3.748,3.748,0,0,1,1.344-1.547,3.378,3.378,0,0,1,1.871-.559A3.166,3.166,0,0,1,25.9-7.523a4.7,4.7,0,0,1,.914,3.109v.6H21.086a3,3,0,0,0,.73,2.02,2.3,2.3,0,0,0,1.777.77,2.517,2.517,0,0,0,1.3-.312,3.259,3.259,0,0,0,.93-.828l.883.688A3.55,3.55,0,0,1,23.516.156Zm-.18-7.578a1.928,1.928,0,0,0-1.469.637A3.1,3.1,0,0,0,21.133-5h4.234v-.109a2.753,2.753,0,0,0-.594-1.707A1.815,1.815,0,0,0,23.336-7.422Zm9.234.266a4.331,4.331,0,0,0-.711-.055A1.9,1.9,0,0,0,29.93-6V0H28.484V-8.453h1.406l.023.977A2.251,2.251,0,0,1,31.93-8.609a1.477,1.477,0,0,1,.641.109ZM36.25-10.5v2.047h1.578v1.117H36.25v5.249a1.173,1.173,0,0,0,.211.763.888.888,0,0,0,.719.254,3.5,3.5,0,0,0,.688-.094V0a4.215,4.215,0,0,1-1.109.155A1.8,1.8,0,0,1,35.3-.43,2.517,2.517,0,0,1,34.8-2.094V-7.336H33.266V-8.453H34.8V-10.5ZM44.734,0a3.036,3.036,0,0,1-.2-.891A3.225,3.225,0,0,1,42.125.156a2.984,2.984,0,0,1-2.051-.707,2.287,2.287,0,0,1-.8-1.793,2.39,2.39,0,0,1,1-2.051,4.733,4.733,0,0,1,2.824-.73h1.406v-.664A1.623,1.623,0,0,0,44.055-7a1.821,1.821,0,0,0-1.336-.449,2.107,2.107,0,0,0-1.3.391,1.151,1.151,0,0,0-.523.945H39.445a2,2,0,0,1,.449-1.223,3.066,3.066,0,0,1,1.219-.934A4.1,4.1,0,0,1,42.8-8.609a3.342,3.342,0,0,1,2.289.73,2.635,2.635,0,0,1,.859,2.012v3.891a4.757,4.757,0,0,0,.3,1.852V0Zm-2.4-1.1a2.54,2.54,0,0,0,1.289-.352,2.127,2.127,0,0,0,.883-.914V-4.1H43.375q-2.656,0-2.656,1.555a1.316,1.316,0,0,0,.453,1.063A1.742,1.742,0,0,0,42.336-1.1ZM56.781,0H55.328V-9.633l-2.914,1.07V-9.875l4.141-1.555h.227Z" transform="translate(570.871 14540.433)" fill="#12263f"/>
    <path id="Trazado_900331" data-name="Trazado 900331" d="M-8214.129,2890.4v85.971" transform="translate(8692.129 11608)" fill="none" stroke="#905aae" stroke-width="1"/>
    <path id="Trazado_900394" data-name="Trazado 900394" d="M1.32,0V-11.375H5.039a4.317,4.317,0,0,1,2.785.766,2.759,2.759,0,0,1,.934,2.266A2.31,2.31,0,0,1,8.3-6.934a2.938,2.938,0,0,1-1.234.949A2.638,2.638,0,0,1,8.527-5a2.814,2.814,0,0,1,.535,1.723A3.042,3.042,0,0,1,8.07-.875,4.1,4.1,0,0,1,5.266,0Zm1.5-5.32v4.094H5.3A2.385,2.385,0,0,0,6.949-1.77a1.907,1.907,0,0,0,.605-1.5q0-2.055-2.234-2.055Zm0-1.2H5.086A2.375,2.375,0,0,0,6.66-7.017a1.654,1.654,0,0,0,.59-1.339A1.626,1.626,0,0,0,6.7-9.722a2.686,2.686,0,0,0-1.664-.427H2.82Z" transform="translate(857 14490.078)" fill="#12263f"/>
    <rect id="Rectángulo_406598" data-name="Rectángulo 406598" width="12" height="12" transform="translate(857 14455.078)" fill="#905aae"/>
    <path id="Trazado_900332" data-name="Trazado 900332" d="M-8214.129,2890.4v85.971" transform="translate(9076.129 11608)" fill="none" stroke="#905aae" stroke-width="1"/>
    <path id="Trazado_900393" data-name="Trazado 900393" d="M1.32,0V-11.375H5.039a4.317,4.317,0,0,1,2.785.766,2.759,2.759,0,0,1,.934,2.266A2.31,2.31,0,0,1,8.3-6.934a2.938,2.938,0,0,1-1.234.949A2.638,2.638,0,0,1,8.527-5a2.814,2.814,0,0,1,.535,1.723A3.042,3.042,0,0,1,8.07-.875,4.1,4.1,0,0,1,5.266,0Zm1.5-5.32v4.094H5.3A2.385,2.385,0,0,0,6.949-1.77a1.907,1.907,0,0,0,.605-1.5q0-2.055-2.234-2.055Zm0-1.2H5.086A2.375,2.375,0,0,0,6.66-7.017a1.654,1.654,0,0,0,.59-1.339A1.626,1.626,0,0,0,6.7-9.722a2.686,2.686,0,0,0-1.664-.427H2.82ZM10.672-4.3a4.993,4.993,0,0,1,.488-2.234A3.643,3.643,0,0,1,12.52-8.07a3.7,3.7,0,0,1,1.988-.539,3.565,3.565,0,0,1,2.793,1.2,4.6,4.6,0,0,1,1.066,3.18v.1a5.036,5.036,0,0,1-.473,2.215A3.589,3.589,0,0,1,16.543-.391a3.743,3.743,0,0,1-2.02.547,3.556,3.556,0,0,1-2.785-1.2A4.575,4.575,0,0,1,10.672-4.2Zm1.453.172a3.616,3.616,0,0,0,.652,2.258,2.088,2.088,0,0,0,1.746.852,2.075,2.075,0,0,0,1.75-.863A3.955,3.955,0,0,0,16.922-4.3a3.61,3.61,0,0,0-.66-2.254,2.1,2.1,0,0,0-1.754-.863,2.075,2.075,0,0,0-1.727.852A3.925,3.925,0,0,0,12.125-4.133ZM22.141-10.5v2.047h1.578v1.117H22.141v5.249a1.173,1.173,0,0,0,.211.763.888.888,0,0,0,.719.254,3.5,3.5,0,0,0,.688-.094V0a4.215,4.215,0,0,1-1.109.155A1.8,1.8,0,0,1,21.188-.43,2.517,2.517,0,0,1,20.7-2.094V-7.336H19.156V-8.453H20.7V-10.5Zm2.727,6.2a4.993,4.993,0,0,1,.488-2.234A3.643,3.643,0,0,1,26.715-8.07,3.7,3.7,0,0,1,28.7-8.609a3.565,3.565,0,0,1,2.793,1.2,4.6,4.6,0,0,1,1.066,3.18v.1a5.036,5.036,0,0,1-.473,2.215A3.589,3.589,0,0,1,30.738-.391a3.743,3.743,0,0,1-2.02.547,3.556,3.556,0,0,1-2.785-1.2A4.575,4.575,0,0,1,24.867-4.2Zm1.453.172a3.616,3.616,0,0,0,.652,2.258,2.088,2.088,0,0,0,1.746.852,2.075,2.075,0,0,0,1.75-.863A3.955,3.955,0,0,0,31.117-4.3a3.61,3.61,0,0,0-.66-2.254A2.1,2.1,0,0,0,28.7-7.422a2.075,2.075,0,0,0-1.727.852A3.925,3.925,0,0,0,26.32-4.133Zm3.039-7.852h1.75l-2.094,2.3-1.164,0Zm6.383,3.531.047,1.063A3.08,3.08,0,0,1,38.32-8.609q2.68,0,2.7,3.023V0H39.578V-5.594a1.946,1.946,0,0,0-.418-1.352,1.675,1.675,0,0,0-1.277-.437,2.086,2.086,0,0,0-1.234.375,2.546,2.546,0,0,0-.828.984V0H34.375V-8.453Zm14.43,4.211H46.359v-1.18h3.813ZM59.938-4.6H57.266V0H55.758V-11.375h3.766a4.457,4.457,0,0,1,2.957.875,3.148,3.148,0,0,1,1.035,2.547A3.062,3.062,0,0,1,62.941-6.1a3.428,3.428,0,0,1-1.6,1.18L64.016-.094V0H62.406ZM57.266-5.828h2.3a2.6,2.6,0,0,0,1.777-.579,1.959,1.959,0,0,0,.66-1.55,2.062,2.062,0,0,0-.629-1.62,2.663,2.663,0,0,0-1.816-.571h-2.3ZM68.9.156A3.693,3.693,0,0,1,66.1-.973a4.19,4.19,0,0,1-1.078-3.02v-.266A5.073,5.073,0,0,1,65.5-6.5a3.748,3.748,0,0,1,1.344-1.547,3.378,3.378,0,0,1,1.871-.559,3.166,3.166,0,0,1,2.563,1.086A4.7,4.7,0,0,1,72.2-4.414v.6H66.469a3,3,0,0,0,.73,2.02,2.3,2.3,0,0,0,1.777.77,2.517,2.517,0,0,0,1.3-.312,3.259,3.259,0,0,0,.93-.828l.883.688A3.55,3.55,0,0,1,68.9.156Zm-.18-7.578a1.928,1.928,0,0,0-1.469.637A3.1,3.1,0,0,0,66.516-5H70.75v-.109a2.753,2.753,0,0,0-.594-1.707A1.815,1.815,0,0,0,68.719-7.422Zm7.836,5.461,2.094-6.492h1.477L77.094,0h-1.1L72.93-8.453h1.477ZM83.086,0H81.641V-8.453h1.445ZM81.523-10.7a.863.863,0,0,1,.215-.594.807.807,0,0,1,.637-.242.819.819,0,0,1,.641.242.854.854,0,0,1,.219.594.826.826,0,0,1-.219.586.834.834,0,0,1-.641.234.821.821,0,0,1-.637-.234A.834.834,0,0,1,81.523-10.7Zm8.8,8.453a1.064,1.064,0,0,0-.441-.91,4.249,4.249,0,0,0-1.539-.559A7.277,7.277,0,0,1,86.6-4.273a2.479,2.479,0,0,1-.953-.781,1.869,1.869,0,0,1-.309-1.078,2.193,2.193,0,0,1,.879-1.758,3.432,3.432,0,0,1,2.246-.719,3.532,3.532,0,0,1,2.332.742,2.357,2.357,0,0,1,.895,1.9H90.234a1.3,1.3,0,0,0-.5-1.023,1.888,1.888,0,0,0-1.27-.43,1.976,1.976,0,0,0-1.234.344,1.082,1.082,0,0,0-.445.9.877.877,0,0,0,.414.789,5.1,5.1,0,0,0,1.5.508,7.8,7.8,0,0,1,1.754.578,2.558,2.558,0,0,1,1,.809,1.988,1.988,0,0,1,.324,1.152,2.163,2.163,0,0,1-.906,1.816,3.8,3.8,0,0,1-2.352.684,4.257,4.257,0,0,1-1.8-.359,2.922,2.922,0,0,1-1.223-1A2.42,2.42,0,0,1,85.047-2.6h1.445a1.5,1.5,0,0,0,.582,1.152,2.258,2.258,0,0,0,1.434.426,2.331,2.331,0,0,0,1.316-.332A1.02,1.02,0,0,0,90.32-2.242ZM95.219,0H93.773V-8.453h1.445ZM93.656-10.7a.863.863,0,0,1,.215-.594.807.807,0,0,1,.637-.242.819.819,0,0,1,.641.242.854.854,0,0,1,.219.594.826.826,0,0,1-.219.586.834.834,0,0,1-.641.234.821.821,0,0,1-.637-.234A.834.834,0,0,1,93.656-10.7ZM97.148-4.3a4.993,4.993,0,0,1,.488-2.234A3.643,3.643,0,0,1,99-8.07a3.7,3.7,0,0,1,1.988-.539,3.565,3.565,0,0,1,2.793,1.2,4.6,4.6,0,0,1,1.066,3.18v.1a5.036,5.036,0,0,1-.473,2.215A3.589,3.589,0,0,1,103.02-.391,3.743,3.743,0,0,1,101,.156a3.556,3.556,0,0,1-2.785-1.2A4.575,4.575,0,0,1,97.148-4.2Zm1.453.172a3.616,3.616,0,0,0,.652,2.258A2.088,2.088,0,0,0,101-1.023a2.075,2.075,0,0,0,1.75-.863A3.955,3.955,0,0,0,103.4-4.3a3.61,3.61,0,0,0-.66-2.254,2.1,2.1,0,0,0-1.754-.863,2.075,2.075,0,0,0-1.727.852A3.925,3.925,0,0,0,98.6-4.133Zm3.039-7.852h1.75l-2.094,2.3-1.164,0Zm6.383,3.531.047,1.063A3.08,3.08,0,0,1,110.6-8.609q2.68,0,2.7,3.023V0h-1.445V-5.594a1.946,1.946,0,0,0-.418-1.352,1.675,1.675,0,0,0-1.277-.437,2.086,2.086,0,0,0-1.234.375,2.546,2.546,0,0,0-.828.984V0h-1.445V-8.453Z" transform="translate(733.051 14466.078)" fill="#12263f"/>
    <path id="Trazado_900391" data-name="Trazado 900391" d="M4.672-5.07A7.053,7.053,0,0,1,1.863-6.434a2.6,2.6,0,0,1-.879-2,2.751,2.751,0,0,1,1.074-2.223,4.269,4.269,0,0,1,2.793-.879,4.66,4.66,0,0,1,2.09.453,3.436,3.436,0,0,1,1.422,1.25,3.2,3.2,0,0,1,.5,1.742H7.359A2.08,2.08,0,0,0,6.7-9.713,2.669,2.669,0,0,0,4.852-10.3a2.732,2.732,0,0,0-1.73.489A1.632,1.632,0,0,0,2.5-8.458,1.468,1.468,0,0,0,3.09-7.28,5.785,5.785,0,0,0,5.1-6.4a9.316,9.316,0,0,1,2.219.88A3.367,3.367,0,0,1,8.5-4.4a2.861,2.861,0,0,1,.387,1.508A2.658,2.658,0,0,1,7.813-.676,4.6,4.6,0,0,1,4.93.156,5.347,5.347,0,0,1,2.742-.293a3.681,3.681,0,0,1-1.566-1.23A3,3,0,0,1,.625-3.3H2.133a1.959,1.959,0,0,0,.762,1.629,3.207,3.207,0,0,0,2.035.6,2.948,2.948,0,0,0,1.82-.484,1.573,1.573,0,0,0,.633-1.32A1.545,1.545,0,0,0,6.8-4.168,6.755,6.755,0,0,0,4.672-5.07ZM14.094.156A3.693,3.693,0,0,1,11.3-.973a4.19,4.19,0,0,1-1.078-3.02v-.266A5.073,5.073,0,0,1,10.7-6.5a3.748,3.748,0,0,1,1.344-1.547,3.378,3.378,0,0,1,1.871-.559,3.166,3.166,0,0,1,2.563,1.086,4.7,4.7,0,0,1,.914,3.109v.6H11.664a3,3,0,0,0,.73,2.02,2.3,2.3,0,0,0,1.777.77,2.517,2.517,0,0,0,1.3-.312,3.259,3.259,0,0,0,.93-.828l.883.688A3.55,3.55,0,0,1,14.094.156Zm-.18-7.578a1.928,1.928,0,0,0-1.469.637A3.1,3.1,0,0,0,11.711-5h4.234v-.109a2.753,2.753,0,0,0-.594-1.707A1.815,1.815,0,0,0,13.914-7.422ZM20.43-8.453l.047,1.063a3.08,3.08,0,0,1,2.531-1.219q2.68,0,2.7,3.023V0H24.266V-5.594a1.946,1.946,0,0,0-.418-1.352,1.675,1.675,0,0,0-1.277-.437,2.086,2.086,0,0,0-1.234.375,2.546,2.546,0,0,0-.828.984V0H19.063V-8.453ZM32.813-2.242a1.064,1.064,0,0,0-.441-.91,4.249,4.249,0,0,0-1.539-.559,7.277,7.277,0,0,1-1.742-.562,2.479,2.479,0,0,1-.953-.781,1.869,1.869,0,0,1-.309-1.078,2.193,2.193,0,0,1,.879-1.758,3.432,3.432,0,0,1,2.246-.719,3.532,3.532,0,0,1,2.332.742,2.357,2.357,0,0,1,.895,1.9H32.727a1.3,1.3,0,0,0-.5-1.023,1.888,1.888,0,0,0-1.27-.43,1.976,1.976,0,0,0-1.234.344,1.082,1.082,0,0,0-.445.9.877.877,0,0,0,.414.789,5.1,5.1,0,0,0,1.5.508,7.8,7.8,0,0,1,1.754.578,2.558,2.558,0,0,1,1,.809,1.988,1.988,0,0,1,.324,1.152,2.163,2.163,0,0,1-.906,1.816A3.8,3.8,0,0,1,31,.156,4.257,4.257,0,0,1,29.2-.2a2.922,2.922,0,0,1-1.223-1A2.42,2.42,0,0,1,27.539-2.6h1.445a1.5,1.5,0,0,0,.582,1.152A2.258,2.258,0,0,0,31-1.023a2.331,2.331,0,0,0,1.316-.332A1.02,1.02,0,0,0,32.813-2.242ZM35.758-4.3a4.993,4.993,0,0,1,.488-2.234A3.643,3.643,0,0,1,37.605-8.07a3.7,3.7,0,0,1,1.988-.539,3.565,3.565,0,0,1,2.793,1.2,4.6,4.6,0,0,1,1.066,3.18v.1a5.036,5.036,0,0,1-.473,2.215A3.589,3.589,0,0,1,41.629-.391a3.743,3.743,0,0,1-2.02.547,3.556,3.556,0,0,1-2.785-1.2A4.575,4.575,0,0,1,35.758-4.2Zm1.453.172a3.616,3.616,0,0,0,.652,2.258,2.088,2.088,0,0,0,1.746.852,2.075,2.075,0,0,0,1.75-.863A3.955,3.955,0,0,0,42.008-4.3a3.61,3.61,0,0,0-.66-2.254,2.1,2.1,0,0,0-1.754-.863,2.075,2.075,0,0,0-1.727.852A3.925,3.925,0,0,0,37.211-4.133ZM49.352-7.156a4.331,4.331,0,0,0-.711-.055A1.9,1.9,0,0,0,46.711-6V0H45.266V-8.453h1.406l.023.977a2.251,2.251,0,0,1,2.016-1.133,1.477,1.477,0,0,1,.641.109ZM54.289-4.3a4.952,4.952,0,0,1,.922-3.129,2.915,2.915,0,0,1,2.414-1.184,2.932,2.932,0,0,1,2.352,1.016V-12h1.445V0H60.094l-.07-.906A2.943,2.943,0,0,1,57.609.156a2.887,2.887,0,0,1-2.395-1.2,5.008,5.008,0,0,1-.926-3.141Zm1.445.164a3.749,3.749,0,0,0,.594,2.25,1.92,1.92,0,0,0,1.641.813A2.108,2.108,0,0,0,59.977-2.3V-6.187a2.125,2.125,0,0,0-1.992-1.2,1.929,1.929,0,0,0-1.656.82A4.128,4.128,0,0,0,55.734-4.133ZM67.172.156a3.693,3.693,0,0,1-2.8-1.129A4.19,4.19,0,0,1,63.3-3.992v-.266a5.073,5.073,0,0,1,.48-2.246,3.748,3.748,0,0,1,1.344-1.547,3.378,3.378,0,0,1,1.871-.559,3.166,3.166,0,0,1,2.563,1.086,4.7,4.7,0,0,1,.914,3.109v.6H64.742a3,3,0,0,0,.73,2.02,2.3,2.3,0,0,0,1.777.77,2.517,2.517,0,0,0,1.3-.312,3.259,3.259,0,0,0,.93-.828l.883.688A3.55,3.55,0,0,1,67.172.156Zm-.18-7.578a1.928,1.928,0,0,0-1.469.637A3.1,3.1,0,0,0,64.789-5h4.234v-.109a2.753,2.753,0,0,0-.594-1.707A1.815,1.815,0,0,0,66.992-7.422ZM74.1-10.5v2.047H75.68v1.117H74.1v5.249a1.173,1.173,0,0,0,.211.763.888.888,0,0,0,.719.254,3.5,3.5,0,0,0,.688-.094V0a4.215,4.215,0,0,1-1.109.155A1.8,1.8,0,0,1,73.148-.43a2.517,2.517,0,0,1-.492-1.664V-7.336H71.117V-8.453h1.539V-10.5ZM80.875.156a3.693,3.693,0,0,1-2.8-1.129A4.19,4.19,0,0,1,77-3.992v-.266A5.073,5.073,0,0,1,77.48-6.5a3.748,3.748,0,0,1,1.344-1.547A3.378,3.378,0,0,1,80.7-8.609a3.166,3.166,0,0,1,2.563,1.086,4.7,4.7,0,0,1,.914,3.109v.6H78.445a3,3,0,0,0,.73,2.02,2.3,2.3,0,0,0,1.777.77,2.517,2.517,0,0,0,1.3-.312,3.259,3.259,0,0,0,.93-.828l.883.688A3.55,3.55,0,0,1,80.875.156ZM80.7-7.422a1.928,1.928,0,0,0-1.469.637A3.1,3.1,0,0,0,78.492-5h4.234v-.109a2.753,2.753,0,0,0-.594-1.707A1.815,1.815,0,0,0,80.7-7.422Zm8.539,6.4a2.082,2.082,0,0,0,1.352-.469,1.649,1.649,0,0,0,.641-1.172h1.367a2.621,2.621,0,0,1-.5,1.383,3.293,3.293,0,0,1-1.23,1.047,3.55,3.55,0,0,1-1.629.391A3.482,3.482,0,0,1,86.488-1a4.59,4.59,0,0,1-1.02-3.152v-.242a5.089,5.089,0,0,1,.453-2.2,3.451,3.451,0,0,1,1.3-1.492,3.7,3.7,0,0,1,2-.531,3.39,3.39,0,0,1,2.363.852,3.043,3.043,0,0,1,1,2.211H91.227a1.992,1.992,0,0,0-.621-1.348,1.932,1.932,0,0,0-1.379-.527,2.023,2.023,0,0,0-1.707.793,3.724,3.724,0,0,0-.605,2.293v.273a3.65,3.65,0,0,0,.6,2.25A2.033,2.033,0,0,0,89.234-1.023ZM96.18-10.5v2.047h1.578v1.117H96.18v5.249a1.173,1.173,0,0,0,.211.763.888.888,0,0,0,.719.254,3.5,3.5,0,0,0,.688-.094V0a4.215,4.215,0,0,1-1.109.155A1.8,1.8,0,0,1,95.227-.43a2.517,2.517,0,0,1-.492-1.664V-7.336H93.2V-8.453h1.539V-10.5Zm2.727,6.2a4.993,4.993,0,0,1,.488-2.234,3.643,3.643,0,0,1,1.359-1.531,3.7,3.7,0,0,1,1.988-.539,3.565,3.565,0,0,1,2.793,1.2,4.6,4.6,0,0,1,1.066,3.18v.1a5.036,5.036,0,0,1-.473,2.215,3.589,3.589,0,0,1-1.352,1.527,3.743,3.743,0,0,1-2.02.547,3.556,3.556,0,0,1-2.785-1.2A4.575,4.575,0,0,1,98.906-4.2Zm1.453.172a3.616,3.616,0,0,0,.652,2.258,2.088,2.088,0,0,0,1.746.852,2.075,2.075,0,0,0,1.75-.863,3.955,3.955,0,0,0,.648-2.418,3.61,3.61,0,0,0-.66-2.254,2.1,2.1,0,0,0-1.754-.863,2.075,2.075,0,0,0-1.727.852A3.925,3.925,0,0,0,100.359-4.133ZM112.5-7.156a4.331,4.331,0,0,0-.711-.055A1.9,1.9,0,0,0,109.859-6V0h-1.445V-8.453h1.406l.023.977a2.251,2.251,0,0,1,2.016-1.133,1.477,1.477,0,0,1,.641.109ZM117.438-4.3a4.952,4.952,0,0,1,.922-3.129,2.915,2.915,0,0,1,2.414-1.184,2.932,2.932,0,0,1,2.352,1.016V-12h1.445V0h-1.328l-.07-.906A2.943,2.943,0,0,1,120.758.156a2.887,2.887,0,0,1-2.395-1.2,5.008,5.008,0,0,1-.926-3.141Zm1.445.164a3.749,3.749,0,0,0,.594,2.25,1.92,1.92,0,0,0,1.641.813A2.109,2.109,0,0,0,123.125-2.3V-6.187a2.125,2.125,0,0,0-1.992-1.2,1.929,1.929,0,0,0-1.656.82A4.128,4.128,0,0,0,118.883-4.133ZM130.32.156a3.693,3.693,0,0,1-2.8-1.129,4.19,4.19,0,0,1-1.078-3.02v-.266a5.073,5.073,0,0,1,.48-2.246,3.748,3.748,0,0,1,1.344-1.547,3.378,3.378,0,0,1,1.871-.559A3.166,3.166,0,0,1,132.7-7.523a4.7,4.7,0,0,1,.914,3.109v.6h-5.727a3,3,0,0,0,.73,2.02,2.3,2.3,0,0,0,1.777.77,2.517,2.517,0,0,0,1.3-.312,3.258,3.258,0,0,0,.93-.828l.883.688A3.55,3.55,0,0,1,130.32.156Zm-.18-7.578a1.928,1.928,0,0,0-1.469.637A3.1,3.1,0,0,0,127.938-5h4.234v-.109a2.753,2.753,0,0,0-.594-1.707A1.815,1.815,0,0,0,130.141-7.422ZM138.867-4.3a4.993,4.993,0,0,1,.488-2.234,3.642,3.642,0,0,1,1.359-1.531,3.7,3.7,0,0,1,1.988-.539,3.565,3.565,0,0,1,2.793,1.2,4.6,4.6,0,0,1,1.066,3.18v.1a5.036,5.036,0,0,1-.473,2.215,3.589,3.589,0,0,1-1.352,1.527,3.743,3.743,0,0,1-2.02.547,3.556,3.556,0,0,1-2.785-1.2A4.575,4.575,0,0,1,138.867-4.2Zm1.453.172a3.616,3.616,0,0,0,.652,2.258,2.088,2.088,0,0,0,1.746.852,2.075,2.075,0,0,0,1.75-.863,3.954,3.954,0,0,0,.648-2.418,3.61,3.61,0,0,0-.66-2.254,2.1,2.1,0,0,0-1.754-.863,2.075,2.075,0,0,0-1.727.852A3.925,3.925,0,0,0,140.32-4.133Zm15.211,0a5.026,5.026,0,0,1-.891,3.113A2.846,2.846,0,0,1,152.25.156a2.947,2.947,0,0,1-2.477-1.133L149.7,0h-1.328V-12h1.445v4.477a2.93,2.93,0,0,1,2.414-1.086,2.863,2.863,0,0,1,2.418,1.164,5.177,5.177,0,0,1,.879,3.188ZM154.086-4.3a3.906,3.906,0,0,0-.57-2.281,1.888,1.888,0,0,0-1.641-.8,2.122,2.122,0,0,0-2.055,1.328V-2.4a2.181,2.181,0,0,0,2.07,1.328,1.878,1.878,0,0,0,1.617-.8A4.153,4.153,0,0,0,154.086-4.3Zm4.758-4.156V.977q0,2.437-2.211,2.438a2.7,2.7,0,0,1-.883-.14V2.125a2.794,2.794,0,0,0,.656.063.982.982,0,0,0,.738-.262,1.3,1.3,0,0,0,.254-.911V-8.453ZM157.25-10.7a.867.867,0,0,1,.215-.59.79.79,0,0,1,.629-.246.819.819,0,0,1,.641.242.854.854,0,0,1,.219.594.826.826,0,0,1-.219.586.834.834,0,0,1-.641.234.808.808,0,0,1-.633-.234A.843.843,0,0,1,157.25-10.7ZM164.68.156a3.693,3.693,0,0,1-2.8-1.129,4.19,4.19,0,0,1-1.078-3.02v-.266a5.073,5.073,0,0,1,.48-2.246,3.748,3.748,0,0,1,1.344-1.547,3.378,3.378,0,0,1,1.871-.559,3.166,3.166,0,0,1,2.563,1.086,4.7,4.7,0,0,1,.914,3.109v.6H162.25a3,3,0,0,0,.73,2.02,2.3,2.3,0,0,0,1.777.77,2.517,2.517,0,0,0,1.3-.312,3.258,3.258,0,0,0,.93-.828l.883.688A3.55,3.55,0,0,1,164.68.156Zm-.18-7.578a1.928,1.928,0,0,0-1.469.637A3.1,3.1,0,0,0,162.3-5h4.234v-.109a2.753,2.753,0,0,0-.594-1.707A1.815,1.815,0,0,0,164.5-7.422Zm7.109-3.078v2.047h1.578v1.117h-1.578v5.249a1.173,1.173,0,0,0,.211.763.888.888,0,0,0,.719.254,3.5,3.5,0,0,0,.688-.094V0a4.215,4.215,0,0,1-1.109.155,1.8,1.8,0,0,1-1.461-.586,2.517,2.517,0,0,1-.492-1.664V-7.336h-1.539V-8.453h1.539V-10.5Zm2.727,6.2a4.993,4.993,0,0,1,.488-2.234,3.642,3.642,0,0,1,1.359-1.531,3.7,3.7,0,0,1,1.988-.539,3.565,3.565,0,0,1,2.793,1.2,4.6,4.6,0,0,1,1.066,3.18v.1a5.036,5.036,0,0,1-.473,2.215,3.589,3.589,0,0,1-1.352,1.527,3.743,3.743,0,0,1-2.02.547,3.556,3.556,0,0,1-2.785-1.2A4.575,4.575,0,0,1,174.336-4.2Zm1.453.172a3.616,3.616,0,0,0,.652,2.258,2.088,2.088,0,0,0,1.746.852,2.075,2.075,0,0,0,1.75-.863,3.954,3.954,0,0,0,.648-2.418,3.61,3.61,0,0,0-.66-2.254,2.1,2.1,0,0,0-1.754-.863,2.075,2.075,0,0,0-1.727.852A3.925,3.925,0,0,0,175.789-4.133Zm12.977,1.891a1.064,1.064,0,0,0-.441-.91,4.249,4.249,0,0,0-1.539-.559,7.277,7.277,0,0,1-1.742-.562,2.479,2.479,0,0,1-.953-.781,1.869,1.869,0,0,1-.309-1.078,2.193,2.193,0,0,1,.879-1.758,3.432,3.432,0,0,1,2.246-.719,3.532,3.532,0,0,1,2.332.742,2.357,2.357,0,0,1,.895,1.9H188.68a1.3,1.3,0,0,0-.5-1.023,1.888,1.888,0,0,0-1.27-.43,1.976,1.976,0,0,0-1.234.344,1.082,1.082,0,0,0-.445.9.877.877,0,0,0,.414.789,5.1,5.1,0,0,0,1.5.508,7.8,7.8,0,0,1,1.754.578,2.558,2.558,0,0,1,1,.809,1.988,1.988,0,0,1,.324,1.152A2.163,2.163,0,0,1,189.3-.527a3.8,3.8,0,0,1-2.352.684,4.257,4.257,0,0,1-1.8-.359,2.922,2.922,0,0,1-1.223-1,2.42,2.42,0,0,1-.441-1.395h1.445a1.5,1.5,0,0,0,.582,1.152,2.258,2.258,0,0,0,1.434.426,2.331,2.331,0,0,0,1.316-.332A1.02,1.02,0,0,0,188.766-2.242Z" transform="translate(390 14443.078)" fill="#12263f"/>
    <path id="Trazado_900333" data-name="Trazado 900333" d="M-8136.18,2890.795v-32.821h40.129v32.821" transform="translate(9038.051 11694)" fill="none" stroke="#905aae" stroke-width="1"/>
    <path id="Trazado_900399" data-name="Trazado 900399" d="M7.6-2.977H2.836L1.766,0H.219L4.563-11.375H5.875L10.227,0H8.688ZM3.289-4.2H7.156L5.219-9.523ZM11.563-.758a.905.905,0,0,1,.223-.625.848.848,0,0,1,.668-.25.874.874,0,0,1,.676.25.887.887,0,0,1,.23.625.839.839,0,0,1-.23.6.89.89,0,0,1-.676.242.863.863,0,0,1-.668-.242A.855.855,0,0,1,11.563-.758ZM15.969,0V-11.375h3.719a4.317,4.317,0,0,1,2.785.766,2.759,2.759,0,0,1,.934,2.266,2.31,2.31,0,0,1-.453,1.41,2.937,2.937,0,0,1-1.234.949A2.638,2.638,0,0,1,23.176-5a2.814,2.814,0,0,1,.535,1.723,3.042,3.042,0,0,1-.992,2.406,4.1,4.1,0,0,1-2.8.875Zm1.5-5.32v4.094h2.477A2.385,2.385,0,0,0,21.6-1.77a1.907,1.907,0,0,0,.605-1.5q0-2.055-2.234-2.055Zm0-1.2h2.266a2.375,2.375,0,0,0,1.574-.493,1.654,1.654,0,0,0,.59-1.339,1.626,1.626,0,0,0-.547-1.366,2.686,2.686,0,0,0-1.664-.427H17.469Z" transform="translate(914.275 14525.933)" fill="#12263f"/>
    <path id="Trazado_900334" data-name="Trazado 900334" d="M-8041.458,1359.615h16.771" transform="translate(8952.051 13151.138)" fill="none" stroke="#000" stroke-width="1"/>
    <path id="Trazado_900398" data-name="Trazado 900398" d="M2.82-4.453V0H1.32V-11.375h4.2a4.215,4.215,0,0,1,2.926.953A3.231,3.231,0,0,1,9.5-7.9,3.189,3.189,0,0,1,8.465-5.348,4.4,4.4,0,0,1,5.5-4.453Zm0-1.227h2.7a2.7,2.7,0,0,0,1.844-.567A2.075,2.075,0,0,0,8-7.887a2.143,2.143,0,0,0-.641-1.628A2.525,2.525,0,0,0,5.6-10.148H2.82ZM16.406-.836A3.07,3.07,0,0,1,13.93.156a2.628,2.628,0,0,1-2.059-.785,3.4,3.4,0,0,1-.715-2.324v-5.5H12.6v5.461q0,1.922,1.563,1.922a2.163,2.163,0,0,0,2.2-1.234V-8.453h1.445V0H16.438Zm7.109.992a3.693,3.693,0,0,1-2.8-1.129,4.19,4.19,0,0,1-1.078-3.02v-.266a5.073,5.073,0,0,1,.48-2.246,3.748,3.748,0,0,1,1.344-1.547,3.378,3.378,0,0,1,1.871-.559A3.166,3.166,0,0,1,25.9-7.523a4.7,4.7,0,0,1,.914,3.109v.6H21.086a3,3,0,0,0,.73,2.02,2.3,2.3,0,0,0,1.777.77,2.517,2.517,0,0,0,1.3-.312,3.259,3.259,0,0,0,.93-.828l.883.688A3.55,3.55,0,0,1,23.516.156Zm-.18-7.578a1.928,1.928,0,0,0-1.469.637A3.1,3.1,0,0,0,21.133-5h4.234v-.109a2.753,2.753,0,0,0-.594-1.707A1.815,1.815,0,0,0,23.336-7.422Zm9.234.266a4.331,4.331,0,0,0-.711-.055A1.9,1.9,0,0,0,29.93-6V0H28.484V-8.453h1.406l.023.977A2.251,2.251,0,0,1,31.93-8.609a1.477,1.477,0,0,1,.641.109ZM36.25-10.5v2.047h1.578v1.117H36.25v5.249a1.173,1.173,0,0,0,.211.763.888.888,0,0,0,.719.254,3.5,3.5,0,0,0,.688-.094V0a4.215,4.215,0,0,1-1.109.155A1.8,1.8,0,0,1,35.3-.43,2.517,2.517,0,0,1,34.8-2.094V-7.336H33.266V-8.453H34.8V-10.5ZM44.734,0a3.036,3.036,0,0,1-.2-.891A3.225,3.225,0,0,1,42.125.156a2.984,2.984,0,0,1-2.051-.707,2.287,2.287,0,0,1-.8-1.793,2.39,2.39,0,0,1,1-2.051,4.733,4.733,0,0,1,2.824-.73h1.406v-.664A1.623,1.623,0,0,0,44.055-7a1.821,1.821,0,0,0-1.336-.449,2.107,2.107,0,0,0-1.3.391,1.151,1.151,0,0,0-.523.945H39.445a2,2,0,0,1,.449-1.223,3.066,3.066,0,0,1,1.219-.934A4.1,4.1,0,0,1,42.8-8.609a3.342,3.342,0,0,1,2.289.73,2.635,2.635,0,0,1,.859,2.012v3.891a4.757,4.757,0,0,0,.3,1.852V0Zm-2.4-1.1a2.54,2.54,0,0,0,1.289-.352,2.127,2.127,0,0,0,.883-.914V-4.1H43.375q-2.656,0-2.656,1.555a1.316,1.316,0,0,0,.453,1.063A1.742,1.742,0,0,0,42.336-1.1ZM59.484,0H52.031V-1.039l3.938-4.375a9.355,9.355,0,0,0,1.207-1.613,2.693,2.693,0,0,0,.332-1.285,2.041,2.041,0,0,0-.539-1.461,1.885,1.885,0,0,0-1.437-.57,2.232,2.232,0,0,0-1.676.613,2.343,2.343,0,0,0-.6,1.707H51.813a3.355,3.355,0,0,1,1.012-2.539,3.751,3.751,0,0,1,2.707-.969,3.6,3.6,0,0,1,2.508.832,2.838,2.838,0,0,1,.922,2.215q0,1.68-2.141,4l-3.047,3.3h5.711Z" transform="translate(895 14540.433)" fill="#12263f"/>
    <path id="Trazado_900396" data-name="Trazado 900396" d="M9.688-3.609A4.185,4.185,0,0,1,8.355-.824a4.365,4.365,0,0,1-2.98.98,4.008,4.008,0,0,1-3.23-1.445A5.815,5.815,0,0,1,.93-5.156V-6.25A6.481,6.481,0,0,1,1.5-9.039,4.231,4.231,0,0,1,3.1-10.887a4.47,4.47,0,0,1,2.406-.645A4.11,4.11,0,0,1,8.414-10.52a4.235,4.235,0,0,1,1.273,2.8H8.18a3.268,3.268,0,0,0-.848-1.975A2.565,2.565,0,0,0,5.508-10.3,2.684,2.684,0,0,0,3.254-9.241a4.882,4.882,0,0,0-.816,3.026v1.1a5.018,5.018,0,0,0,.773,2.948A2.5,2.5,0,0,0,5.375-1.07a2.887,2.887,0,0,0,1.918-.566A3.143,3.143,0,0,0,8.18-3.609Z" transform="translate(975.219 14490.078)" fill="#12263f"/>
    <rect id="Rectángulo_406599" data-name="Rectángulo 406599" width="12" height="12" transform="translate(975.219 14455.078)" fill="#905aae"/>
    <path id="Trazado_900335" data-name="Trazado 900335" d="M-8214.129,2890.4v85.971" transform="translate(9194.348 11608)" fill="none" stroke="#905aae" stroke-width="1"/>
    <path id="Trazado_900395" data-name="Trazado 900395" d="M4.672-5.07A7.053,7.053,0,0,1,1.863-6.434a2.6,2.6,0,0,1-.879-2,2.751,2.751,0,0,1,1.074-2.223,4.269,4.269,0,0,1,2.793-.879,4.66,4.66,0,0,1,2.09.453,3.436,3.436,0,0,1,1.422,1.25,3.2,3.2,0,0,1,.5,1.742H7.359A2.08,2.08,0,0,0,6.7-9.713,2.669,2.669,0,0,0,4.852-10.3a2.732,2.732,0,0,0-1.73.489A1.632,1.632,0,0,0,2.5-8.458,1.468,1.468,0,0,0,3.09-7.28,5.785,5.785,0,0,0,5.1-6.4a9.316,9.316,0,0,1,2.219.88A3.367,3.367,0,0,1,8.5-4.4a2.861,2.861,0,0,1,.387,1.508A2.658,2.658,0,0,1,7.813-.676,4.6,4.6,0,0,1,4.93.156,5.347,5.347,0,0,1,2.742-.293a3.681,3.681,0,0,1-1.566-1.23A3,3,0,0,1,.625-3.3H2.133a1.959,1.959,0,0,0,.762,1.629,3.207,3.207,0,0,0,2.035.6,2.948,2.948,0,0,0,1.82-.484,1.573,1.573,0,0,0,.633-1.32A1.545,1.545,0,0,0,6.8-4.168,6.755,6.755,0,0,0,4.672-5.07ZM14.094.156A3.693,3.693,0,0,1,11.3-.973a4.19,4.19,0,0,1-1.078-3.02v-.266A5.073,5.073,0,0,1,10.7-6.5a3.748,3.748,0,0,1,1.344-1.547,3.378,3.378,0,0,1,1.871-.559,3.166,3.166,0,0,1,2.563,1.086,4.7,4.7,0,0,1,.914,3.109v.6H11.664a3,3,0,0,0,.73,2.02,2.3,2.3,0,0,0,1.777.77,2.517,2.517,0,0,0,1.3-.312,3.259,3.259,0,0,0,.93-.828l.883.688A3.55,3.55,0,0,1,14.094.156Zm-.18-7.578a1.928,1.928,0,0,0-1.469.637A3.1,3.1,0,0,0,11.711-5h4.234v-.109a2.753,2.753,0,0,0-.594-1.707A1.815,1.815,0,0,0,13.914-7.422ZM20.43-8.453l.047,1.063a3.08,3.08,0,0,1,2.531-1.219q2.68,0,2.7,3.023V0H24.266V-5.594a1.946,1.946,0,0,0-.418-1.352,1.675,1.675,0,0,0-1.277-.437,2.086,2.086,0,0,0-1.234.375,2.546,2.546,0,0,0-.828.984V0H19.063V-8.453ZM32.813-2.242a1.064,1.064,0,0,0-.441-.91,4.249,4.249,0,0,0-1.539-.559,7.277,7.277,0,0,1-1.742-.562,2.479,2.479,0,0,1-.953-.781,1.869,1.869,0,0,1-.309-1.078,2.193,2.193,0,0,1,.879-1.758,3.432,3.432,0,0,1,2.246-.719,3.532,3.532,0,0,1,2.332.742,2.357,2.357,0,0,1,.895,1.9H32.727a1.3,1.3,0,0,0-.5-1.023,1.888,1.888,0,0,0-1.27-.43,1.976,1.976,0,0,0-1.234.344,1.082,1.082,0,0,0-.445.9.877.877,0,0,0,.414.789,5.1,5.1,0,0,0,1.5.508,7.8,7.8,0,0,1,1.754.578,2.558,2.558,0,0,1,1,.809,1.988,1.988,0,0,1,.324,1.152,2.163,2.163,0,0,1-.906,1.816A3.8,3.8,0,0,1,31,.156,4.257,4.257,0,0,1,29.2-.2a2.922,2.922,0,0,1-1.223-1A2.42,2.42,0,0,1,27.539-2.6h1.445a1.5,1.5,0,0,0,.582,1.152A2.258,2.258,0,0,0,31-1.023a2.331,2.331,0,0,0,1.316-.332A1.02,1.02,0,0,0,32.813-2.242ZM35.758-4.3a4.993,4.993,0,0,1,.488-2.234A3.643,3.643,0,0,1,37.605-8.07a3.7,3.7,0,0,1,1.988-.539,3.565,3.565,0,0,1,2.793,1.2,4.6,4.6,0,0,1,1.066,3.18v.1a5.036,5.036,0,0,1-.473,2.215A3.589,3.589,0,0,1,41.629-.391a3.743,3.743,0,0,1-2.02.547,3.556,3.556,0,0,1-2.785-1.2A4.575,4.575,0,0,1,35.758-4.2Zm1.453.172a3.616,3.616,0,0,0,.652,2.258,2.088,2.088,0,0,0,1.746.852,2.075,2.075,0,0,0,1.75-.863A3.955,3.955,0,0,0,42.008-4.3a3.61,3.61,0,0,0-.66-2.254,2.1,2.1,0,0,0-1.754-.863,2.075,2.075,0,0,0-1.727.852A3.925,3.925,0,0,0,37.211-4.133ZM49.352-7.156a4.331,4.331,0,0,0-.711-.055A1.9,1.9,0,0,0,46.711-6V0H45.266V-8.453h1.406l.023.977a2.251,2.251,0,0,1,2.016-1.133,1.477,1.477,0,0,1,.641.109Zm8.3,2.914H53.836v-1.18h3.813Zm13.141-5.906H67.133V0H65.641V-10.148H61.992v-1.227h8.8ZM73.82,0H72.375V-8.453H73.82ZM72.258-10.7a.863.863,0,0,1,.215-.594.807.807,0,0,1,.637-.242.819.819,0,0,1,.641.242.854.854,0,0,1,.219.594.826.826,0,0,1-.219.586.834.834,0,0,1-.641.234.821.821,0,0,1-.637-.234A.834.834,0,0,1,72.258-10.7Zm3.523,6.4A4.961,4.961,0,0,1,76.7-7.449a2.962,2.962,0,0,1,2.453-1.16A2.96,2.96,0,0,1,81.516-7.6l.063-.852h1.328V3.25H81.461V-.781a3.033,3.033,0,0,1-2.328.938,2.915,2.915,0,0,1-2.441-1.191,5.072,5.072,0,0,1-.91-3.16Zm1.445.164a3.761,3.761,0,0,0,.613,2.281,1.951,1.951,0,0,0,1.652.828,2.164,2.164,0,0,0,1.969-1.141V-6.3a2.171,2.171,0,0,0-1.953-1.117,1.965,1.965,0,0,0-1.664.832A4.094,4.094,0,0,0,77.227-4.133Zm13.219,3.3a3.07,3.07,0,0,1-2.477.992A2.628,2.628,0,0,1,85.91-.629,3.4,3.4,0,0,1,85.2-2.953v-5.5h1.445v5.461q0,1.922,1.563,1.922a2.163,2.163,0,0,0,2.2-1.234V-8.453h1.445V0H90.477Zm7.109.992a3.693,3.693,0,0,1-2.8-1.129,4.19,4.19,0,0,1-1.078-3.02v-.266A5.073,5.073,0,0,1,94.16-6.5,3.748,3.748,0,0,1,95.5-8.051a3.378,3.378,0,0,1,1.871-.559,3.166,3.166,0,0,1,2.563,1.086,4.7,4.7,0,0,1,.914,3.109v.6H95.125a3,3,0,0,0,.73,2.02,2.3,2.3,0,0,0,1.777.77,2.517,2.517,0,0,0,1.3-.312,3.259,3.259,0,0,0,.93-.828l.883.688A3.55,3.55,0,0,1,97.555.156Zm-.18-7.578a1.928,1.928,0,0,0-1.469.637A3.1,3.1,0,0,0,95.172-5h4.234v-.109a2.753,2.753,0,0,0-.594-1.707A1.815,1.815,0,0,0,97.375-7.422Zm7.109-3.078v2.047h1.578v1.117h-1.578v5.249a1.173,1.173,0,0,0,.211.763.888.888,0,0,0,.719.254,3.5,3.5,0,0,0,.688-.094V0a4.215,4.215,0,0,1-1.109.155,1.8,1.8,0,0,1-1.461-.586,2.517,2.517,0,0,1-.492-1.664V-7.336H101.5V-8.453h1.539V-10.5ZM111.258.156a3.693,3.693,0,0,1-2.8-1.129,4.19,4.19,0,0,1-1.078-3.02v-.266a5.073,5.073,0,0,1,.48-2.246,3.748,3.748,0,0,1,1.344-1.547,3.378,3.378,0,0,1,1.871-.559,3.166,3.166,0,0,1,2.563,1.086,4.7,4.7,0,0,1,.914,3.109v.6h-5.727a3,3,0,0,0,.73,2.02,2.3,2.3,0,0,0,1.777.77,2.517,2.517,0,0,0,1.3-.312,3.259,3.259,0,0,0,.93-.828l.883.688A3.55,3.55,0,0,1,111.258.156Zm-.18-7.578a1.928,1.928,0,0,0-1.469.637A3.1,3.1,0,0,0,108.875-5h4.234v-.109a2.753,2.753,0,0,0-.594-1.707A1.815,1.815,0,0,0,111.078-7.422Z" transform="translate(995 14466.578)" fill="#12263f"/>
    <path id="Trazado_900336" data-name="Trazado 900336" d="M-8214.129,2890.4v58.94" transform="translate(9232.129 11635.031)" fill="none" stroke="#905aae" stroke-width="1"/>
    <path id="Trazado_900397" data-name="Trazado 900397" d="M2.82-4.453V0H1.32V-11.375h4.2a4.215,4.215,0,0,1,2.926.953A3.231,3.231,0,0,1,9.5-7.9,3.189,3.189,0,0,1,8.465-5.348,4.4,4.4,0,0,1,5.5-4.453Zm0-1.227h2.7a2.7,2.7,0,0,0,1.844-.567A2.075,2.075,0,0,0,8-7.887a2.143,2.143,0,0,0-.641-1.628A2.525,2.525,0,0,0,5.6-10.148H2.82ZM16.406-.836A3.07,3.07,0,0,1,13.93.156a2.628,2.628,0,0,1-2.059-.785,3.4,3.4,0,0,1-.715-2.324v-5.5H12.6v5.461q0,1.922,1.563,1.922a2.163,2.163,0,0,0,2.2-1.234V-8.453h1.445V0H16.438Zm7.109.992a3.693,3.693,0,0,1-2.8-1.129,4.19,4.19,0,0,1-1.078-3.02v-.266a5.073,5.073,0,0,1,.48-2.246,3.748,3.748,0,0,1,1.344-1.547,3.378,3.378,0,0,1,1.871-.559A3.166,3.166,0,0,1,25.9-7.523a4.7,4.7,0,0,1,.914,3.109v.6H21.086a3,3,0,0,0,.73,2.02,2.3,2.3,0,0,0,1.777.77,2.517,2.517,0,0,0,1.3-.312,3.259,3.259,0,0,0,.93-.828l.883.688A3.55,3.55,0,0,1,23.516.156Zm-.18-7.578a1.928,1.928,0,0,0-1.469.637A3.1,3.1,0,0,0,21.133-5h4.234v-.109a2.753,2.753,0,0,0-.594-1.707A1.815,1.815,0,0,0,23.336-7.422Zm9.234.266a4.331,4.331,0,0,0-.711-.055A1.9,1.9,0,0,0,29.93-6V0H28.484V-8.453h1.406l.023.977A2.251,2.251,0,0,1,31.93-8.609a1.477,1.477,0,0,1,.641.109ZM36.25-10.5v2.047h1.578v1.117H36.25v5.249a1.173,1.173,0,0,0,.211.763.888.888,0,0,0,.719.254,3.5,3.5,0,0,0,.688-.094V0a4.215,4.215,0,0,1-1.109.155A1.8,1.8,0,0,1,35.3-.43,2.517,2.517,0,0,1,34.8-2.094V-7.336H33.266V-8.453H34.8V-10.5ZM44.734,0a3.036,3.036,0,0,1-.2-.891A3.225,3.225,0,0,1,42.125.156a2.984,2.984,0,0,1-2.051-.707,2.287,2.287,0,0,1-.8-1.793,2.39,2.39,0,0,1,1-2.051,4.733,4.733,0,0,1,2.824-.73h1.406v-.664A1.623,1.623,0,0,0,44.055-7a1.821,1.821,0,0,0-1.336-.449,2.107,2.107,0,0,0-1.3.391,1.151,1.151,0,0,0-.523.945H39.445a2,2,0,0,1,.449-1.223,3.066,3.066,0,0,1,1.219-.934A4.1,4.1,0,0,1,42.8-8.609a3.342,3.342,0,0,1,2.289.73,2.635,2.635,0,0,1,.859,2.012v3.891a4.757,4.757,0,0,0,.3,1.852V0Zm-2.4-1.1a2.54,2.54,0,0,0,1.289-.352,2.127,2.127,0,0,0,.883-.914V-4.1H43.375q-2.656,0-2.656,1.555a1.316,1.316,0,0,0,.453,1.063A1.742,1.742,0,0,0,42.336-1.1Zm11.8-5.289h1.086a2.387,2.387,0,0,0,1.609-.539,1.8,1.8,0,0,0,.586-1.414,1.764,1.764,0,0,0-1.992-2,2.072,2.072,0,0,0-1.5.535,1.873,1.873,0,0,0-.559,1.418H51.922a2.9,2.9,0,0,1,.988-2.246,3.6,3.6,0,0,1,2.512-.895,3.558,3.558,0,0,1,2.523.852,3.076,3.076,0,0,1,.914,2.367,2.5,2.5,0,0,1-.48,1.438A2.9,2.9,0,0,1,57.07-5.836a2.8,2.8,0,0,1,1.449.984,2.734,2.734,0,0,1,.512,1.68,3.1,3.1,0,0,1-1,2.43,3.745,3.745,0,0,1-2.6.9,3.844,3.844,0,0,1-2.605-.867A2.877,2.877,0,0,1,51.82-3h1.453a1.859,1.859,0,0,0,.586,1.438,2.229,2.229,0,0,0,1.57.539,2.187,2.187,0,0,0,1.6-.547,2.108,2.108,0,0,0,.555-1.57,1.912,1.912,0,0,0-.609-1.523,2.655,2.655,0,0,0-1.758-.547H54.133ZM64.742-4.3a4.993,4.993,0,0,1,.488-2.234A3.643,3.643,0,0,1,66.59-8.07a3.7,3.7,0,0,1,1.988-.539,3.565,3.565,0,0,1,2.793,1.2,4.6,4.6,0,0,1,1.066,3.18v.1a5.036,5.036,0,0,1-.473,2.215A3.589,3.589,0,0,1,70.613-.391a3.743,3.743,0,0,1-2.02.547,3.556,3.556,0,0,1-2.785-1.2A4.575,4.575,0,0,1,64.742-4.2Zm1.453.172a3.616,3.616,0,0,0,.652,2.258,2.088,2.088,0,0,0,1.746.852,2.075,2.075,0,0,0,1.75-.863A3.955,3.955,0,0,0,70.992-4.3a3.61,3.61,0,0,0-.66-2.254,2.1,2.1,0,0,0-1.754-.863,2.075,2.075,0,0,0-1.727.852A3.925,3.925,0,0,0,66.2-4.133Zm3.039-7.852h1.75l-2.094,2.3-1.164,0ZM81.789-5.07A7.053,7.053,0,0,1,78.98-6.434a2.6,2.6,0,0,1-.879-2,2.751,2.751,0,0,1,1.074-2.223,4.269,4.269,0,0,1,2.793-.879,4.66,4.66,0,0,1,2.09.453,3.436,3.436,0,0,1,1.422,1.25,3.2,3.2,0,0,1,.5,1.742H84.477a2.08,2.08,0,0,0-.656-1.627,2.669,2.669,0,0,0-1.852-.592,2.732,2.732,0,0,0-1.73.489,1.632,1.632,0,0,0-.621,1.358,1.468,1.468,0,0,0,.59,1.178,5.785,5.785,0,0,0,2.008.88,9.316,9.316,0,0,1,2.219.88A3.367,3.367,0,0,1,85.621-4.4a2.861,2.861,0,0,1,.387,1.508A2.658,2.658,0,0,1,84.93-.676a4.6,4.6,0,0,1-2.883.832,5.347,5.347,0,0,1-2.187-.449,3.681,3.681,0,0,1-1.566-1.23A3,3,0,0,1,77.742-3.3H79.25a1.959,1.959,0,0,0,.762,1.629,3.207,3.207,0,0,0,2.035.6,2.948,2.948,0,0,0,1.82-.484,1.573,1.573,0,0,0,.633-1.32,1.545,1.545,0,0,0-.586-1.293A6.755,6.755,0,0,0,81.789-5.07ZM92.922,0a3.036,3.036,0,0,1-.2-.891A3.225,3.225,0,0,1,90.313.156a2.984,2.984,0,0,1-2.051-.707,2.288,2.288,0,0,1-.8-1.793,2.39,2.39,0,0,1,1-2.051,4.733,4.733,0,0,1,2.824-.73H92.7v-.664A1.623,1.623,0,0,0,92.242-7a1.821,1.821,0,0,0-1.336-.449,2.108,2.108,0,0,0-1.3.391,1.151,1.151,0,0,0-.523.945H87.633a2,2,0,0,1,.449-1.223A3.066,3.066,0,0,1,89.3-8.266a4.1,4.1,0,0,1,1.691-.344,3.342,3.342,0,0,1,2.289.73,2.635,2.635,0,0,1,.859,2.012v3.891a4.757,4.757,0,0,0,.3,1.852V0Zm-2.4-1.1a2.54,2.54,0,0,0,1.289-.352,2.127,2.127,0,0,0,.883-.914V-4.1H91.563q-2.656,0-2.656,1.555a1.316,1.316,0,0,0,.453,1.063A1.742,1.742,0,0,0,90.523-1.1ZM97.977,0H96.531V-12h1.445Zm3.883,0h-1.445V-8.453h1.445ZM100.3-10.7a.863.863,0,0,1,.215-.594.807.807,0,0,1,.637-.242.819.819,0,0,1,.641.242.854.854,0,0,1,.219.594.826.826,0,0,1-.219.586.834.834,0,0,1-.641.234.821.821,0,0,1-.637-.234A.834.834,0,0,1,100.3-10.7Zm3.523,6.4a4.952,4.952,0,0,1,.922-3.129,2.915,2.915,0,0,1,2.414-1.184,2.932,2.932,0,0,1,2.352,1.016V-12h1.445V0h-1.328l-.07-.906A2.943,2.943,0,0,1,107.141.156a2.887,2.887,0,0,1-2.395-1.2,5.008,5.008,0,0,1-.926-3.141Zm1.445.164a3.749,3.749,0,0,0,.594,2.25,1.92,1.92,0,0,0,1.641.813A2.109,2.109,0,0,0,109.508-2.3V-6.187a2.125,2.125,0,0,0-1.992-1.2,1.929,1.929,0,0,0-1.656.82A4.128,4.128,0,0,0,105.266-4.133ZM118.414,0a3.036,3.036,0,0,1-.2-.891A3.225,3.225,0,0,1,115.8.156a2.984,2.984,0,0,1-2.051-.707,2.288,2.288,0,0,1-.8-1.793,2.39,2.39,0,0,1,1-2.051,4.733,4.733,0,0,1,2.824-.73h1.406v-.664A1.623,1.623,0,0,0,117.734-7a1.821,1.821,0,0,0-1.336-.449,2.108,2.108,0,0,0-1.3.391,1.151,1.151,0,0,0-.523.945h-1.453a2,2,0,0,1,.449-1.223,3.066,3.066,0,0,1,1.219-.934,4.1,4.1,0,0,1,1.691-.344,3.342,3.342,0,0,1,2.289.73,2.635,2.635,0,0,1,.859,2.012v3.891a4.757,4.757,0,0,0,.3,1.852V0Zm-2.4-1.1a2.54,2.54,0,0,0,1.289-.352,2.127,2.127,0,0,0,.883-.914V-4.1h-1.133q-2.656,0-2.656,1.555a1.316,1.316,0,0,0,.453,1.063A1.742,1.742,0,0,0,116.016-1.1Z" transform="translate(1020 14513.401)" fill="#12263f"/>
    <path id="Trazado_900402" data-name="Trazado 900402" d="M1.039-4.617a12.079,12.079,0,0,1,.473-3.391,9.85,9.85,0,0,1,1.41-2.953,6,6,0,0,1,1.945-1.875l.3.953A6.222,6.222,0,0,0,3.293-9.211a11.583,11.583,0,0,0-.8,4.023l-.008.664A11.643,11.643,0,0,0,3.586.711,6.252,6.252,0,0,0,5.164,2.789l-.3.883A6.192,6.192,0,0,1,2.883,1.734,10.859,10.859,0,0,1,1.039-4.617ZM13.07-2.977H8.3L7.234,0H5.688l4.344-11.375h1.313L15.7,0H14.156ZM8.758-4.2h3.867l-1.937-5.32ZM17.031-.758a.905.905,0,0,1,.223-.625.848.848,0,0,1,.668-.25.874.874,0,0,1,.676.25.887.887,0,0,1,.23.625.839.839,0,0,1-.23.6.89.89,0,0,1-.676.242.863.863,0,0,1-.668-.242A.855.855,0,0,1,17.031-.758ZM21.438,0V-11.375h3.719a4.317,4.317,0,0,1,2.785.766,2.759,2.759,0,0,1,.934,2.266,2.31,2.31,0,0,1-.453,1.41,2.937,2.937,0,0,1-1.234.949A2.638,2.638,0,0,1,28.645-5a2.814,2.814,0,0,1,.535,1.723,3.042,3.042,0,0,1-.992,2.406,4.1,4.1,0,0,1-2.8.875Zm1.5-5.32v4.094h2.477a2.385,2.385,0,0,0,1.652-.543,1.907,1.907,0,0,0,.605-1.5q0-2.055-2.234-2.055Zm0-1.2H25.2a2.375,2.375,0,0,0,1.574-.493,1.654,1.654,0,0,0,.59-1.339,1.626,1.626,0,0,0-.547-1.366,2.686,2.686,0,0,0-1.664-.427H22.938ZM31.2-.758a.905.905,0,0,1,.223-.625.848.848,0,0,1,.668-.25.874.874,0,0,1,.676.25A.887.887,0,0,1,33-.758a.839.839,0,0,1-.23.6.89.89,0,0,1-.676.242.863.863,0,0,1-.668-.242A.855.855,0,0,1,31.2-.758ZM43.977-3.609A4.185,4.185,0,0,1,42.645-.824a4.365,4.365,0,0,1-2.98.98,4.008,4.008,0,0,1-3.23-1.445,5.815,5.815,0,0,1-1.215-3.867V-6.25a6.481,6.481,0,0,1,.566-2.789,4.231,4.231,0,0,1,1.605-1.848,4.47,4.47,0,0,1,2.406-.645A4.11,4.11,0,0,1,42.7-10.52a4.235,4.235,0,0,1,1.273,2.8H42.469a3.268,3.268,0,0,0-.848-1.975A2.565,2.565,0,0,0,39.8-10.3a2.684,2.684,0,0,0-2.254,1.063,4.882,4.882,0,0,0-.816,3.026v1.1A5.018,5.018,0,0,0,37.5-2.165,2.5,2.5,0,0,0,39.664-1.07a2.887,2.887,0,0,0,1.918-.566,3.143,3.143,0,0,0,.887-1.973Zm4.953-.93a12.084,12.084,0,0,1-.457,3.34,9.876,9.876,0,0,1-1.4,2.949A6.127,6.127,0,0,1,45.1,3.672l-.3-.883A6.281,6.281,0,0,0,46.73-.074a12.387,12.387,0,0,0,.746-4.309v-.25a12.861,12.861,0,0,0-.344-3.051,10.3,10.3,0,0,0-.957-2.527A5.838,5.838,0,0,0,44.8-11.953l.3-.883a6.1,6.1,0,0,1,1.965,1.906,9.9,9.9,0,0,1,1.4,2.945A12.363,12.363,0,0,1,48.93-4.539Z" transform="translate(1030 14565.4)" fill="#12263f"/>
    <path id="Trazado_900337" data-name="Trazado 900337" d="M-8041.458,1359.615h16.771" transform="translate(9073.482 13188.787)" fill="none" stroke="#000" stroke-width="1"/>
  </g>
</svg>
