<svg xmlns="http://www.w3.org/2000/svg" xmlns:xlink="http://www.w3.org/1999/xlink" width="54.93" height="73" viewBox="0 0 54.93 73">
  <defs>
    <filter id="Rectángulo_401320" x="0" y="0" width="36" height="73" filterUnits="userSpaceOnUse">
      <feOffset dy="3" input="SourceAlpha"/>
      <feGaussianBlur stdDeviation="3" result="blur"/>
      <feFlood flood-opacity="0.161"/>
      <feComposite operator="in" in2="blur"/>
      <feComposite in="SourceGraphic"/>
    </filter>
    <filter id="Rectángulo_401321" x="9" y="5" width="36" height="68" filterUnits="userSpaceOnUse">
      <feOffset dy="3" input="SourceAlpha"/>
      <feGaussianBlur stdDeviation="3" result="blur-2"/>
      <feFlood flood-opacity="0.161"/>
      <feComposite operator="in" in2="blur-2"/>
      <feComposite in="SourceGraphic"/>
    </filter>
  </defs>
  <g id="Grupo_1107629" data-name="Grupo 1107629" transform="translate(-181.73 -2027)">
    <g transform="matrix(1, 0, 0, 1, 181.73, 2027)" filter="url(#Rectángulo_401320)">
      <rect id="Rectángulo_401320-2" data-name="Rectángulo 401320" width="18" height="55" transform="translate(9 6)" fill="#fed4e9"/>
    </g>
    <g transform="matrix(1, 0, 0, 1, 181.73, 2027)" filter="url(#Rectángulo_401321)">
      <rect id="Rectángulo_401321-2" data-name="Rectángulo 401321" width="18" height="50" transform="translate(18 11)" fill="#fee9f4"/>
    </g>
    <g id="consulting_2145726" transform="translate(161.727 2026)">
      <path id="Trazado_897072" data-name="Trazado 897072" d="M69.134,231.128V249.3H40V231.128a3.067,3.067,0,0,1,1.522-2.649l5.544-3.235,1.328-.774L49.2,224H59.933l.806.471,1.328.774,5.544,3.234A3.067,3.067,0,0,1,69.134,231.128Z" transform="translate(-7.233 -188.067)" fill="#f6bb00"/>
      <path id="Trazado_897073" data-name="Trazado 897073" d="M309.033,440l-3.028,3.028a5.367,5.367,0,0,1-3.795,1.572H296V440Z" transform="translate(-238.7 -383.366)" fill="#deae7e"/>
      <path id="Trazado_897074" data-name="Trazado 897074" d="M40,393.967h9.967A9.967,9.967,0,0,1,40,384Z" transform="translate(-7.233 -332.733)" fill="#eda600"/>
      <rect id="Rectángulo_402185" data-name="Rectángulo 402185" width="12" height="19" transform="translate(59.467 38)" fill="#7e57df"/>
      <path id="Trazado_897075" data-name="Trazado 897075" d="M152,343.667V336h7.667v8.433Z" transform="translate(-108.5 -289.333)" fill="#548aff"/>
      <path id="Trazado_897076" data-name="Trazado 897076" d="M352,282.3a2.3,2.3,0,0,0,2.3-2.3h3.833v12.267H352Z" transform="translate(-289.333 -238.7)" fill="#633dcc"/>
      <path id="Trazado_897077" data-name="Trazado 897077" d="M256,403.062h6.21a5.367,5.367,0,0,0,3.795-1.572l2.956-2.956a1.447,1.447,0,0,0,.181-1.826h0a1.447,1.447,0,0,0-2.108-.327l-1.971,1.577a2.3,2.3,0,0,1-1.437.5h-1.493s.351-1.753.58-2.887a1.26,1.26,0,0,0-.674-1.377l-.02-.01a1.223,1.223,0,0,0-1.258.1L256,397.7Z" transform="translate(-202.533 -341.828)" fill="#f5c99d"/>
      <path id="Trazado_897078" data-name="Trazado 897078" d="M130.733,28.6V26.3a2.3,2.3,0,0,0-2.3-2.3h-3.067A5.367,5.367,0,0,0,120,29.367V30.9l1.758-1.758a1.851,1.851,0,0,1,1.309-.542h0a1.851,1.851,0,0,1,1.309.542l1.216,1.216a1.851,1.851,0,0,0,1.309.542h0a1.851,1.851,0,0,0,1.309-.542l1.216-1.216A1.851,1.851,0,0,1,130.733,28.6Z" transform="translate(-79.567 -7.233)" fill="#b1792c"/>
      <path id="Trazado_897079" data-name="Trazado 897079" d="M232.767,40h0a2.3,2.3,0,0,1,2.3,2.3v3.067l-1.758-1.758A1.851,1.851,0,0,0,232,43.067h0v-2.3A.767.767,0,0,1,232.767,40Z" transform="translate(-180.833 -21.7)" fill="#956625"/>
      <path id="Trazado_897080" data-name="Trazado 897080" d="M133.8,74.3v7.667a6.9,6.9,0,0,1-6.9,6.9h0a6.9,6.9,0,0,1-6.9-6.9V74.3l1.758-1.758A1.851,1.851,0,0,1,123.067,72h0a1.851,1.851,0,0,1,1.309.542l1.216,1.216a1.851,1.851,0,0,0,1.309.542h0a1.851,1.851,0,0,0,1.309-.542l1.216-1.216A1.851,1.851,0,0,1,130.733,72h0a1.851,1.851,0,0,1,1.309.542Z" transform="translate(-79.567 -50.633)" fill="#f5c99d"/>
      <path id="Trazado_897081" data-name="Trazado 897081" d="M63.511,62a6.094,6.094,0,0,0,4.337-1.8l2.8-2.8h1.216a.767.767,0,0,0,.767-.767v-4.6h2.3V50.5h-2.3V48.967h2.3V47.434h-2.3V45.9h2.3V44.367h-2.3V42.833h2.3V41.3h-2.3V38.233a.767.767,0,0,0-.767-.767h-2.3v-2.3H68.034v2.3H66.5v-2.3H64.967v2.3H63.434v-2.3H61.9v2.3H59.6a.767.767,0,0,0-.767.767v.39l-5.147-3A7.623,7.623,0,0,0,55,31.333V20.6a3.07,3.07,0,0,0-3.067-3.067h-.413A3.068,3.068,0,0,0,48.867,16H45.8a6.14,6.14,0,0,0-6.133,6.133v9.2a7.623,7.623,0,0,0,1.314,4.288L33.9,39.75A3.846,3.846,0,0,0,32,43.062V61.234a.767.767,0,0,0,.767.767Zm-9.277-1.533V56.261l4.441-3.178a.455.455,0,0,1,.472-.036l.017.008a.5.5,0,0,1,.266.539c-.23,1.135-.58,2.888-.58,2.888a.767.767,0,0,0,.752.917h1.493a3.078,3.078,0,0,0,1.916-.672l1.971-1.577a.68.68,0,0,1,.906,1.012L62.93,59.12a4.57,4.57,0,0,1-3.253,1.347Zm9.2-7.667V44.27a3.078,3.078,0,0,0,2.2-2.2h2.4V52.8Zm3.33,6.319a4.567,4.567,0,0,1-3.024,1.342c.094-.083.186-.168.275-.258l2.8-2.8h1.665ZM60.367,39H71.1V55.867H67.608a2.208,2.208,0,0,0-.361-1.412c-.028-.042-.057-.082-.088-.121H68.8a.767.767,0,0,0,.767-.767V41.3a.767.767,0,0,0-.767-.767H64.967a.767.767,0,0,0-.767.767,1.535,1.535,0,0,1-1.533,1.533.767.767,0,0,0-.767.767v9.967a.767.767,0,0,0,.767.767h.881l-1.5,1.2a1.539,1.539,0,0,1-.958.336h-.558c.119-.595.275-1.368.4-1.968a2.028,2.028,0,0,0-.59-1.865h.025Zm-1.533,2.3h-2.3v1.533h2.3v1.533h-2.3V45.9h2.3v1.533h-2.3v1.533h2.3V50.5h-2.3v1.533h.972l-4.223,3.022-1.349-.238V46.667a.767.767,0,0,0-.767-.767H48.8l5.6-8.089L58.833,40.4ZM51.167,22.133a1.077,1.077,0,0,1,.767.318l1.533,1.533v7.349a6.133,6.133,0,0,1-12.267,0V23.984l1.533-1.533a1.084,1.084,0,0,1,1.533,0l1.216,1.216a2.618,2.618,0,0,0,3.7,0L50.4,22.451a1.077,1.077,0,0,1,.767-.318ZM47.333,39a7.64,7.64,0,0,0,5.354-2.186l.381.222L47.333,45.32,41.6,37.036l.381-.222A7.64,7.64,0,0,0,47.333,39Zm0,10.733a.767.767,0,0,0,.767-.767V47.434h2.3v7.114l-6.133-1.082V47.434h2.3v1.533a.767.767,0,0,0,.767.767ZM53.467,20.6v1.216l-.449-.449a2.6,2.6,0,0,0-1.084-.653V19.067A1.535,1.535,0,0,1,53.467,20.6ZM45.8,17.533h3.067A1.535,1.535,0,0,1,50.4,19.067v1.647a2.6,2.6,0,0,0-1.084.653L48.1,22.582a1.084,1.084,0,0,1-1.533,0l-1.216-1.216a2.618,2.618,0,0,0-3.7,0l-.436.436A4.605,4.605,0,0,1,45.8,17.533ZM33.533,43.062a2.308,2.308,0,0,1,1.141-1.987l5.6-3.264,5.6,8.089H43.5a.767.767,0,0,0-.767.767v6.495A2.3,2.3,0,0,1,41.2,50.994V48.967H39.667v2.027a3.828,3.828,0,0,0,3.167,3.775L52.7,56.51v3.957H42.733a9.21,9.21,0,0,1-9.2-9.2Zm0,13.728a10.816,10.816,0,0,0,3.677,3.677H33.533Z"/>
      <rect id="Rectángulo_402186" data-name="Rectángulo 402186" width="1" height="5" transform="translate(65.467 46)"/>
    </g>
  </g>
</svg>
