<svg xmlns="http://www.w3.org/2000/svg" xmlns:xlink="http://www.w3.org/1999/xlink" width="728.594" height="166.231" viewBox="0 0 728.594 166.231">
  <defs>
    <clipPath id="clip-path">
      <rect id="Rectángulo_406418" data-name="Rectángulo 406418" width="47.412" height="38.82" fill="#905aae"/>
    </clipPath>
  </defs>
  <g id="Grupo_1113122" data-name="Grupo 1113122" transform="translate(6957.781 1379.881)">
    <path id="Trazado_900355" data-name="Trazado 900355" d="M7.6-2.977H2.836L1.766,0H.219L4.563-11.375H5.875L10.227,0H8.688ZM3.289-4.2H7.156L5.219-9.523Z" transform="translate(-6958 -1365.35)" fill="#12263f"/>
    <path id="Trazado_900356" data-name="Trazado 900356" d="M1.32,0V-11.375H5.039a4.317,4.317,0,0,1,2.785.766,2.759,2.759,0,0,1,.934,2.266A2.31,2.31,0,0,1,8.3-6.934a2.938,2.938,0,0,1-1.234.949A2.638,2.638,0,0,1,8.527-5a2.814,2.814,0,0,1,.535,1.723A3.042,3.042,0,0,1,8.07-.875,4.1,4.1,0,0,1,5.266,0Zm1.5-5.32v4.094H5.3A2.385,2.385,0,0,0,6.949-1.77a1.907,1.907,0,0,0,.605-1.5q0-2.055-2.234-2.055Zm0-1.2H5.086A2.375,2.375,0,0,0,6.66-7.017a1.654,1.654,0,0,0,.59-1.339A1.626,1.626,0,0,0,6.7-9.722a2.686,2.686,0,0,0-1.664-.427H2.82Z" transform="translate(-6958 -1309.35)" fill="#12263f"/>
    <path id="Trazado_900361" data-name="Trazado 900361" d="M9.688-3.609A4.185,4.185,0,0,1,8.355-.824a4.365,4.365,0,0,1-2.98.98,4.008,4.008,0,0,1-3.23-1.445A5.815,5.815,0,0,1,.93-5.156V-6.25A6.481,6.481,0,0,1,1.5-9.039,4.231,4.231,0,0,1,3.1-10.887a4.47,4.47,0,0,1,2.406-.645A4.11,4.11,0,0,1,8.414-10.52a4.235,4.235,0,0,1,1.273,2.8H8.18a3.268,3.268,0,0,0-.848-1.975A2.565,2.565,0,0,0,5.508-10.3,2.684,2.684,0,0,0,3.254-9.241a4.882,4.882,0,0,0-.816,3.026v1.1a5.018,5.018,0,0,0,.773,2.948A2.5,2.5,0,0,0,5.375-1.07a2.887,2.887,0,0,0,1.918-.566A3.143,3.143,0,0,0,8.18-3.609Z" transform="translate(-6953.975 -1235.939)" fill="#12263f"/>
    <path id="Trazado_900357" data-name="Trazado 900357" d="M0,0H12V12H0Z" transform="translate(-6937.949 -1376.35)" fill="#905aae"/>
    <path id="Trazado_900358" data-name="Trazado 900358" d="M0,0H12V12H0Z" transform="translate(-6937.949 -1320.35)" fill="#905aae"/>
    <path id="Trazado_900362" data-name="Trazado 900362" d="M0,0H12V12H0Z" transform="translate(-6933.924 -1246.939)" fill="#905aae"/>
    <g id="Grupo_1113055" data-name="Grupo 1113055" transform="translate(-6796.655 -1379.35)">
      <g id="Grupo_1113053" data-name="Grupo 1113053" transform="translate(0 0)" clip-path="url(#clip-path)">
        <path id="Trazado_900067" data-name="Trazado 900067" d="M8.131,19.08C7.636,17.595.706,2.244.706,2.244s29.7-10.133,46.78,18.45c0,0-10.148,20.565-46.78,17.891Z" transform="translate(-0.357 -0.252)" fill="#905aae"/>
      </g>
    </g>
    <path id="Trazado_900359" data-name="Trazado 900359" d="M5.5,0A5.5,5.5,0,1,1,0,5.5,5.5,5.5,0,0,1,5.5,0Z" transform="translate(-6912.949 -1375.35)" fill="#905aae"/>
    <path id="Trazado_900068" data-name="Trazado 900068" d="M-8128.5-10204.5h115.449" transform="translate(1221.051 8834.65)" fill="none" stroke="#905aae" stroke-width="1"/>
    <path id="Trazado_900222" data-name="Trazado 900222" d="M224.59,80.123h28.08s12.111,3.053,10.8,17.448c-1.066,11.729-13.019,14.123-13.019,14.123H224.59Z" transform="translate(-6798.59 -1404.258)" fill="#905aae"/>
    <path id="Trazado_900245" data-name="Trazado 900245" d="M-8134.109-4876.795h165.059v46.063h33.564" transform="translate(1375.051 3516.855)" fill="none" stroke="#905aae" stroke-width="1"/>
    <path id="Trazado_900246" data-name="Trazado 900246" d="M-8159.051-4876.795h-105v115.855s-10.419,6.9,0,14.53" transform="translate(1375.051 3516.855)" fill="none" stroke="#905aae" stroke-width="1"/>
    <path id="Trazado_900247" data-name="Trazado 900247" d="M-8159.051-4863.365h-86.233v110.331" transform="translate(1375.051 3514.754)" fill="none" stroke="#905aae" stroke-width="1"/>
    <path id="Trazado_900365" data-name="Trazado 900365" d="M5.5,0A5.5,5.5,0,1,1,0,5.5,5.5,5.5,0,0,1,5.5,0Z" transform="translate(-6875.733 -1246.573)" fill="#905aae"/>
    <path id="Trazado_900248" data-name="Trazado 900248" d="M-8307-4830.732h20" transform="translate(1398 3516.855)" fill="none" stroke="#905aae" stroke-width="1"/>
    <path id="Trazado_900360" data-name="Trazado 900360" d="M5.5,0A5.5,5.5,0,1,1,0,5.5,5.5,5.5,0,0,1,5.5,0Z" transform="translate(-6912.949 -1319.35)" fill="#905aae"/>
    <path id="Trazado_900249" data-name="Trazado 900249" d="M-8074.051-4734.186h-190v-12.1" transform="translate(1375.051 3516.855)" fill="none" stroke="#905aae" stroke-width="1"/>
    <path id="Trazado_900250" data-name="Trazado 900250" d="M224.59,80.123h28.08s12.111,3.053,10.8,17.448c-1.066,11.729-13.019,14.123-13.019,14.123H224.59Z" transform="translate(-6936.572 -1325.344)" fill="#905aae"/>
    <path id="Trazado_900251" data-name="Trazado 900251" d="M-8245.284-4757.795h66.233" transform="translate(1375.051 3516.855)" fill="none" stroke="#905aae" stroke-width="1"/>
    <path id="Trazado_900363" data-name="Trazado 900363" d="M9.928,0l9.928,18.051H0Z" transform="translate(-6796.949 -1250) rotate(90)" fill="#905aae"/>
    <path id="Trazado_900366" data-name="Trazado 900366" d="M5.5,0A5.5,5.5,0,1,1,0,5.5,5.5,5.5,0,0,1,5.5,0Z" transform="translate(-6789.5 -1246.573)" fill="#905aae"/>
    <path id="Trazado_900252" data-name="Trazado 900252" d="M-8245.283-4757.795h66.458v-62.934h158.491" transform="translate(1446.335 3516.855)" fill="none" stroke="#905aae" stroke-width="1"/>
    <g id="Grupo_1113087" data-name="Grupo 1113087" transform="translate(-6364 -1320.35)">
      <g id="Grupo_1113053-2" data-name="Grupo 1113053" transform="translate(0 0)" clip-path="url(#clip-path)">
        <path id="Trazado_900067-2" data-name="Trazado 900067" d="M8.131,19.08C7.636,17.595.706,2.244.706,2.244s29.7-10.133,46.78,18.45c0,0-10.148,20.565-46.78,17.891Z" transform="translate(-0.357 -0.252)" fill="#905aae"/>
      </g>
    </g>
    <path id="Trazado_900253" data-name="Trazado 900253" d="M-8114.194-4757.5h32.969" transform="translate(1377.051 3516.561)" fill="none" stroke="#905aae" stroke-width="1"/>
    <path id="Trazado_900254" data-name="Trazado 900254" d="M-7919.457-4825.205h196.615" transform="translate(1375.051 3516.855)" fill="none" stroke="#905aae" stroke-width="1"/>
    <path id="Trazado_900255" data-name="Trazado 900255" d="M-8054.051-4743.5h295v-63.369h24.723" transform="translate(1375.051 3516.855)" fill="none" stroke="#905aae" stroke-width="1"/>
    <path id="Trazado_900373" data-name="Trazado 900373" d="M4.672-5.07A7.053,7.053,0,0,1,1.863-6.434a2.6,2.6,0,0,1-.879-2,2.751,2.751,0,0,1,1.074-2.223,4.269,4.269,0,0,1,2.793-.879,4.66,4.66,0,0,1,2.09.453,3.436,3.436,0,0,1,1.422,1.25,3.2,3.2,0,0,1,.5,1.742H7.359A2.08,2.08,0,0,0,6.7-9.713,2.669,2.669,0,0,0,4.852-10.3a2.732,2.732,0,0,0-1.73.489A1.632,1.632,0,0,0,2.5-8.458,1.468,1.468,0,0,0,3.09-7.28,5.785,5.785,0,0,0,5.1-6.4a9.316,9.316,0,0,1,2.219.88A3.367,3.367,0,0,1,8.5-4.4a2.861,2.861,0,0,1,.387,1.508A2.658,2.658,0,0,1,7.813-.676,4.6,4.6,0,0,1,4.93.156,5.347,5.347,0,0,1,2.742-.293a3.681,3.681,0,0,1-1.566-1.23A3,3,0,0,1,.625-3.3H2.133a1.959,1.959,0,0,0,.762,1.629,3.207,3.207,0,0,0,2.035.6,2.948,2.948,0,0,0,1.82-.484,1.573,1.573,0,0,0,.633-1.32A1.545,1.545,0,0,0,6.8-4.168,6.755,6.755,0,0,0,4.672-5.07ZM15.8,0a3.036,3.036,0,0,1-.2-.891A3.225,3.225,0,0,1,13.2.156a2.984,2.984,0,0,1-2.051-.707,2.287,2.287,0,0,1-.8-1.793,2.39,2.39,0,0,1,1-2.051,4.733,4.733,0,0,1,2.824-.73h1.406v-.664A1.623,1.623,0,0,0,15.125-7a1.821,1.821,0,0,0-1.336-.449,2.107,2.107,0,0,0-1.3.391,1.151,1.151,0,0,0-.523.945H10.516a2,2,0,0,1,.449-1.223,3.066,3.066,0,0,1,1.219-.934,4.1,4.1,0,0,1,1.691-.344,3.342,3.342,0,0,1,2.289.73,2.635,2.635,0,0,1,.859,2.012v3.891a4.757,4.757,0,0,0,.3,1.852V0Zm-2.4-1.1A2.54,2.54,0,0,0,14.7-1.453a2.127,2.127,0,0,0,.883-.914V-4.1H14.445q-2.656,0-2.656,1.555a1.316,1.316,0,0,0,.453,1.063A1.742,1.742,0,0,0,13.406-1.1ZM20.859,0H19.414V-12h1.445Zm3.883,0H23.3V-8.453h1.445ZM23.18-10.7a.863.863,0,0,1,.215-.594.807.807,0,0,1,.637-.242.819.819,0,0,1,.641.242.854.854,0,0,1,.219.594.826.826,0,0,1-.219.586.834.834,0,0,1-.641.234.821.821,0,0,1-.637-.234A.834.834,0,0,1,23.18-10.7ZM26.7-4.3a4.952,4.952,0,0,1,.922-3.129,2.915,2.915,0,0,1,2.414-1.184,2.932,2.932,0,0,1,2.352,1.016V-12h1.445V0H32.508l-.07-.906A2.943,2.943,0,0,1,30.023.156a2.887,2.887,0,0,1-2.395-1.2A5.008,5.008,0,0,1,26.7-4.187Zm1.445.164a3.749,3.749,0,0,0,.594,2.25,1.92,1.92,0,0,0,1.641.813A2.108,2.108,0,0,0,32.391-2.3V-6.187a2.125,2.125,0,0,0-1.992-1.2,1.929,1.929,0,0,0-1.656.82A4.128,4.128,0,0,0,28.148-4.133ZM41.3,0a3.036,3.036,0,0,1-.2-.891A3.225,3.225,0,0,1,38.688.156a2.984,2.984,0,0,1-2.051-.707,2.287,2.287,0,0,1-.8-1.793,2.39,2.39,0,0,1,1-2.051,4.733,4.733,0,0,1,2.824-.73H41.07v-.664A1.623,1.623,0,0,0,40.617-7a1.821,1.821,0,0,0-1.336-.449,2.107,2.107,0,0,0-1.3.391,1.151,1.151,0,0,0-.523.945H36.008a2,2,0,0,1,.449-1.223,3.066,3.066,0,0,1,1.219-.934,4.1,4.1,0,0,1,1.691-.344,3.342,3.342,0,0,1,2.289.73,2.635,2.635,0,0,1,.859,2.012v3.891a4.757,4.757,0,0,0,.3,1.852V0ZM38.9-1.1a2.54,2.54,0,0,0,1.289-.352,2.127,2.127,0,0,0,.883-.914V-4.1H39.938q-2.656,0-2.656,1.555a1.316,1.316,0,0,0,.453,1.063A1.742,1.742,0,0,0,38.9-1.1Z" transform="translate(-6272 -1293.35)" fill="#12263f"/>
    <path id="Trazado_900256" data-name="Trazado 900256" d="M-7589.631-4811.795h51.875" transform="translate(1257.051 3512.855)" fill="none" stroke="#905aae" stroke-width="1"/>
    <path id="Trazado_900364" data-name="Trazado 900364" d="M9.688-3.609A4.185,4.185,0,0,1,8.355-.824a4.365,4.365,0,0,1-2.98.98,4.008,4.008,0,0,1-3.23-1.445A5.815,5.815,0,0,1,.93-5.156V-6.25A6.481,6.481,0,0,1,1.5-9.039,4.231,4.231,0,0,1,3.1-10.887a4.47,4.47,0,0,1,2.406-.645A4.11,4.11,0,0,1,8.414-10.52a4.235,4.235,0,0,1,1.273,2.8H8.18a3.268,3.268,0,0,0-.848-1.975A2.565,2.565,0,0,0,5.508-10.3,2.684,2.684,0,0,0,3.254-9.241a4.882,4.882,0,0,0-.816,3.026v1.1a5.018,5.018,0,0,0,.773,2.948A2.5,2.5,0,0,0,5.375-1.07a2.887,2.887,0,0,0,1.918-.566A3.143,3.143,0,0,0,8.18-3.609Z" transform="translate(-6774 -1250.939)" fill="#12263f"/>
    <path id="Trazado_900368" data-name="Trazado 900368" d="M1.32,0V-11.375H5.039a4.317,4.317,0,0,1,2.785.766,2.759,2.759,0,0,1,.934,2.266A2.31,2.31,0,0,1,8.3-6.934a2.938,2.938,0,0,1-1.234.949A2.638,2.638,0,0,1,8.527-5a2.814,2.814,0,0,1,.535,1.723A3.042,3.042,0,0,1,8.07-.875,4.1,4.1,0,0,1,5.266,0Zm1.5-5.32v4.094H5.3A2.385,2.385,0,0,0,6.949-1.77a1.907,1.907,0,0,0,.605-1.5q0-2.055-2.234-2.055Zm0-1.2H5.086A2.375,2.375,0,0,0,6.66-7.017a1.654,1.654,0,0,0,.59-1.339A1.626,1.626,0,0,0,6.7-9.722a2.686,2.686,0,0,0-1.664-.427H2.82Z" transform="translate(-6754.207 -1224.055)" fill="#12263f"/>
    <path id="Trazado_900369" data-name="Trazado 900369" d="M7.6-2.977H2.836L1.766,0H.219L4.563-11.375H5.875L10.227,0H8.688ZM3.289-4.2H7.156L5.219-9.523ZM19.633-6.1H22.8v1.367H19.633v3.594H18.18V-4.734H15.008V-6.1H18.18v-3.32h1.453ZM28.75,0V-11.375h3.719a4.317,4.317,0,0,1,2.785.766,2.759,2.759,0,0,1,.934,2.266,2.31,2.31,0,0,1-.453,1.41,2.937,2.937,0,0,1-1.234.949A2.638,2.638,0,0,1,35.957-5a2.814,2.814,0,0,1,.535,1.723A3.042,3.042,0,0,1,35.5-.875,4.1,4.1,0,0,1,32.7,0Zm1.5-5.32v4.094h2.477a2.385,2.385,0,0,0,1.652-.543,1.907,1.907,0,0,0,.605-1.5q0-2.055-2.234-2.055Zm0-1.2h2.266a2.375,2.375,0,0,0,1.574-.493,1.654,1.654,0,0,0,.59-1.339,1.626,1.626,0,0,0-.547-1.366,2.686,2.686,0,0,0-1.664-.427H30.25ZM46.586-6.1h3.172v1.367H46.586v3.594H45.133V-4.734H41.961V-6.1h3.172v-3.32h1.453ZM64.07-3.609A4.185,4.185,0,0,1,62.738-.824a4.365,4.365,0,0,1-2.98.98,4.008,4.008,0,0,1-3.23-1.445,5.815,5.815,0,0,1-1.215-3.867V-6.25a6.481,6.481,0,0,1,.566-2.789,4.231,4.231,0,0,1,1.605-1.848,4.47,4.47,0,0,1,2.406-.645A4.11,4.11,0,0,1,62.8-10.52a4.235,4.235,0,0,1,1.273,2.8H62.563a3.268,3.268,0,0,0-.848-1.975,2.565,2.565,0,0,0-1.824-.611,2.684,2.684,0,0,0-2.254,1.063,4.882,4.882,0,0,0-.816,3.026v1.1a5.018,5.018,0,0,0,.773,2.948A2.5,2.5,0,0,0,59.758-1.07a2.887,2.887,0,0,0,1.918-.566,3.143,3.143,0,0,0,.887-1.973Z" transform="translate(-6722 -1368.35)" fill="#12263f"/>
    <path id="Trazado_900371" data-name="Trazado 900371" d="M1.039-4.617a12.079,12.079,0,0,1,.473-3.391,9.85,9.85,0,0,1,1.41-2.953,6,6,0,0,1,1.945-1.875l.3.953A6.222,6.222,0,0,0,3.293-9.211a11.583,11.583,0,0,0-.8,4.023l-.008.664A11.643,11.643,0,0,0,3.586.711,6.252,6.252,0,0,0,5.164,2.789l-.3.883A6.192,6.192,0,0,1,2.883,1.734,10.859,10.859,0,0,1,1.039-4.617ZM13.07-2.977H8.3L7.234,0H5.688l4.344-11.375h1.313L15.7,0H14.156ZM8.758-4.2h3.867l-1.937-5.32ZM21.141-6.1h3.172v1.367H21.141v3.594H19.688V-4.734H16.516V-6.1h3.172v-3.32h1.453ZM26.3,0V-11.375h3.719a4.317,4.317,0,0,1,2.785.766,2.759,2.759,0,0,1,.934,2.266,2.31,2.31,0,0,1-.453,1.41,2.937,2.937,0,0,1-1.234.949A2.638,2.638,0,0,1,33.5-5a2.814,2.814,0,0,1,.535,1.723,3.042,3.042,0,0,1-.992,2.406,4.1,4.1,0,0,1-2.8.875Zm1.5-5.32v4.094h2.477a2.385,2.385,0,0,0,1.652-.543,1.907,1.907,0,0,0,.605-1.5q0-2.055-2.234-2.055Zm0-1.2h2.266a2.375,2.375,0,0,0,1.574-.493,1.654,1.654,0,0,0,.59-1.339,1.626,1.626,0,0,0-.547-1.366,2.686,2.686,0,0,0-1.664-.427H27.8Zm11.57,1.984A12.084,12.084,0,0,1,38.91-1.2a9.876,9.876,0,0,1-1.4,2.949,6.127,6.127,0,0,1-1.973,1.922l-.3-.883A6.281,6.281,0,0,0,37.168-.074a12.387,12.387,0,0,0,.746-4.309v-.25a12.861,12.861,0,0,0-.344-3.051,10.3,10.3,0,0,0-.957-2.527,5.838,5.838,0,0,0-1.379-1.742l.3-.883A6.1,6.1,0,0,1,37.5-10.93a9.9,9.9,0,0,1,1.4,2.945A12.363,12.363,0,0,1,39.367-4.539ZM41.625-.758a.905.905,0,0,1,.223-.625.848.848,0,0,1,.668-.25.874.874,0,0,1,.676.25.887.887,0,0,1,.23.625.839.839,0,0,1-.23.6.89.89,0,0,1-.676.242.863.863,0,0,1-.668-.242A.855.855,0,0,1,41.625-.758ZM54.4-3.609A4.185,4.185,0,0,1,53.066-.824a4.365,4.365,0,0,1-2.98.98,4.008,4.008,0,0,1-3.23-1.445,5.815,5.815,0,0,1-1.215-3.867V-6.25a6.481,6.481,0,0,1,.566-2.789,4.231,4.231,0,0,1,1.605-1.848,4.47,4.47,0,0,1,2.406-.645,4.11,4.11,0,0,1,2.906,1.012,4.235,4.235,0,0,1,1.273,2.8H52.891a3.268,3.268,0,0,0-.848-1.975,2.565,2.565,0,0,0-1.824-.611,2.684,2.684,0,0,0-2.254,1.063,4.882,4.882,0,0,0-.816,3.026v1.1a5.018,5.018,0,0,0,.773,2.948A2.5,2.5,0,0,0,50.086-1.07,2.887,2.887,0,0,0,52-1.637a3.143,3.143,0,0,0,.887-1.973Z" transform="translate(-6502 -1316.85)" fill="#12263f"/>
    <path id="Trazado_900370" data-name="Trazado 900370" d="M1.32,0V-11.375H5.039a4.317,4.317,0,0,1,2.785.766,2.759,2.759,0,0,1,.934,2.266A2.31,2.31,0,0,1,8.3-6.934a2.938,2.938,0,0,1-1.234.949A2.638,2.638,0,0,1,8.527-5a2.814,2.814,0,0,1,.535,1.723A3.042,3.042,0,0,1,8.07-.875,4.1,4.1,0,0,1,5.266,0Zm1.5-5.32v4.094H5.3A2.385,2.385,0,0,0,6.949-1.77a1.907,1.907,0,0,0,.605-1.5q0-2.055-2.234-2.055Zm0-1.2H5.086A2.375,2.375,0,0,0,6.66-7.017a1.654,1.654,0,0,0,.59-1.339A1.626,1.626,0,0,0,6.7-9.722a2.686,2.686,0,0,0-1.664-.427H2.82ZM11.086-.758a.905.905,0,0,1,.223-.625.848.848,0,0,1,.668-.25.874.874,0,0,1,.676.25.887.887,0,0,1,.23.625.839.839,0,0,1-.23.6.89.89,0,0,1-.676.242.863.863,0,0,1-.668-.242A.855.855,0,0,1,11.086-.758ZM23.859-3.609A4.185,4.185,0,0,1,22.527-.824a4.365,4.365,0,0,1-2.98.98,4.008,4.008,0,0,1-3.23-1.445A5.815,5.815,0,0,1,15.1-5.156V-6.25a6.481,6.481,0,0,1,.566-2.789,4.231,4.231,0,0,1,1.605-1.848,4.47,4.47,0,0,1,2.406-.645,4.11,4.11,0,0,1,2.906,1.012,4.235,4.235,0,0,1,1.273,2.8H22.352A3.268,3.268,0,0,0,21.5-9.693,2.565,2.565,0,0,0,19.68-10.3a2.684,2.684,0,0,0-2.254,1.063,4.882,4.882,0,0,0-.816,3.026v1.1a5.018,5.018,0,0,0,.773,2.948A2.5,2.5,0,0,0,19.547-1.07a2.886,2.886,0,0,0,1.918-.566,3.143,3.143,0,0,0,.887-1.973Z" transform="translate(-6651.949 -1229.939)" fill="#12263f"/>
    <path id="Trazado_900372" data-name="Trazado 900372" d="M4.086-11.812H2.594V1.25H4.086V2.438H1.141V-13H4.086Zm1.2,7.2a12.079,12.079,0,0,1,.473-3.391,9.85,9.85,0,0,1,1.41-2.953,6,6,0,0,1,1.945-1.875l.3.953A6.222,6.222,0,0,0,7.535-9.211a11.583,11.583,0,0,0-.8,4.023l-.008.664A11.643,11.643,0,0,0,7.828.711,6.252,6.252,0,0,0,9.406,2.789l-.3.883A6.192,6.192,0,0,1,7.125,1.734,10.859,10.859,0,0,1,5.281-4.617ZM17.313-2.977H12.547L11.477,0H9.93l4.344-11.375h1.313L19.938,0H18.4ZM13-4.2h3.867L14.93-9.523ZM25.383-6.1h3.172v1.367H25.383v3.594H23.93V-4.734H20.758V-6.1H23.93v-3.32h1.453ZM30.539,0V-11.375h3.719a4.317,4.317,0,0,1,2.785.766,2.759,2.759,0,0,1,.934,2.266,2.31,2.31,0,0,1-.453,1.41,2.937,2.937,0,0,1-1.234.949A2.638,2.638,0,0,1,37.746-5a2.814,2.814,0,0,1,.535,1.723,3.042,3.042,0,0,1-.992,2.406,4.1,4.1,0,0,1-2.8.875Zm1.5-5.32v4.094h2.477a2.385,2.385,0,0,0,1.652-.543,1.907,1.907,0,0,0,.605-1.5q0-2.055-2.234-2.055Zm0-1.2H34.3a2.375,2.375,0,0,0,1.574-.493,1.654,1.654,0,0,0,.59-1.339,1.626,1.626,0,0,0-.547-1.366,2.686,2.686,0,0,0-1.664-.427H32.039ZM44.414-6.1h3.172v1.367H44.414v3.594H42.961V-4.734H39.789V-6.1h3.172v-3.32h1.453ZM57.938-3.609A4.185,4.185,0,0,1,56.605-.824a4.365,4.365,0,0,1-2.98.98,4.008,4.008,0,0,1-3.23-1.445A5.815,5.815,0,0,1,49.18-5.156V-6.25a6.481,6.481,0,0,1,.566-2.789,4.231,4.231,0,0,1,1.605-1.848,4.47,4.47,0,0,1,2.406-.645,4.11,4.11,0,0,1,2.906,1.012,4.235,4.235,0,0,1,1.273,2.8H56.43a3.268,3.268,0,0,0-.848-1.975,2.565,2.565,0,0,0-1.824-.611A2.684,2.684,0,0,0,51.5-9.241a4.882,4.882,0,0,0-.816,3.026v1.1a5.018,5.018,0,0,0,.773,2.948A2.5,2.5,0,0,0,53.625-1.07a2.887,2.887,0,0,0,1.918-.566,3.143,3.143,0,0,0,.887-1.973Zm4.953-.93a12.084,12.084,0,0,1-.457,3.34,9.876,9.876,0,0,1-1.4,2.949,6.127,6.127,0,0,1-1.973,1.922l-.3-.883A6.281,6.281,0,0,0,60.691-.074a12.387,12.387,0,0,0,.746-4.309v-.25a12.861,12.861,0,0,0-.344-3.051,10.3,10.3,0,0,0-.957-2.527,5.838,5.838,0,0,0-1.379-1.742l.3-.883a6.1,6.1,0,0,1,1.965,1.906,9.9,9.9,0,0,1,1.4,2.945A12.363,12.363,0,0,1,62.891-4.539ZM64.094-13h2.953V2.438H64.094V1.25H65.6V-11.812H64.094ZM77.461-6.1h3.172v1.367H77.461v3.594H76.008V-4.734H72.836V-6.1h3.172v-3.32h1.453ZM86.3-4.617a12.079,12.079,0,0,1,.473-3.391,9.85,9.85,0,0,1,1.41-2.953,6,6,0,0,1,1.945-1.875l.3.953a6.222,6.222,0,0,0-1.871,2.672,11.583,11.583,0,0,0-.8,4.023l-.008.664a11.643,11.643,0,0,0,1.1,5.234,6.252,6.252,0,0,0,1.578,2.078l-.3.883a6.192,6.192,0,0,1-1.984-1.937A10.859,10.859,0,0,1,86.3-4.617ZM92.047,0V-11.375h3.719a4.317,4.317,0,0,1,2.785.766,2.759,2.759,0,0,1,.934,2.266,2.31,2.31,0,0,1-.453,1.41,2.937,2.937,0,0,1-1.234.949A2.638,2.638,0,0,1,99.254-5a2.814,2.814,0,0,1,.535,1.723A3.042,3.042,0,0,1,98.8-.875a4.1,4.1,0,0,1-2.8.875Zm1.5-5.32v4.094h2.477a2.385,2.385,0,0,0,1.652-.543,1.907,1.907,0,0,0,.605-1.5q0-2.055-2.234-2.055Zm0-1.2h2.266a2.375,2.375,0,0,0,1.574-.493,1.654,1.654,0,0,0,.59-1.339,1.626,1.626,0,0,0-.547-1.366,2.686,2.686,0,0,0-1.664-.427H93.547Zm8.266,5.766a.905.905,0,0,1,.223-.625.848.848,0,0,1,.668-.25.874.874,0,0,1,.676.25.887.887,0,0,1,.23.625.839.839,0,0,1-.23.6.89.89,0,0,1-.676.242.863.863,0,0,1-.668-.242A.855.855,0,0,1,101.813-.758Zm12.773-2.852a4.185,4.185,0,0,1-1.332,2.785,4.365,4.365,0,0,1-2.98.98,4.008,4.008,0,0,1-3.23-1.445,5.815,5.815,0,0,1-1.215-3.867V-6.25a6.481,6.481,0,0,1,.566-2.789A4.231,4.231,0,0,1,108-10.887a4.47,4.47,0,0,1,2.406-.645,4.11,4.11,0,0,1,2.906,1.012,4.235,4.235,0,0,1,1.273,2.8h-1.508a3.268,3.268,0,0,0-.848-1.975,2.565,2.565,0,0,0-1.824-.611,2.684,2.684,0,0,0-2.254,1.063,4.882,4.882,0,0,0-.816,3.026v1.1a5.018,5.018,0,0,0,.773,2.948,2.5,2.5,0,0,0,2.164,1.095,2.886,2.886,0,0,0,1.918-.566,3.143,3.143,0,0,0,.887-1.973Zm4.953-.93a12.084,12.084,0,0,1-.457,3.34,9.876,9.876,0,0,1-1.4,2.949,6.127,6.127,0,0,1-1.973,1.922l-.3-.883A6.281,6.281,0,0,0,117.34-.074a12.387,12.387,0,0,0,.746-4.309v-.25a12.861,12.861,0,0,0-.344-3.051,10.3,10.3,0,0,0-.957-2.527,5.838,5.838,0,0,0-1.379-1.742l.3-.883a6.1,6.1,0,0,1,1.965,1.906,9.9,9.9,0,0,1,1.4,2.945A12.363,12.363,0,0,1,119.539-4.539Z" transform="translate(-6356 -1252.829)" fill="#12263f"/>
    <path id="Trazado_900259" data-name="Trazado 900259" d="M-7563.693-4259.262h14.643" transform="translate(1254.051 2986.855)" fill="none" stroke="#000" stroke-width="1"/>
    <path id="Trazado_900260" data-name="Trazado 900260" d="M-7563.693-4259.262h14.643" transform="translate(1313.693 2986.855)" fill="none" stroke="#000" stroke-width="1"/>
    <path id="Trazado_900261" data-name="Trazado 900261" d="M-7563.693-4259.262h14.643" transform="translate(787.372 2991.433)" fill="none" stroke="#000" stroke-width="1"/>
    <path id="Trazado_900262" data-name="Trazado 900262" d="M-7563.693-4259.262h14.643" transform="translate(924.102 3012.322)" fill="none" stroke="#000" stroke-width="1"/>
    <path id="Trazado_900263" data-name="Trazado 900263" d="M-8307-4830.732h38.767" transform="translate(1398 3590.452)" fill="none" stroke="#905aae" stroke-width="1"/>
    <path id="Trazado_900367" data-name="Trazado 900367" d="M5.5,0A5.5,5.5,0,1,1,0,5.5,5.5,5.5,0,0,1,5.5,0Z" transform="translate(-6912.949 -1245.939)" fill="#905aae"/>
    <path id="Trazado_900264" data-name="Trazado 900264" d="M-7563.693-4259.262h14.643" transform="translate(1104.952 2925.912)" fill="none" stroke="#000" stroke-width="1"/>
  </g>
</svg>
