<svg xmlns="http://www.w3.org/2000/svg" xmlns:xlink="http://www.w3.org/1999/xlink" width="456.695" height="121.285" viewBox="0 0 456.695 121.285">
  <defs>
    <clipPath id="clip-path">
      <rect id="Rectángulo_406418" data-name="Rectángulo 406418" width="47.412" height="38.82" fill="#905aae"/>
    </clipPath>
  </defs>
  <g id="Grupo_1113122" data-name="Grupo 1113122" transform="translate(6942.883 1028.08)">
    <path id="Trazado_900355" data-name="Trazado 900355" d="M7.6-2.977H2.836L1.766,0H.219L4.563-11.375H5.875L10.227,0H8.688ZM3.289-4.2H7.156L5.219-9.523Z" transform="translate(-6943.102 -1011.205)" fill="#12263f"/>
    <path id="Trazado_900356" data-name="Trazado 900356" d="M1.32,0V-11.375H5.039a4.317,4.317,0,0,1,2.785.766,2.759,2.759,0,0,1,.934,2.266A2.31,2.31,0,0,1,8.3-6.934a2.938,2.938,0,0,1-1.234.949A2.638,2.638,0,0,1,8.527-5a2.814,2.814,0,0,1,.535,1.723A3.042,3.042,0,0,1,8.07-.875,4.1,4.1,0,0,1,5.266,0Zm1.5-5.32v4.094H5.3A2.385,2.385,0,0,0,6.949-1.77a1.907,1.907,0,0,0,.605-1.5q0-2.055-2.234-2.055Zm0-1.2H5.086A2.375,2.375,0,0,0,6.66-7.017a1.654,1.654,0,0,0,.59-1.339A1.626,1.626,0,0,0,6.7-9.722a2.686,2.686,0,0,0-1.664-.427H2.82Z" transform="translate(-6943.102 -962.205)" fill="#12263f"/>
    <path id="Trazado_900357" data-name="Trazado 900357" d="M9.688-3.609A4.185,4.185,0,0,1,8.355-.824a4.365,4.365,0,0,1-2.98.98,4.008,4.008,0,0,1-3.23-1.445A5.815,5.815,0,0,1,.93-5.156V-6.25A6.481,6.481,0,0,1,1.5-9.039,4.231,4.231,0,0,1,3.1-10.887a4.47,4.47,0,0,1,2.406-.645A4.11,4.11,0,0,1,8.414-10.52a4.235,4.235,0,0,1,1.273,2.8H8.18a3.268,3.268,0,0,0-.848-1.975A2.565,2.565,0,0,0,5.508-10.3,2.684,2.684,0,0,0,3.254-9.241a4.882,4.882,0,0,0-.816,3.026v1.1a5.018,5.018,0,0,0,.773,2.948A2.5,2.5,0,0,0,5.375-1.07a2.887,2.887,0,0,0,1.918-.566A3.143,3.143,0,0,0,8.18-3.609Z" transform="translate(-6943.102 -910.795)" fill="#12263f"/>
    <path id="Trazado_900358" data-name="Trazado 900358" d="M0,0H12V12H0Z" transform="translate(-6923.051 -1022.205)" fill="#905aae"/>
    <path id="Trazado_900359" data-name="Trazado 900359" d="M0,0H12V12H0Z" transform="translate(-6923.051 -973.205)" fill="#905aae"/>
    <path id="Trazado_900360" data-name="Trazado 900360" d="M0,0H12V12H0Z" transform="translate(-6923.051 -921.795)" fill="#905aae"/>
    <path id="Trazado_900278" data-name="Trazado 900278" d="M224.59,80.123h28.08s12.111,3.053,10.8,17.448c-1.066,11.729-13.019,14.123-13.019,14.123H224.59Z" transform="translate(-6845.812 -1062.613)" fill="#905aae"/>
    <g id="Grupo_1113093" data-name="Grupo 1113093" transform="translate(-6751.051 -1025.845)">
      <g id="Grupo_1113053" data-name="Grupo 1113053" transform="translate(0 0)" clip-path="url(#clip-path)">
        <path id="Trazado_900067" data-name="Trazado 900067" d="M8.131,19.08C7.636,17.595.706,2.244.706,2.244s29.7-10.133,46.78,18.45c0,0-10.148,20.565-46.78,17.891Z" transform="translate(-0.357 -0.252)" fill="#905aae"/>
      </g>
    </g>
    <g id="Grupo_1113094" data-name="Grupo 1113094" transform="translate(-6751.051 -945.615)">
      <g id="Grupo_1113053-2" data-name="Grupo 1113053" transform="translate(0 0)" clip-path="url(#clip-path)">
        <path id="Trazado_900067-2" data-name="Trazado 900067" d="M8.131,19.08C7.636,17.595.706,2.244.706,2.244s29.7-10.133,46.78,18.45c0,0-10.148,20.565-46.78,17.891Z" transform="translate(-0.357 -0.252)" fill="#905aae"/>
      </g>
    </g>
    <path id="Trazado_900361" data-name="Trazado 900361" d="M5.5,0A5.5,5.5,0,1,1,0,5.5,5.5,5.5,0,0,1,5.5,0Z" transform="translate(-6898.051 -1021.205)" fill="#905aae"/>
    <path id="Trazado_900362" data-name="Trazado 900362" d="M5.5,0A5.5,5.5,0,1,1,0,5.5,5.5,5.5,0,0,1,5.5,0Z" transform="translate(-6898.051 -972.205)" fill="#905aae"/>
    <path id="Trazado_900363" data-name="Trazado 900363" d="M5.5,0A5.5,5.5,0,1,1,0,5.5,5.5,5.5,0,0,1,5.5,0Z" transform="translate(-6898.051 -921.795)" fill="#905aae"/>
    <path id="Trazado_900279" data-name="Trazado 900279" d="M-8128.5-10204.5h148.525" transform="translate(1235.949 9188.795)" fill="none" stroke="#905aae" stroke-width="1"/>
    <path id="Trazado_900280" data-name="Trazado 900280" d="M-8128.5-10204.5h148.525" transform="translate(1235.949 9288.705)" fill="none" stroke="#905aae" stroke-width="1"/>
    <path id="Trazado_900281" data-name="Trazado 900281" d="M-7983.053-10186.2h-41.875v58.984h41.875" transform="translate(1235.949 9191.795)" fill="none" stroke="#905aae" stroke-width="1"/>
    <path id="Trazado_900282" data-name="Trazado 900282" d="M-8128.5-10204.5h103.572" transform="translate(1235.949 9237.795)" fill="none" stroke="#905aae" stroke-width="1"/>
    <path id="Trazado_900283" data-name="Trazado 900283" d="M-7949.051-10198.229h46.262v32.271h49.672" transform="translate(1235.949 9191.795)" fill="none" stroke="#905aae" stroke-width="1"/>
    <path id="Trazado_900284" data-name="Trazado 900284" d="M-7949.051-10165.958h46.262v-32.271h49.672" transform="translate(1235.949 9240.023)" fill="none" stroke="#905aae" stroke-width="1"/>
    <path id="Trazado_900285" data-name="Trazado 900285" d="M-8128.5-10204.5h51.786" transform="translate(1528.663 9237.795)" fill="none" stroke="#905aae" stroke-width="1"/>
    <path id="Trazado_900366" data-name="Trazado 900366" d="M4.672-5.07A7.053,7.053,0,0,1,1.863-6.434a2.6,2.6,0,0,1-.879-2,2.751,2.751,0,0,1,1.074-2.223,4.269,4.269,0,0,1,2.793-.879,4.66,4.66,0,0,1,2.09.453,3.436,3.436,0,0,1,1.422,1.25,3.2,3.2,0,0,1,.5,1.742H7.359A2.08,2.08,0,0,0,6.7-9.713,2.669,2.669,0,0,0,4.852-10.3a2.732,2.732,0,0,0-1.73.489A1.632,1.632,0,0,0,2.5-8.458,1.468,1.468,0,0,0,3.09-7.28,5.785,5.785,0,0,0,5.1-6.4a9.316,9.316,0,0,1,2.219.88A3.367,3.367,0,0,1,8.5-4.4a2.861,2.861,0,0,1,.387,1.508A2.658,2.658,0,0,1,7.813-.676,4.6,4.6,0,0,1,4.93.156,5.347,5.347,0,0,1,2.742-.293a3.681,3.681,0,0,1-1.566-1.23A3,3,0,0,1,.625-3.3H2.133a1.959,1.959,0,0,0,.762,1.629,3.207,3.207,0,0,0,2.035.6,2.948,2.948,0,0,0,1.82-.484,1.573,1.573,0,0,0,.633-1.32A1.545,1.545,0,0,0,6.8-4.168,6.755,6.755,0,0,0,4.672-5.07ZM15.8,0a3.036,3.036,0,0,1-.2-.891A3.225,3.225,0,0,1,13.2.156a2.984,2.984,0,0,1-2.051-.707,2.287,2.287,0,0,1-.8-1.793,2.39,2.39,0,0,1,1-2.051,4.733,4.733,0,0,1,2.824-.73h1.406v-.664A1.623,1.623,0,0,0,15.125-7a1.821,1.821,0,0,0-1.336-.449,2.107,2.107,0,0,0-1.3.391,1.151,1.151,0,0,0-.523.945H10.516a2,2,0,0,1,.449-1.223,3.066,3.066,0,0,1,1.219-.934,4.1,4.1,0,0,1,1.691-.344,3.342,3.342,0,0,1,2.289.73,2.635,2.635,0,0,1,.859,2.012v3.891a4.757,4.757,0,0,0,.3,1.852V0Zm-2.4-1.1A2.54,2.54,0,0,0,14.7-1.453a2.127,2.127,0,0,0,.883-.914V-4.1H14.445q-2.656,0-2.656,1.555a1.316,1.316,0,0,0,.453,1.063A1.742,1.742,0,0,0,13.406-1.1ZM20.859,0H19.414V-12h1.445Zm3.883,0H23.3V-8.453h1.445ZM23.18-10.7a.863.863,0,0,1,.215-.594.807.807,0,0,1,.637-.242.819.819,0,0,1,.641.242.854.854,0,0,1,.219.594.826.826,0,0,1-.219.586.834.834,0,0,1-.641.234.821.821,0,0,1-.637-.234A.834.834,0,0,1,23.18-10.7ZM26.7-4.3a4.952,4.952,0,0,1,.922-3.129,2.915,2.915,0,0,1,2.414-1.184,2.932,2.932,0,0,1,2.352,1.016V-12h1.445V0H32.508l-.07-.906A2.943,2.943,0,0,1,30.023.156a2.887,2.887,0,0,1-2.395-1.2A5.008,5.008,0,0,1,26.7-4.187Zm1.445.164a3.749,3.749,0,0,0,.594,2.25,1.92,1.92,0,0,0,1.641.813A2.108,2.108,0,0,0,32.391-2.3V-6.187a2.125,2.125,0,0,0-1.992-1.2,1.929,1.929,0,0,0-1.656.82A4.128,4.128,0,0,0,28.148-4.133ZM41.3,0a3.036,3.036,0,0,1-.2-.891A3.225,3.225,0,0,1,38.688.156a2.984,2.984,0,0,1-2.051-.707,2.287,2.287,0,0,1-.8-1.793,2.39,2.39,0,0,1,1-2.051,4.733,4.733,0,0,1,2.824-.73H41.07v-.664A1.623,1.623,0,0,0,40.617-7a1.821,1.821,0,0,0-1.336-.449,2.107,2.107,0,0,0-1.3.391,1.151,1.151,0,0,0-.523.945H36.008a2,2,0,0,1,.449-1.223,3.066,3.066,0,0,1,1.219-.934,4.1,4.1,0,0,1,1.691-.344,3.342,3.342,0,0,1,2.289.73,2.635,2.635,0,0,1,.859,2.012v3.891a4.757,4.757,0,0,0,.3,1.852V0ZM38.9-1.1a2.54,2.54,0,0,0,1.289-.352,2.127,2.127,0,0,0,.883-.914V-4.1H39.938q-2.656,0-2.656,1.555a1.316,1.316,0,0,0,.453,1.063A1.742,1.742,0,0,0,38.9-1.1Z" transform="translate(-6529 -962)" fill="#12263f"/>
    <path id="Trazado_900364" data-name="Trazado 900364" d="M7.6-2.977H2.836L1.766,0H.219L4.563-11.375H5.875L10.227,0H8.688ZM3.289-4.2H7.156L5.219-9.523ZM19.633-6.1H22.8v1.367H19.633v3.594H18.18V-4.734H15.008V-6.1H18.18v-3.32h1.453ZM28.75,0V-11.375h3.719a4.317,4.317,0,0,1,2.785.766,2.759,2.759,0,0,1,.934,2.266,2.31,2.31,0,0,1-.453,1.41,2.937,2.937,0,0,1-1.234.949A2.638,2.638,0,0,1,35.957-5a2.814,2.814,0,0,1,.535,1.723A3.042,3.042,0,0,1,35.5-.875,4.1,4.1,0,0,1,32.7,0Zm1.5-5.32v4.094h2.477a2.385,2.385,0,0,0,1.652-.543,1.907,1.907,0,0,0,.605-1.5q0-2.055-2.234-2.055Zm0-1.2h2.266a2.375,2.375,0,0,0,1.574-.493,1.654,1.654,0,0,0,.59-1.339,1.626,1.626,0,0,0-.547-1.366,2.686,2.686,0,0,0-1.664-.427H30.25Z" transform="translate(-6695.051 -1016.705)" fill="#12263f"/>
    <path id="Trazado_900365" data-name="Trazado 900365" d="M9.688-3.609A4.185,4.185,0,0,1,8.355-.824a4.365,4.365,0,0,1-2.98.98,4.008,4.008,0,0,1-3.23-1.445A5.815,5.815,0,0,1,.93-5.156V-6.25A6.481,6.481,0,0,1,1.5-9.039,4.231,4.231,0,0,1,3.1-10.887a4.47,4.47,0,0,1,2.406-.645A4.11,4.11,0,0,1,8.414-10.52a4.235,4.235,0,0,1,1.273,2.8H8.18a3.268,3.268,0,0,0-.848-1.975A2.565,2.565,0,0,0,5.508-10.3,2.684,2.684,0,0,0,3.254-9.241a4.882,4.882,0,0,0-.816,3.026v1.1a5.018,5.018,0,0,0,.773,2.948A2.5,2.5,0,0,0,5.375-1.07a2.887,2.887,0,0,0,1.918-.566A3.143,3.143,0,0,0,8.18-3.609Z" transform="translate(-6695.051 -932.57)" fill="#12263f"/>
    <path id="Trazado_900367" data-name="Trazado 900367" d="M9.688-3.609A4.185,4.185,0,0,1,8.355-.824a4.365,4.365,0,0,1-2.98.98,4.008,4.008,0,0,1-3.23-1.445A5.815,5.815,0,0,1,.93-5.156V-6.25A6.481,6.481,0,0,1,1.5-9.039,4.231,4.231,0,0,1,3.1-10.887a4.47,4.47,0,0,1,2.406-.645A4.11,4.11,0,0,1,8.414-10.52a4.235,4.235,0,0,1,1.273,2.8H8.18a3.268,3.268,0,0,0-.848-1.975A2.565,2.565,0,0,0,5.508-10.3,2.684,2.684,0,0,0,3.254-9.241a4.882,4.882,0,0,0-.816,3.026v1.1a5.018,5.018,0,0,0,.773,2.948A2.5,2.5,0,0,0,5.375-1.07a2.887,2.887,0,0,0,1.918-.566A3.143,3.143,0,0,0,8.18-3.609ZM11.539-.758a.905.905,0,0,1,.223-.625.848.848,0,0,1,.668-.25.874.874,0,0,1,.676.25.887.887,0,0,1,.23.625.839.839,0,0,1-.23.6.89.89,0,0,1-.676.242.863.863,0,0,1-.668-.242A.855.855,0,0,1,11.539-.758Z" transform="translate(-6529 -933)" fill="#12263f"/>
  </g>
</svg>
