<svg xmlns="http://www.w3.org/2000/svg" xmlns:xlink="http://www.w3.org/1999/xlink" width="190" height="118" viewBox="0 0 190 118">
  <defs>
    <clipPath id="clip-path">
      <rect id="Rect치ngulo_406443" data-name="Rect치ngulo 406443" width="85.173" height="85.173" fill="none"/>
    </clipPath>
  </defs>
  <g id="Grupo_1113121" data-name="Grupo 1113121" transform="translate(-324.051 -4459)">
    <rect id="Rect치ngulo_406444" data-name="Rect치ngulo 406444" width="190" height="118" rx="12" transform="translate(324.051 4459)" fill="#95dbb3"/>
    <g id="Grupo_1113077" data-name="Grupo 1113077" transform="translate(376.464 4475.413)">
      <g id="Grupo_1113076" data-name="Grupo 1113076" clip-path="url(#clip-path)">
        <path id="Trazado_900086" data-name="Trazado 900086" d="M34.83,7.2H32.84V1a.995.995,0,1,1,1.99,0Z" transform="translate(-12.464 0)" fill="#00401b"/>
        <path id="Trazado_900087" data-name="Trazado 900087" d="M48.507,7.2h-1.99V1a.995.995,0,1,1,1.99,0Z" transform="translate(-17.655 0)" fill="#00401b"/>
        <path id="Trazado_900088" data-name="Trazado 900088" d="M62.185,7.2h-1.99V1a.995.995,0,1,1,1.99,0Z" transform="translate(-22.847 0)" fill="#00401b"/>
        <path id="Trazado_900089" data-name="Trazado 900089" d="M75.863,7.2h-1.99V1a.995.995,0,1,1,1.99,0Z" transform="translate(-28.038 0)" fill="#00401b"/>
        <path id="Trazado_900090" data-name="Trazado 900090" d="M89.54,7.2H87.55V1a.995.995,0,1,1,1.99,0Z" transform="translate(-33.229 0)" fill="#00401b"/>
        <path id="Trazado_900091" data-name="Trazado 900091" d="M103.218,7.2h-1.99V1a.995.995,0,1,1,1.99,0Z" transform="translate(-38.42 0)" fill="#00401b"/>
        <path id="Trazado_900092" data-name="Trazado 900092" d="M34.313,15.129H32.139a.9.9,0,0,1-.9-.9V8.837a.9.9,0,0,1,.9-.9h2.174a.9.9,0,0,1,.9.9v5.39a.9.9,0,0,1-.9.9" transform="translate(-11.855 -3.011)" fill="#00993f"/>
        <path id="Trazado_900093" data-name="Trazado 900093" d="M47.991,15.129H45.817a.9.9,0,0,1-.9-.9V8.837a.9.9,0,0,1,.9-.9h2.174a.9.9,0,0,1,.9.9v5.39a.9.9,0,0,1-.9.9" transform="translate(-17.047 -3.011)" fill="#00993f"/>
        <path id="Trazado_900094" data-name="Trazado 900094" d="M61.668,15.129H59.494a.9.9,0,0,1-.9-.9V8.837a.9.9,0,0,1,.9-.9h2.174a.9.9,0,0,1,.9.9v5.39a.9.9,0,0,1-.9.9" transform="translate(-22.238 -3.011)" fill="#00993f"/>
        <path id="Trazado_900095" data-name="Trazado 900095" d="M75.346,15.129H73.172a.9.9,0,0,1-.9-.9V8.837a.9.9,0,0,1,.9-.9h2.174a.9.9,0,0,1,.9.9v5.39a.9.9,0,0,1-.9.9" transform="translate(-27.429 -3.011)" fill="#00993f"/>
        <path id="Trazado_900096" data-name="Trazado 900096" d="M89.024,15.129H86.85a.9.9,0,0,1-.9-.9V8.837a.9.9,0,0,1,.9-.9h2.174a.9.9,0,0,1,.9.9v5.39a.9.9,0,0,1-.9.9" transform="translate(-32.62 -3.011)" fill="#00993f"/>
        <path id="Trazado_900097" data-name="Trazado 900097" d="M102.7,15.129h-2.174a.9.9,0,0,1-.9-.9V8.837a.9.9,0,0,1,.9-.9H102.7a.9.9,0,0,1,.9.9v5.39a.9.9,0,0,1-.9.9" transform="translate(-37.812 -3.011)" fill="#00993f"/>
        <path id="Trazado_900098" data-name="Trazado 900098" d="M101.228,125.678h1.99v6.2a.995.995,0,1,1-1.99,0Z" transform="translate(-38.42 -47.7)" fill="#00401b"/>
        <path id="Trazado_900099" data-name="Trazado 900099" d="M87.551,125.678h1.99v6.2a.995.995,0,1,1-1.99,0Z" transform="translate(-33.229 -47.7)" fill="#00401b"/>
        <path id="Trazado_900100" data-name="Trazado 900100" d="M73.873,125.678h1.99v6.2a.995.995,0,1,1-1.99,0Z" transform="translate(-28.038 -47.7)" fill="#00401b"/>
        <path id="Trazado_900101" data-name="Trazado 900101" d="M60.195,125.678h1.99v6.2a.995.995,0,1,1-1.99,0Z" transform="translate(-22.847 -47.7)" fill="#00401b"/>
        <path id="Trazado_900102" data-name="Trazado 900102" d="M46.518,125.678h1.99v6.2a.995.995,0,1,1-1.99,0Z" transform="translate(-17.656 -47.7)" fill="#00401b"/>
        <path id="Trazado_900103" data-name="Trazado 900103" d="M32.84,125.678h1.99v6.2a.995.995,0,1,1-1.99,0Z" transform="translate(-12.464 -47.7)" fill="#00401b"/>
        <path id="Trazado_900104" data-name="Trazado 900104" d="M100.528,117.744H102.7a.9.9,0,0,1,.9.9v5.39a.9.9,0,0,1-.9.9h-2.174a.9.9,0,0,1-.9-.9v-5.39a.9.9,0,0,1,.9-.9" transform="translate(-37.812 -44.689)" fill="#00993f"/>
        <path id="Trazado_900105" data-name="Trazado 900105" d="M86.85,117.744h2.174a.9.9,0,0,1,.9.9v5.39a.9.9,0,0,1-.9.9H86.85a.9.9,0,0,1-.9-.9v-5.39a.9.9,0,0,1,.9-.9" transform="translate(-32.62 -44.689)" fill="#00993f"/>
        <path id="Trazado_900106" data-name="Trazado 900106" d="M73.173,117.744h2.174a.9.9,0,0,1,.9.9v5.39a.9.9,0,0,1-.9.9H73.173a.9.9,0,0,1-.9-.9v-5.39a.9.9,0,0,1,.9-.9" transform="translate(-27.429 -44.689)" fill="#00993f"/>
        <path id="Trazado_900107" data-name="Trazado 900107" d="M59.495,117.744h2.174a.9.9,0,0,1,.9.9v5.39a.9.9,0,0,1-.9.9H59.495a.9.9,0,0,1-.9-.9v-5.39a.9.9,0,0,1,.9-.9" transform="translate(-22.238 -44.689)" fill="#00993f"/>
        <path id="Trazado_900108" data-name="Trazado 900108" d="M45.817,117.744h2.174a.9.9,0,0,1,.9.9v5.39a.9.9,0,0,1-.9.9H45.817a.9.9,0,0,1-.9-.9v-5.39a.9.9,0,0,1,.9-.9" transform="translate(-17.047 -44.689)" fill="#00993f"/>
        <path id="Trazado_900109" data-name="Trazado 900109" d="M32.139,117.744h2.174a.9.9,0,0,1,.9.9v5.39a.9.9,0,0,1-.9.9H32.139a.9.9,0,0,1-.9-.9v-5.39a.9.9,0,0,1,.9-.9" transform="translate(-11.855 -44.689)" fill="#00993f"/>
        <path id="Trazado_900110" data-name="Trazado 900110" d="M125.678,34.83V32.84h6.2a.995.995,0,1,1,0,1.99Z" transform="translate(-47.7 -12.464)" fill="#00401b"/>
        <path id="Trazado_900111" data-name="Trazado 900111" d="M125.678,48.507v-1.99h6.2a.995.995,0,1,1,0,1.99Z" transform="translate(-47.7 -17.655)" fill="#00401b"/>
        <path id="Trazado_900112" data-name="Trazado 900112" d="M125.678,62.185v-1.99h6.2a.995.995,0,1,1,0,1.99Z" transform="translate(-47.7 -22.847)" fill="#00401b"/>
        <path id="Trazado_900113" data-name="Trazado 900113" d="M125.678,75.863v-1.99h6.2a.995.995,0,1,1,0,1.99Z" transform="translate(-47.7 -28.038)" fill="#00401b"/>
        <path id="Trazado_900114" data-name="Trazado 900114" d="M125.678,89.54V87.55h6.2a.995.995,0,1,1,0,1.99Z" transform="translate(-47.7 -33.229)" fill="#00401b"/>
        <path id="Trazado_900115" data-name="Trazado 900115" d="M125.678,103.218v-1.99h6.2a.995.995,0,1,1,0,1.99Z" transform="translate(-47.7 -38.42)" fill="#00401b"/>
        <path id="Trazado_900116" data-name="Trazado 900116" d="M117.744,34.313V32.139a.9.9,0,0,1,.9-.9h5.39a.9.9,0,0,1,.9.9v2.174a.9.9,0,0,1-.9.9h-5.39a.9.9,0,0,1-.9-.9" transform="translate(-44.689 -11.855)" fill="#00993f"/>
        <path id="Trazado_900117" data-name="Trazado 900117" d="M117.744,47.991V45.817a.9.9,0,0,1,.9-.9h5.39a.9.9,0,0,1,.9.9v2.174a.9.9,0,0,1-.9.9h-5.39a.9.9,0,0,1-.9-.9" transform="translate(-44.689 -17.047)" fill="#00993f"/>
        <path id="Trazado_900118" data-name="Trazado 900118" d="M117.744,61.668V59.494a.9.9,0,0,1,.9-.9h5.39a.9.9,0,0,1,.9.9v2.174a.9.9,0,0,1-.9.9h-5.39a.9.9,0,0,1-.9-.9" transform="translate(-44.689 -22.238)" fill="#00993f"/>
        <path id="Trazado_900119" data-name="Trazado 900119" d="M117.744,75.346V73.172a.9.9,0,0,1,.9-.9h5.39a.9.9,0,0,1,.9.9v2.174a.9.9,0,0,1-.9.9h-5.39a.9.9,0,0,1-.9-.9" transform="translate(-44.689 -27.429)" fill="#00993f"/>
        <path id="Trazado_900120" data-name="Trazado 900120" d="M117.744,89.024V86.85a.9.9,0,0,1,.9-.9h5.39a.9.9,0,0,1,.9.9v2.174a.9.9,0,0,1-.9.9h-5.39a.9.9,0,0,1-.9-.9" transform="translate(-44.689 -32.62)" fill="#00993f"/>
        <path id="Trazado_900121" data-name="Trazado 900121" d="M117.744,102.7v-2.174a.9.9,0,0,1,.9-.9h5.39a.9.9,0,0,1,.9.9V102.7a.9.9,0,0,1-.9.9h-5.39a.9.9,0,0,1-.9-.9" transform="translate(-44.689 -37.812)" fill="#00993f"/>
        <path id="Trazado_900122" data-name="Trazado 900122" d="M7.2,101.228v1.99H1a.995.995,0,1,1,0-1.99Z" transform="translate(0 -38.42)" fill="#00401b"/>
        <path id="Trazado_900123" data-name="Trazado 900123" d="M7.2,87.551v1.99H1a.995.995,0,1,1,0-1.99Z" transform="translate(0 -33.229)" fill="#00401b"/>
        <path id="Trazado_900124" data-name="Trazado 900124" d="M7.2,73.873v1.99H1a.995.995,0,1,1,0-1.99Z" transform="translate(0 -28.038)" fill="#00401b"/>
        <path id="Trazado_900125" data-name="Trazado 900125" d="M7.2,60.195v1.99H1a.995.995,0,1,1,0-1.99Z" transform="translate(0 -22.847)" fill="#00401b"/>
        <path id="Trazado_900126" data-name="Trazado 900126" d="M7.2,46.518v1.99H1a.995.995,0,1,1,0-1.99Z" transform="translate(0 -17.656)" fill="#00401b"/>
        <path id="Trazado_900127" data-name="Trazado 900127" d="M7.2,32.84v1.99H1a.995.995,0,1,1,0-1.99Z" transform="translate(0 -12.464)" fill="#00401b"/>
        <path id="Trazado_900128" data-name="Trazado 900128" d="M15.129,100.528V102.7a.9.9,0,0,1-.9.9H8.837a.9.9,0,0,1-.9-.9v-2.174a.9.9,0,0,1,.9-.9h5.39a.9.9,0,0,1,.9.9" transform="translate(-3.011 -37.812)" fill="#00993f"/>
        <path id="Trazado_900129" data-name="Trazado 900129" d="M15.129,86.85v2.174a.9.9,0,0,1-.9.9H8.837a.9.9,0,0,1-.9-.9V86.85a.9.9,0,0,1,.9-.9h5.39a.9.9,0,0,1,.9.9" transform="translate(-3.011 -32.62)" fill="#00993f"/>
        <path id="Trazado_900130" data-name="Trazado 900130" d="M15.129,73.172v2.174a.9.9,0,0,1-.9.9H8.837a.9.9,0,0,1-.9-.9V73.172a.9.9,0,0,1,.9-.9h5.39a.9.9,0,0,1,.9.9" transform="translate(-3.011 -27.429)" fill="#00993f"/>
        <path id="Trazado_900131" data-name="Trazado 900131" d="M15.129,59.495v2.174a.9.9,0,0,1-.9.9H8.837a.9.9,0,0,1-.9-.9V59.495a.9.9,0,0,1,.9-.9h5.39a.9.9,0,0,1,.9.9" transform="translate(-3.011 -22.238)" fill="#00993f"/>
        <path id="Trazado_900132" data-name="Trazado 900132" d="M15.129,45.817v2.174a.9.9,0,0,1-.9.9H8.837a.9.9,0,0,1-.9-.9V45.817a.9.9,0,0,1,.9-.9h5.39a.9.9,0,0,1,.9.9" transform="translate(-3.011 -17.047)" fill="#00993f"/>
        <path id="Trazado_900133" data-name="Trazado 900133" d="M15.129,32.139v2.174a.9.9,0,0,1-.9.9H8.837a.9.9,0,0,1-.9-.9V32.139a.9.9,0,0,1,.9-.9h5.39a.9.9,0,0,1,.9.9" transform="translate(-3.011 -11.855)" fill="#00993f"/>
        <path id="Trazado_900134" data-name="Trazado 900134" d="M48.994,63.5C60.062,71.6,72.07,76.528,84.507,79.971a5.188,5.188,0,0,0,1.835-3.962V21.645a5.2,5.2,0,0,0-5.2-5.2h-50.8C28.26,34,34.759,53.1,48.994,63.5" transform="translate(-11.37 -6.24)" fill="#00993f"/>
        <path id="Trazado_900135" data-name="Trazado 900135" d="M43.864,63.5C29.629,53.1,23.13,34,25.207,16.442H21.645a5.2,5.2,0,0,0-5.2,5.2V76.01a5.2,5.2,0,0,0,5.2,5.2H76.01a5.179,5.179,0,0,0,3.368-1.242C66.94,76.528,54.932,71.6,43.864,63.5" transform="translate(-6.24 -6.24)" fill="#00401b"/>
        <path id="Trazado_900136" data-name="Trazado 900136" d="M49,66.631a98.547,98.547,0,0,0,23.6,12.6h8.549a.092.092,0,0,0,.091-.091V24.772a.092.092,0,0,0-.091-.091H29.978C29.59,40.733,36.133,57.231,49,66.631" transform="translate(-11.372 -9.367)" fill="#27e171"/>
        <path id="Trazado_900137" data-name="Trazado 900137" d="M46.991,66.631c-12.862-9.4-19.405-25.9-19.017-41.95h-3.2a.091.091,0,0,0-.091.091V79.136a.091.091,0,0,0,.091.091H70.588a98.547,98.547,0,0,1-23.6-12.6" transform="translate(-9.367 -9.367)" fill="#27e19d"/>
        <path id="Trazado_900138" data-name="Trazado 900138" d="M49.076,68.716A94.429,94.429,0,0,0,64.62,77.9H77.9V30.175H30.175V32c.989,14.318,7.434,28.341,18.9,36.721" transform="translate(-11.453 -11.453)" fill="#008728"/>
        <path id="Trazado_900139" data-name="Trazado 900139" d="M64.62,79.018A94.426,94.426,0,0,1,49.076,69.83c-11.467-8.38-17.912-22.4-18.9-36.721V79.018Z" transform="translate(-11.452 -12.566)" fill="#006b32"/>
        <path id="Trazado_900140" data-name="Trazado 900140" d="M92.2,43.291a.818.818,0,1,0-1.636,0Z" transform="translate(-34.372 -16.12)" fill="#fff"/>
        <path id="Trazado_900141" data-name="Trazado 900141" d="M85.607,36.7a.818.818,0,1,0-.818.818.818.818,0,0,0,.818-.818" transform="translate(-31.87 -13.618)" fill="#fff"/>
        <path id="Trazado_900142" data-name="Trazado 900142" d="M98.791,36.7a.818.818,0,1,0-.818.818.818.818,0,0,0,.818-.818" transform="translate(-36.874 -13.618)" fill="#fff"/>
        <path id="Trazado_900143" data-name="Trazado 900143" d="M79.516,43.291a.817.817,0,0,0-.653-.8.8.8,0,0,0-.165-.017v.818Z" transform="translate(-29.869 -16.12)" fill="#fff"/>
        <path id="Trazado_900144" data-name="Trazado 900144" d="M91.382,68.841a.818.818,0,0,0-.8.653.8.8,0,0,0-.017.165H92.2a.8.8,0,0,0-.017-.165.819.819,0,0,0-.8-.653" transform="translate(-34.373 -26.128)" fill="#fff"/>
        <path id="Trazado_900145" data-name="Trazado 900145" d="M91.382,55.657a.818.818,0,1,0,.818.818.817.817,0,0,0-.818-.818" transform="translate(-34.373 -21.124)" fill="#fff"/>
        <path id="Trazado_900146" data-name="Trazado 900146" d="M85.607,63.067a.818.818,0,1,0-.818.818.818.818,0,0,0,.818-.818" transform="translate(-31.87 -23.626)" fill="#fff"/>
        <path id="Trazado_900147" data-name="Trazado 900147" d="M97.973,62.248a.818.818,0,1,0,.818.819.818.818,0,0,0-.818-.819" transform="translate(-36.874 -23.626)" fill="#fff"/>
        <path id="Trazado_900148" data-name="Trazado 900148" d="M84.79,49.064a.818.818,0,1,0,.818.819.818.818,0,0,0-.818-.819" transform="translate(-31.871 -18.622)" fill="#fff"/>
        <path id="Trazado_900149" data-name="Trazado 900149" d="M97.973,49.064a.818.818,0,1,0,.818.819.818.818,0,0,0-.818-.819" transform="translate(-36.874 -18.622)" fill="#fff"/>
        <path id="Trazado_900150" data-name="Trazado 900150" d="M78.863,68.858a.8.8,0,0,0-.165-.017v.818h.818a.8.8,0,0,0-.017-.165.818.818,0,0,0-.636-.636" transform="translate(-29.869 -26.128)" fill="#fff"/>
        <path id="Trazado_900151" data-name="Trazado 900151" d="M78.863,57.277a.819.819,0,0,0,0-1.6.85.85,0,0,0-.165-.017v1.637a.805.805,0,0,0,.165-.017" transform="translate(-29.869 -21.124)" fill="#fff"/>
        <path id="Trazado_900152" data-name="Trazado 900152" d="M90.628,44.109a.818.818,0,0,0,1.572-.318H90.564a.812.812,0,0,0,.064.318" transform="translate(-34.373 -16.62)" fill="#fff"/>
        <path id="Trazado_900153" data-name="Trazado 900153" d="M78.7,44.609a.8.8,0,0,0,.165-.017.818.818,0,0,0,.653-.8H78.7Z" transform="translate(-29.87 -16.62)" fill="#fff"/>
        <path id="Trazado_900154" data-name="Trazado 900154" d="M92.06,95.569a.818.818,0,0,0-1.5.457H92.2a.814.814,0,0,0-.14-.457" transform="translate(-34.373 -36.136)" fill="#fff"/>
        <path id="Trazado_900155" data-name="Trazado 900155" d="M91.382,83.661a.818.818,0,1,0-.818-.819.819.819,0,0,0,.818.819" transform="translate(-34.373 -31.132)" fill="#fff"/>
        <path id="Trazado_900156" data-name="Trazado 900156" d="M84.79,88.616a.818.818,0,1,0,.818.819.818.818,0,0,0-.818-.819" transform="translate(-31.871 -33.633)" fill="#fff"/>
        <path id="Trazado_900157" data-name="Trazado 900157" d="M98.791,89.434a.818.818,0,1,0-.818.818.818.818,0,0,0,.818-.818" transform="translate(-36.874 -33.633)" fill="#fff"/>
        <path id="Trazado_900158" data-name="Trazado 900158" d="M84.79,75.432a.818.818,0,1,0,.818.819.818.818,0,0,0-.818-.819" transform="translate(-31.871 -28.63)" fill="#fff"/>
        <path id="Trazado_900159" data-name="Trazado 900159" d="M97.973,75.432a.818.818,0,1,0,.818.819.818.818,0,0,0-.818-.819" transform="translate(-36.874 -28.63)" fill="#fff"/>
        <path id="Trazado_900160" data-name="Trazado 900160" d="M79.516,96.026a.817.817,0,0,0-.653-.8.8.8,0,0,0-.165-.017v.818Z" transform="translate(-29.869 -36.135)" fill="#fff"/>
        <path id="Trazado_900161" data-name="Trazado 900161" d="M78.863,83.644a.819.819,0,0,0,0-1.6.8.8,0,0,0-.165-.017v1.637a.805.805,0,0,0,.165-.017" transform="translate(-29.869 -31.132)" fill="#fff"/>
        <path id="Trazado_900162" data-name="Trazado 900162" d="M91.382,70.977a.818.818,0,0,0,.818-.818H90.564a.817.817,0,0,0,.818.818" transform="translate(-34.373 -26.628)" fill="#fff"/>
        <path id="Trazado_900163" data-name="Trazado 900163" d="M78.7,70.977a.8.8,0,0,0,.165-.017.818.818,0,0,0,.653-.8H78.7Z" transform="translate(-29.87 -26.628)" fill="#fff"/>
        <path id="Trazado_900164" data-name="Trazado 900164" d="M90.564,96.526a.818.818,0,0,0,1.572.318.812.812,0,0,0,.065-.318Z" transform="translate(-34.373 -36.636)" fill="#fff"/>
        <path id="Trazado_900165" data-name="Trazado 900165" d="M78.7,97.344a.8.8,0,0,0,.165-.017.818.818,0,0,0,.653-.8H78.7Z" transform="translate(-29.87 -36.636)" fill="#fff"/>
        <path id="Trazado_900166" data-name="Trazado 900166" d="M77.52,42.833a.814.814,0,0,0-.14.457H78.2v-.818a.813.813,0,0,0-.319.065.823.823,0,0,0-.36.3" transform="translate(-29.369 -16.12)" fill="#fff"/>
        <path id="Trazado_900167" data-name="Trazado 900167" d="M65.833,43.291a.818.818,0,1,0-1.636,0Z" transform="translate(-24.365 -16.12)" fill="#fff"/>
        <path id="Trazado_900168" data-name="Trazado 900168" d="M59.241,36.7a.818.818,0,1,0-.818.818.818.818,0,0,0,.818-.818" transform="translate(-21.863 -13.618)" fill="#fff"/>
        <path id="Trazado_900169" data-name="Trazado 900169" d="M72.424,36.7a.818.818,0,1,0-.818.818.818.818,0,0,0,.818-.818" transform="translate(-26.867 -13.618)" fill="#fff"/>
        <path id="Trazado_900170" data-name="Trazado 900170" d="M53.15,43.291a.814.814,0,0,0-.14-.457.831.831,0,0,0-.221-.221.814.814,0,0,0-.457-.14v.818Z" transform="translate(-19.862 -16.12)" fill="#fff"/>
        <path id="Trazado_900171" data-name="Trazado 900171" d="M78.2,68.841a.818.818,0,0,0-.8.653.8.8,0,0,0-.017.165H78.2Z" transform="translate(-29.369 -26.128)" fill="#fff"/>
        <path id="Trazado_900172" data-name="Trazado 900172" d="M65.015,68.841a.818.818,0,0,0-.8.653.8.8,0,0,0-.017.165h1.636a.8.8,0,0,0-.017-.165.819.819,0,0,0-.8-.653" transform="translate(-24.365 -26.128)" fill="#fff"/>
        <path id="Trazado_900173" data-name="Trazado 900173" d="M77.38,56.475a.818.818,0,0,0,.818.819V55.657a.818.818,0,0,0-.818.818" transform="translate(-29.369 -21.124)" fill="#fff"/>
        <path id="Trazado_900174" data-name="Trazado 900174" d="M65.015,57.294a.818.818,0,1,0-.818-.819.819.819,0,0,0,.818.819" transform="translate(-24.365 -21.125)" fill="#fff"/>
        <path id="Trazado_900175" data-name="Trazado 900175" d="M58.423,63.885a.818.818,0,1,0-.818-.818.818.818,0,0,0,.818.818" transform="translate(-21.863 -23.626)" fill="#fff"/>
        <path id="Trazado_900176" data-name="Trazado 900176" d="M71.606,63.885a.818.818,0,1,0-.818-.818.818.818,0,0,0,.818.818" transform="translate(-26.867 -23.626)" fill="#fff"/>
        <path id="Trazado_900177" data-name="Trazado 900177" d="M58.423,50.7a.818.818,0,1,0-.818-.818.818.818,0,0,0,.818.818" transform="translate(-21.863 -18.622)" fill="#fff"/>
        <path id="Trazado_900178" data-name="Trazado 900178" d="M71.606,50.7a.818.818,0,1,0-.818-.818.818.818,0,0,0,.818.818" transform="translate(-26.867 -18.622)" fill="#fff"/>
        <path id="Trazado_900179" data-name="Trazado 900179" d="M53.15,69.659a.805.805,0,0,0-.017-.165.817.817,0,0,0-.8-.653v.818Z" transform="translate(-19.862 -26.128)" fill="#fff"/>
        <path id="Trazado_900180" data-name="Trazado 900180" d="M52.789,57.154a.818.818,0,0,0-.457-1.5v1.637a.81.81,0,0,0,.457-.14" transform="translate(-19.862 -21.124)" fill="#fff"/>
        <path id="Trazado_900181" data-name="Trazado 900181" d="M77.38,43.791a.818.818,0,0,0,.818.818v-.818Z" transform="translate(-29.369 -16.62)" fill="#fff"/>
        <path id="Trazado_900182" data-name="Trazado 900182" d="M64.261,44.109a.818.818,0,0,0,1.572-.318H64.2a.812.812,0,0,0,.064.318" transform="translate(-24.365 -16.62)" fill="#fff"/>
        <path id="Trazado_900183" data-name="Trazado 900183" d="M52.332,44.609a.818.818,0,0,0,.818-.818h-.818Z" transform="translate(-19.862 -16.62)" fill="#fff"/>
        <path id="Trazado_900184" data-name="Trazado 900184" d="M78.2,95.209a.817.817,0,0,0-.818.818H78.2Z" transform="translate(-29.369 -36.136)" fill="#fff"/>
        <path id="Trazado_900185" data-name="Trazado 900185" d="M65.693,95.569a.818.818,0,0,0-1.5.457h1.636a.814.814,0,0,0-.14-.457" transform="translate(-24.365 -36.136)" fill="#fff"/>
        <path id="Trazado_900186" data-name="Trazado 900186" d="M78.2,82.025a.818.818,0,1,0,0,1.637Z" transform="translate(-29.369 -31.132)" fill="#fff"/>
        <path id="Trazado_900187" data-name="Trazado 900187" d="M65.015,82.025a.818.818,0,1,0,.818.818.817.817,0,0,0-.818-.818" transform="translate(-24.365 -31.132)" fill="#fff"/>
        <path id="Trazado_900188" data-name="Trazado 900188" d="M58.423,88.616a.818.818,0,1,0,.818.819.818.818,0,0,0-.818-.819" transform="translate(-21.863 -33.633)" fill="#fff"/>
        <path id="Trazado_900189" data-name="Trazado 900189" d="M71.606,88.616a.818.818,0,1,0,.818.819.818.818,0,0,0-.818-.819" transform="translate(-26.867 -33.633)" fill="#fff"/>
        <path id="Trazado_900190" data-name="Trazado 900190" d="M58.423,75.432a.818.818,0,1,0,.818.819.818.818,0,0,0-.818-.819" transform="translate(-21.863 -28.63)" fill="#fff"/>
        <path id="Trazado_900191" data-name="Trazado 900191" d="M71.606,75.432a.818.818,0,1,0,.818.819.818.818,0,0,0-.818-.819" transform="translate(-26.867 -28.63)" fill="#fff"/>
        <path id="Trazado_900192" data-name="Trazado 900192" d="M53.15,96.026a.816.816,0,0,0-.14-.457.831.831,0,0,0-.221-.221.814.814,0,0,0-.457-.14v.818Z" transform="translate(-19.862 -36.135)" fill="#fff"/>
        <path id="Trazado_900193" data-name="Trazado 900193" d="M52.789,82.165a.814.814,0,0,0-.457-.14v1.637a.819.819,0,0,0,.457-1.5" transform="translate(-19.862 -31.132)" fill="#fff"/>
        <path id="Trazado_900194" data-name="Trazado 900194" d="M77.38,70.159a.818.818,0,0,0,.818.818v-.818Z" transform="translate(-29.369 -26.628)" fill="#fff"/>
        <path id="Trazado_900195" data-name="Trazado 900195" d="M65.015,70.977a.818.818,0,0,0,.818-.818H64.2a.817.817,0,0,0,.818.818" transform="translate(-24.365 -26.628)" fill="#fff"/>
        <path id="Trazado_900196" data-name="Trazado 900196" d="M52.332,70.159v.818a.817.817,0,0,0,.818-.818Z" transform="translate(-19.862 -26.628)" fill="#fff"/>
        <path id="Trazado_900197" data-name="Trazado 900197" d="M78.2,96.526H77.38a.818.818,0,0,0,.818.818Z" transform="translate(-29.369 -36.636)" fill="#fff"/>
        <path id="Trazado_900198" data-name="Trazado 900198" d="M64.2,96.526a.818.818,0,0,0,1.572.318.812.812,0,0,0,.065-.318Z" transform="translate(-24.365 -36.636)" fill="#fff"/>
        <path id="Trazado_900199" data-name="Trazado 900199" d="M52.332,96.526v.818a.814.814,0,0,0,.457-.14.823.823,0,0,0,.3-.36.813.813,0,0,0,.065-.318Z" transform="translate(-19.862 -36.636)" fill="#fff"/>
        <path id="Trazado_900200" data-name="Trazado 900200" d="M51.153,42.833a.814.814,0,0,0-.14.457h.818v-.818a.819.819,0,0,0-.679.36" transform="translate(-19.362 -16.12)" fill="#fff"/>
        <path id="Trazado_900201" data-name="Trazado 900201" d="M39.466,43.291a.818.818,0,1,0-1.636,0Z" transform="translate(-14.358 -16.12)" fill="#fff"/>
        <path id="Trazado_900202" data-name="Trazado 900202" d="M46.058,36.7a.818.818,0,1,0-.818.818.818.818,0,0,0,.818-.818" transform="translate(-16.86 -13.618)" fill="#fff"/>
        <path id="Trazado_900203" data-name="Trazado 900203" d="M51.831,68.841a.818.818,0,0,0-.8.653.8.8,0,0,0-.017.165h.818Z" transform="translate(-19.362 -26.128)" fill="#fff"/>
        <path id="Trazado_900204" data-name="Trazado 900204" d="M39.449,69.494a.818.818,0,0,0-1.6,0,.805.805,0,0,0-.017.165h1.636a.8.8,0,0,0-.017-.165" transform="translate(-14.358 -26.128)" fill="#fff"/>
        <path id="Trazado_900205" data-name="Trazado 900205" d="M51.013,56.475a.818.818,0,0,0,.818.819V55.657a.818.818,0,0,0-.818.818" transform="translate(-19.362 -21.124)" fill="#fff"/>
        <path id="Trazado_900206" data-name="Trazado 900206" d="M38.648,55.657a.818.818,0,1,0,.818.818.817.817,0,0,0-.818-.818" transform="translate(-14.358 -21.124)" fill="#fff"/>
        <path id="Trazado_900207" data-name="Trazado 900207" d="M45.239,63.885a.818.818,0,1,0-.818-.818.818.818,0,0,0,.818.818" transform="translate(-16.86 -23.626)" fill="#fff"/>
        <path id="Trazado_900208" data-name="Trazado 900208" d="M45.239,50.7a.818.818,0,1,0-.818-.818.818.818,0,0,0,.818.818" transform="translate(-16.86 -18.622)" fill="#fff"/>
        <path id="Trazado_900209" data-name="Trazado 900209" d="M51.013,43.791a.818.818,0,0,0,.818.818v-.818Z" transform="translate(-19.362 -16.62)" fill="#fff"/>
        <path id="Trazado_900210" data-name="Trazado 900210" d="M37.894,44.109a.818.818,0,0,0,1.572-.318H37.83a.812.812,0,0,0,.064.318" transform="translate(-14.358 -16.62)" fill="#fff"/>
        <path id="Trazado_900211" data-name="Trazado 900211" d="M51.831,95.209a.817.817,0,0,0-.818.818h.818Z" transform="translate(-19.362 -36.136)" fill="#fff"/>
        <path id="Trazado_900212" data-name="Trazado 900212" d="M39.326,95.569a.818.818,0,0,0-1.5.457h1.636a.814.814,0,0,0-.14-.457" transform="translate(-14.358 -36.136)" fill="#fff"/>
        <path id="Trazado_900213" data-name="Trazado 900213" d="M51.512,82.089a.818.818,0,0,0,.319,1.572V82.024a.813.813,0,0,0-.319.065" transform="translate(-19.362 -31.132)" fill="#fff"/>
        <path id="Trazado_900214" data-name="Trazado 900214" d="M38.648,82.025a.818.818,0,1,0,.818.818.817.817,0,0,0-.818-.818" transform="translate(-14.358 -31.132)" fill="#fff"/>
        <path id="Trazado_900215" data-name="Trazado 900215" d="M45.239,88.616a.818.818,0,1,0,.818.819.818.818,0,0,0-.818-.819" transform="translate(-16.86 -33.633)" fill="#fff"/>
        <path id="Trazado_900216" data-name="Trazado 900216" d="M45.239,75.432a.818.818,0,1,0,.818.819.818.818,0,0,0-.818-.819" transform="translate(-16.86 -28.63)" fill="#fff"/>
        <path id="Trazado_900217" data-name="Trazado 900217" d="M51.013,70.159a.818.818,0,0,0,.818.818v-.818Z" transform="translate(-19.362 -26.628)" fill="#fff"/>
        <path id="Trazado_900218" data-name="Trazado 900218" d="M38.648,70.977a.818.818,0,0,0,.818-.818H37.83a.817.817,0,0,0,.818.818" transform="translate(-14.358 -26.628)" fill="#fff"/>
        <path id="Trazado_900219" data-name="Trazado 900219" d="M51.013,96.526a.818.818,0,0,0,.818.818v-.818Z" transform="translate(-19.362 -36.636)" fill="#fff"/>
        <path id="Trazado_900220" data-name="Trazado 900220" d="M37.83,96.526a.818.818,0,0,0,1.572.318.812.812,0,0,0,.065-.318Z" transform="translate(-14.358 -36.636)" fill="#fff"/>
      </g>
    </g>
  </g>
</svg>
