<svg xmlns="http://www.w3.org/2000/svg" width="295" height="159" viewBox="0 0 295 159">
  <g id="Grupo_1113122" data-name="Grupo 1113122" transform="translate(-1125.051 -3102)">
    <rect id="Rectángulo_406429" data-name="Rectángulo 406429" width="295" height="159" transform="translate(1125.051 3102)" fill="#f3f8ff"/>
    <g id="AdobeStock_980565866" transform="translate(1200.914 3116.051)">
      <circle id="Elipse_11640" data-name="Elipse 11640" cx="62.5" cy="62.5" r="62.5" transform="translate(3.137 2.949)" fill="#ffa726"/>
      <g id="Grupo_1113070" data-name="Grupo 1113070" transform="translate(26.366 44.637)">
        <g id="Grupo_1113061" data-name="Grupo 1113061" transform="translate(16.975)">
          <path id="Trazado_900075" data-name="Trazado 900075" d="M161.34,204.821c-1.536,0-2.474-.078-2.578-.078a1.319,1.319,0,0,1-1.12-.911,1.264,1.264,0,0,1,.443-1.38,22.9,22.9,0,0,0,0-37.185,1.264,1.264,0,0,1-.443-1.38,1.282,1.282,0,0,1,1.12-.911,54.47,54.47,0,0,1,16.171,1.614,41.092,41.092,0,0,1,13.306,5.911,31.488,31.488,0,0,1,10.728,12.838,1.274,1.274,0,0,1,0,1.068,31.288,31.288,0,0,1-10.728,12.838,40.6,40.6,0,0,1-13.306,5.911A57.7,57.7,0,0,1,161.34,204.821Zm.885-39.372a25.309,25.309,0,0,1,0,36.82,52.825,52.825,0,0,0,12.109-1.614c10.572-2.708,17.993-8.359,22.03-16.8-4.036-8.437-11.431-14.062-22.03-16.8A56.116,56.116,0,0,0,162.226,165.449Z" transform="translate(-157.587 -162.896)" fill="#fff"/>
        </g>
        <g id="Grupo_1113062" data-name="Grupo 1113062" transform="translate(62.782 19.687)">
          <path id="Trazado_900076" data-name="Trazado 900076" d="M348,241.052H334.776a1.276,1.276,0,0,1,0-2.552H348a1.276,1.276,0,1,1,0,2.552Z" transform="translate(-333.5 -238.5)" fill="#fff"/>
        </g>
        <g id="Grupo_1113063" data-name="Grupo 1113063" transform="translate(12.603 9.818)">
          <path id="Trazado_900077" data-name="Trazado 900077" d="M154.315,203.152H142.076a1.276,1.276,0,1,1,0-2.552h12.239a1.276,1.276,0,1,1,0,2.552Z" transform="translate(-140.8 -200.6)" fill="#fff"/>
        </g>
        <g id="Grupo_1113064" data-name="Grupo 1113064" transform="translate(12.603 29.556)">
          <path id="Trazado_900078" data-name="Trazado 900078" d="M154.315,278.952H142.076a1.276,1.276,0,1,1,0-2.552h12.239a1.276,1.276,0,1,1,0,2.552Z" transform="translate(-140.8 -276.4)" fill="#fff"/>
        </g>
        <g id="Grupo_1113065" data-name="Grupo 1113065" transform="translate(0 9.818)">
          <path id="Trazado_900079" data-name="Trazado 900079" d="M98.832,208.542H93.676a1.278,1.278,0,0,1-1.276-1.276v-5.39a1.278,1.278,0,0,1,1.276-1.276h5.156a3.945,3.945,0,0,1,3.932,3.932v.078A3.945,3.945,0,0,1,98.832,208.542Zm-3.88-2.552h3.854a1.389,1.389,0,0,0,1.38-1.38v-.078a1.389,1.389,0,0,0-1.38-1.38H94.952Z" transform="translate(-92.4 -200.6)" fill="#fff"/>
        </g>
        <g id="Grupo_1113066" data-name="Grupo 1113066" transform="translate(0 4.428)">
          <path id="Trazado_900080" data-name="Trazado 900080" d="M97.79,187.842a1.276,1.276,0,1,1,0-2.552,1.389,1.389,0,0,0,1.38-1.38v-.078a1.389,1.389,0,0,0-1.38-1.38H94.952v4.114a1.276,1.276,0,1,1-2.552,0v-5.39a1.278,1.278,0,0,1,1.276-1.276H97.79a3.945,3.945,0,0,1,3.932,3.932v.078A3.945,3.945,0,0,1,97.79,187.842Z" transform="translate(-92.4 -179.9)" fill="#fff"/>
        </g>
        <g id="Grupo_1113067" data-name="Grupo 1113067" transform="translate(0.525 24.14)">
          <path id="Trazado_900081" data-name="Trazado 900081" d="M103.4,268.984a1.284,1.284,0,0,1-1.2-.859l-2.63-7.421-2.656,7.421a1.285,1.285,0,0,1-2.422-.859l3.854-10.807a1.265,1.265,0,0,1,2.4,0l3.854,10.807a1.276,1.276,0,0,1-.781,1.641A1.18,1.18,0,0,1,103.4,268.984Z" transform="translate(-94.416 -255.6)" fill="#fff"/>
        </g>
        <g id="Grupo_1113068" data-name="Grupo 1113068" transform="translate(1.797 31.457)">
          <path id="Trazado_900082" data-name="Trazado 900082" d="M105.758,286.252h-5.182a1.276,1.276,0,1,1,0-2.552h5.182a1.276,1.276,0,0,1,0,2.552Z" transform="translate(-99.3 -283.7)" fill="#fff"/>
        </g>
        <g id="Grupo_1113069" data-name="Grupo 1113069" transform="translate(55.855 16.224)">
          <path id="Trazado_900083" data-name="Trazado 900083" d="M311.639,234.678a4.739,4.739,0,1,1,4.739-4.739A4.757,4.757,0,0,1,311.639,234.678Zm0-6.927a2.187,2.187,0,1,0,2.187,2.187A2.2,2.2,0,0,0,311.639,227.752Z" transform="translate(-306.9 -225.2)" fill="#fff"/>
        </g>
      </g>
    </g>
  </g>
</svg>
